<svg width="204" height="139" viewBox="0 0 204 139" fill="none" xmlns="http://www.w3.org/2000/svg">
<path d="M1.64 7.04H8.1C8.67333 7.04 9.18667 7.12667 9.64 7.3C10.1067 7.47333 10.5 7.71333 10.82 8.02C11.14 8.32667 11.38 8.70667 11.54 9.16C11.7133 9.6 11.8 10.0867 11.8 10.62C11.8 11.1533 11.7267 11.6067 11.58 11.98C11.4467 12.34 11.26 12.64 11.02 12.88C10.7933 13.12 10.5267 13.3 10.22 13.42C9.92667 13.54 9.62 13.6067 9.3 13.62V13.74C9.60667 13.74 9.93333 13.8 10.28 13.92C10.64 14.04 10.9667 14.2333 11.26 14.5C11.5667 14.7533 11.82 15.0867 12.02 15.5C12.22 15.9 12.32 16.4 12.32 17C12.32 17.56 12.2267 18.0867 12.04 18.58C11.8667 19.06 11.62 19.48 11.3 19.84C10.98 20.2 10.6 20.4867 10.16 20.7C9.72 20.9 9.24 21 8.72 21H1.64V7.04ZM4.28 18.76H7.96C8.46667 18.76 8.86 18.6333 9.14 18.38C9.42 18.1133 9.56 17.7333 9.56 17.24V16.56C9.56 16.0667 9.42 15.6867 9.14 15.42C8.86 15.1533 8.46667 15.02 7.96 15.02H4.28V18.76ZM4.28 12.86H7.54C8.02 12.86 8.39333 12.7333 8.66 12.48C8.92667 12.2133 9.06 11.8467 9.06 11.38V10.76C9.06 10.2933 8.92667 9.93333 8.66 9.68C8.39333 9.41333 8.02 9.28 7.54 9.28H4.28V12.86ZM16.0217 9.04C15.4884 9.04 15.1017 8.92 14.8617 8.68C14.6351 8.44 14.5217 8.13333 14.5217 7.76V7.36C14.5217 6.98667 14.6351 6.68 14.8617 6.44C15.1017 6.2 15.4884 6.08 16.0217 6.08C16.5417 6.08 16.9217 6.2 17.1617 6.44C17.4017 6.68 17.5217 6.98667 17.5217 7.36V7.76C17.5217 8.13333 17.4017 8.44 17.1617 8.68C16.9217 8.92 16.5417 9.04 16.0217 9.04ZM14.7417 10.56H17.3017V21H14.7417V10.56ZM24.4891 21.24C23.7157 21.24 23.0224 21.1133 22.4091 20.86C21.8091 20.5933 21.2957 20.2267 20.8691 19.76C20.4557 19.28 20.1357 18.7067 19.9091 18.04C19.6824 17.36 19.5691 16.6 19.5691 15.76C19.5691 14.9333 19.6757 14.1867 19.8891 13.52C20.1157 12.8533 20.4357 12.2867 20.8491 11.82C21.2624 11.34 21.7691 10.9733 22.3691 10.72C22.9691 10.4533 23.6491 10.32 24.4091 10.32C25.2224 10.32 25.9291 10.46 26.5291 10.74C27.1291 11.02 27.6224 11.4 28.0091 11.88C28.3957 12.36 28.6824 12.92 28.8691 13.56C29.0691 14.1867 29.1691 14.86 29.1691 15.58V16.42H22.2291V16.68C22.2291 17.44 22.4424 18.0533 22.8691 18.52C23.2957 18.9733 23.9291 19.2 24.7691 19.2C25.4091 19.2 25.9291 19.0667 26.3291 18.8C26.7424 18.5333 27.1091 18.1933 27.4291 17.78L28.8091 19.32C28.3824 19.92 27.7957 20.3933 27.0491 20.74C26.3157 21.0733 25.4624 21.24 24.4891 21.24ZM24.4491 12.24C23.7691 12.24 23.2291 12.4667 22.8291 12.92C22.4291 13.3733 22.2291 13.96 22.2291 14.68V14.84H26.5091V14.66C26.5091 13.94 26.3291 13.36 25.9691 12.92C25.6224 12.4667 25.1157 12.24 24.4491 12.24ZM31.4214 21V10.56H33.9814V12.3H34.0814C34.2947 11.74 34.6281 11.2733 35.0814 10.9C35.5481 10.5133 36.1881 10.32 37.0014 10.32C38.0814 10.32 38.9081 10.6733 39.4814 11.38C40.0547 12.0867 40.3414 13.0933 40.3414 14.4V21H37.7814V14.66C37.7814 13.9133 37.6481 13.3533 37.3814 12.98C37.1147 12.6067 36.6747 12.42 36.0614 12.42C35.7947 12.42 35.5347 12.46 35.2814 12.54C35.0414 12.6067 34.8214 12.7133 34.6214 12.86C34.4347 12.9933 34.2814 13.1667 34.1614 13.38C34.0414 13.58 33.9814 13.82 33.9814 14.1V21H31.4214ZM46.4392 21C45.5592 21 44.8859 20.7733 44.4192 20.32C43.9659 19.8533 43.7392 19.1933 43.7392 18.34V12.6H42.1992V10.56H42.9992C43.3859 10.56 43.6459 10.4733 43.7792 10.3C43.9259 10.1133 43.9992 9.84 43.9992 9.48V7.7H46.2992V10.56H48.4392V12.6H46.2992V18.96H48.2792V21H46.4392ZM54.7216 21.24C53.9749 21.24 53.3016 21.1133 52.7016 20.86C52.1149 20.6067 51.6082 20.24 51.1816 19.76C50.7682 19.28 50.4482 18.7067 50.2216 18.04C49.9949 17.36 49.8816 16.6 49.8816 15.76C49.8816 14.92 49.9949 14.1667 50.2216 13.5C50.4482 12.8333 50.7682 12.2667 51.1816 11.8C51.6082 11.32 52.1149 10.9533 52.7016 10.7C53.3016 10.4467 53.9749 10.32 54.7216 10.32C55.4682 10.32 56.1416 10.4467 56.7416 10.7C57.3416 10.9533 57.8482 11.32 58.2616 11.8C58.6882 12.2667 59.0149 12.8333 59.2416 13.5C59.4682 14.1667 59.5816 14.92 59.5816 15.76C59.5816 16.6 59.4682 17.36 59.2416 18.04C59.0149 18.7067 58.6882 19.28 58.2616 19.76C57.8482 20.24 57.3416 20.6067 56.7416 20.86C56.1416 21.1133 55.4682 21.24 54.7216 21.24ZM54.7216 19.18C55.4016 19.18 55.9349 18.9733 56.3216 18.56C56.7082 18.1467 56.9016 17.54 56.9016 16.74V14.8C56.9016 14.0133 56.7082 13.4133 56.3216 13C55.9349 12.5867 55.4016 12.38 54.7216 12.38C54.0549 12.38 53.5282 12.5867 53.1416 13C52.7549 13.4133 52.5616 14.0133 52.5616 14.8V16.74C52.5616 17.54 52.7549 18.1467 53.1416 18.56C53.5282 18.9733 54.0549 19.18 54.7216 19.18ZM65.033 21C64.153 21 63.4796 20.7733 63.013 20.32C62.5596 19.8533 62.333 19.1933 62.333 18.34V12.6H60.793V10.56H61.593C61.9796 10.56 62.2396 10.4733 62.373 10.3C62.5196 10.1133 62.593 9.84 62.593 9.48V7.7H64.893V10.56H67.033V12.6H64.893V18.96H66.873V21H65.033ZM80.22 19.26H80.12C80.0267 19.5267 79.9 19.78 79.74 20.02C79.5933 20.2467 79.4 20.4533 79.16 20.64C78.9333 20.8267 78.6533 20.9733 78.32 21.08C78 21.1867 77.6267 21.24 77.2 21.24C76.12 21.24 75.2933 20.8867 74.72 20.18C74.1467 19.4733 73.86 18.4667 73.86 17.16V10.56H76.42V16.9C76.42 17.62 76.56 18.1733 76.84 18.56C77.12 18.9333 77.5667 19.12 78.18 19.12C78.4333 19.12 78.68 19.0867 78.92 19.02C79.1733 18.9533 79.3933 18.8533 79.58 18.72C79.7667 18.5733 79.92 18.4 80.04 18.2C80.16 17.9867 80.22 17.74 80.22 17.46V10.56H82.78V21H80.22V19.26ZM85.7378 21V10.56H88.2978V12.3H88.3978C88.6111 11.74 88.9445 11.2733 89.3978 10.9C89.8645 10.5133 90.5045 10.32 91.3178 10.32C92.3978 10.32 93.2245 10.6733 93.7978 11.38C94.3711 12.0867 94.6578 13.0933 94.6578 14.4V21H92.0978V14.66C92.0978 13.9133 91.9645 13.3533 91.6978 12.98C91.4311 12.6067 90.9911 12.42 90.3778 12.42C90.1111 12.42 89.8511 12.46 89.5978 12.54C89.3578 12.6067 89.1378 12.7133 88.9378 12.86C88.7511 12.9933 88.5978 13.1667 88.4778 13.38C88.3578 13.58 88.2978 13.82 88.2978 14.1V21H85.7378ZM102.222 21V10.56H104.782V12.3H104.882C105.082 11.7533 105.402 11.2867 105.842 10.9C106.282 10.5133 106.896 10.32 107.682 10.32C108.402 10.32 109.022 10.4933 109.542 10.84C110.062 11.1867 110.449 11.7133 110.702 12.42H110.742C110.929 11.8333 111.296 11.34 111.842 10.94C112.402 10.5267 113.102 10.32 113.942 10.32C114.969 10.32 115.756 10.6733 116.302 11.38C116.862 12.0867 117.142 13.0933 117.142 14.4V21H114.582V14.66C114.582 13.1667 114.022 12.42 112.902 12.42C112.649 12.42 112.402 12.46 112.162 12.54C111.936 12.6067 111.729 12.7133 111.542 12.86C111.369 12.9933 111.229 13.1667 111.122 13.38C111.016 13.58 110.962 13.82 110.962 14.1V21H108.402V14.66C108.402 13.1667 107.842 12.42 106.722 12.42C106.482 12.42 106.242 12.46 106.002 12.54C105.776 12.6067 105.569 12.7133 105.382 12.86C105.209 12.9933 105.062 13.1667 104.942 13.38C104.836 13.58 104.782 13.82 104.782 14.1V21H102.222ZM124.476 9.38L122.936 8.64L124.836 4.9L126.996 5.96L124.476 9.38ZM124.196 21.24C123.423 21.24 122.729 21.1133 122.116 20.86C121.516 20.5933 121.003 20.2267 120.576 19.76C120.163 19.28 119.843 18.7067 119.616 18.04C119.389 17.36 119.276 16.6 119.276 15.76C119.276 14.9333 119.383 14.1867 119.596 13.52C119.823 12.8533 120.143 12.2867 120.556 11.82C120.969 11.34 121.476 10.9733 122.076 10.72C122.676 10.4533 123.356 10.32 124.116 10.32C124.929 10.32 125.636 10.46 126.236 10.74C126.836 11.02 127.329 11.4 127.716 11.88C128.103 12.36 128.389 12.92 128.576 13.56C128.776 14.1867 128.876 14.86 128.876 15.58V16.42H121.936V16.68C121.936 17.44 122.149 18.0533 122.576 18.52C123.003 18.9733 123.636 19.2 124.476 19.2C125.116 19.2 125.636 19.0667 126.036 18.8C126.449 18.5333 126.816 18.1933 127.136 17.78L128.516 19.32C128.089 19.92 127.503 20.3933 126.756 20.74C126.023 21.0733 125.169 21.24 124.196 21.24ZM124.156 12.24C123.476 12.24 122.936 12.4667 122.536 12.92C122.136 13.3733 121.936 13.96 121.936 14.68V14.84H126.216V14.66C126.216 13.94 126.036 13.36 125.676 12.92C125.329 12.4667 124.823 12.24 124.156 12.24ZM134.388 21C133.508 21 132.835 20.7733 132.368 20.32C131.915 19.8533 131.688 19.1933 131.688 18.34V12.6H130.148V10.56H130.948C131.335 10.56 131.595 10.4733 131.728 10.3C131.875 10.1133 131.948 9.84 131.948 9.48V7.7H134.248V10.56H136.388V12.6H134.248V18.96H136.228V21H134.388ZM138.609 21V10.56H141.169V12.72H141.269C141.336 12.44 141.436 12.1733 141.569 11.92C141.716 11.6533 141.902 11.42 142.129 11.22C142.356 11.02 142.622 10.86 142.929 10.74C143.249 10.62 143.616 10.56 144.029 10.56H144.589V12.98H143.789C142.922 12.98 142.269 13.1067 141.829 13.36C141.389 13.6133 141.169 14.0267 141.169 14.6V21H138.609ZM150.503 21.24C149.756 21.24 149.083 21.1133 148.483 20.86C147.896 20.6067 147.389 20.24 146.963 19.76C146.549 19.28 146.229 18.7067 146.003 18.04C145.776 17.36 145.663 16.6 145.663 15.76C145.663 14.92 145.776 14.1667 146.003 13.5C146.229 12.8333 146.549 12.2667 146.963 11.8C147.389 11.32 147.896 10.9533 148.483 10.7C149.083 10.4467 149.756 10.32 150.503 10.32C151.249 10.32 151.923 10.4467 152.523 10.7C153.123 10.9533 153.629 11.32 154.043 11.8C154.469 12.2667 154.796 12.8333 155.023 13.5C155.249 14.1667 155.363 14.92 155.363 15.76C155.363 16.6 155.249 17.36 155.023 18.04C154.796 18.7067 154.469 19.28 154.043 19.76C153.629 20.24 153.123 20.6067 152.523 20.86C151.923 21.1133 151.249 21.24 150.503 21.24ZM150.503 19.18C151.183 19.18 151.716 18.9733 152.103 18.56C152.489 18.1467 152.683 17.54 152.683 16.74V14.8C152.683 14.0133 152.489 13.4133 152.103 13C151.716 12.5867 151.183 12.38 150.503 12.38C149.836 12.38 149.309 12.5867 148.923 13C148.536 13.4133 148.343 14.0133 148.343 14.8V16.74C148.343 17.54 148.536 18.1467 148.923 18.56C149.309 18.9733 149.836 19.18 150.503 19.18ZM7.96 45.26H7.86C7.67333 45.86 7.32 46.34 6.8 46.7C6.28 47.06 5.67333 47.24 4.98 47.24C3.66 47.24 2.64667 46.7667 1.94 45.82C1.24667 44.8733 0.9 43.52 0.9 41.76C0.9 40.0133 1.24667 38.6733 1.94 37.74C2.64667 36.7933 3.66 36.32 4.98 36.32C5.67333 36.32 6.28 36.5 6.8 36.86C7.32 37.2067 7.67333 37.68 7.86 38.28H7.96V32.2H10.52V47H7.96V45.26ZM5.8 45.12C6.41333 45.12 6.92667 44.9733 7.34 44.68C7.75333 44.3867 7.96 43.9667 7.96 43.42V40.1C7.96 39.5933 7.75333 39.1867 7.34 38.88C6.92667 38.5733 6.41333 38.42 5.8 38.42C5.13333 38.42 4.59333 38.6467 4.18 39.1C3.78 39.54 3.58 40.1333 3.58 40.88V42.68C3.58 43.4267 3.78 44.02 4.18 44.46C4.59333 44.9 5.13333 45.12 5.8 45.12ZM21.1522 47C20.5922 47 20.1455 46.84 19.8122 46.52C19.4922 46.1867 19.2922 45.7467 19.2122 45.2H19.0922C18.9189 45.88 18.5655 46.3933 18.0322 46.74C17.4989 47.0733 16.8389 47.24 16.0522 47.24C14.9855 47.24 14.1655 46.96 13.5922 46.4C13.0189 45.84 12.7322 45.0933 12.7322 44.16C12.7322 43.08 13.1189 42.28 13.8922 41.76C14.6655 41.2267 15.7655 40.96 17.1922 40.96H18.9722V40.2C18.9722 39.6133 18.8189 39.16 18.5122 38.84C18.2055 38.52 17.7122 38.36 17.0322 38.36C16.4322 38.36 15.9455 38.4933 15.5722 38.76C15.2122 39.0133 14.9055 39.32 14.6522 39.68L13.1322 38.32C13.5189 37.72 14.0322 37.24 14.6722 36.88C15.3122 36.5067 16.1589 36.32 17.2122 36.32C18.6255 36.32 19.6989 36.64 20.4322 37.28C21.1655 37.92 21.5322 38.84 21.5322 40.04V44.96H22.5722V47H21.1522ZM16.9122 45.38C17.4855 45.38 17.9722 45.2533 18.3722 45C18.7722 44.7467 18.9722 44.3733 18.9722 43.88V42.5H17.3322C15.9989 42.5 15.3322 42.9267 15.3322 43.78V44.12C15.3322 44.5467 15.4655 44.8667 15.7322 45.08C16.0122 45.28 16.4055 45.38 16.9122 45.38ZM24.6441 47V36.56H27.2041V38.3H27.3041C27.5174 37.74 27.8507 37.2733 28.3041 36.9C28.7707 36.5133 29.4107 36.32 30.2241 36.32C31.3041 36.32 32.1307 36.6733 32.7041 37.38C33.2774 38.0867 33.5641 39.0933 33.5641 40.4V47H31.0041V40.66C31.0041 39.9133 30.8707 39.3533 30.6041 38.98C30.3374 38.6067 29.8974 38.42 29.2841 38.42C29.0174 38.42 28.7574 38.46 28.5041 38.54C28.2641 38.6067 28.0441 38.7133 27.8441 38.86C27.6574 38.9933 27.5041 39.1667 27.3841 39.38C27.2641 39.58 27.2041 39.82 27.2041 40.1V47H24.6441ZM39.8219 47.24C38.8219 47.24 37.9819 47.0733 37.3019 46.74C36.6219 46.3933 36.0219 45.92 35.5019 45.32L37.0619 43.8C37.4485 44.24 37.8685 44.5867 38.3219 44.84C38.7885 45.0933 39.3219 45.22 39.9219 45.22C40.5352 45.22 40.9752 45.1133 41.2419 44.9C41.5219 44.6867 41.6619 44.3933 41.6619 44.02C41.6619 43.7133 41.5619 43.4733 41.3619 43.3C41.1752 43.1133 40.8485 42.9867 40.3819 42.92L39.3419 42.78C38.2085 42.6333 37.3419 42.3133 36.7419 41.82C36.1552 41.3133 35.8619 40.58 35.8619 39.62C35.8619 39.1133 35.9552 38.66 36.1419 38.26C36.3285 37.8467 36.5952 37.5 36.9419 37.22C37.2885 36.9267 37.7019 36.7067 38.1819 36.56C38.6752 36.4 39.2219 36.32 39.8219 36.32C40.3285 36.32 40.7752 36.36 41.1619 36.44C41.5619 36.5067 41.9219 36.6133 42.2419 36.76C42.5619 36.8933 42.8552 37.0667 43.1219 37.28C43.3885 37.48 43.6485 37.7067 43.9019 37.96L42.4019 39.46C42.0952 39.14 41.7285 38.8733 41.3019 38.66C40.8752 38.4467 40.4085 38.34 39.9019 38.34C39.3419 38.34 38.9352 38.44 38.6819 38.64C38.4419 38.84 38.3219 39.1 38.3219 39.42C38.3219 39.7667 38.4219 40.0333 38.6219 40.22C38.8352 40.3933 39.1885 40.52 39.6819 40.6L40.7419 40.74C42.9952 41.06 44.1219 42.0867 44.1219 43.82C44.1219 44.3267 44.0152 44.7933 43.8019 45.22C43.6019 45.6333 43.3152 45.9933 42.9419 46.3C42.5685 46.5933 42.1152 46.8267 41.5819 47C41.0619 47.16 40.4752 47.24 39.8219 47.24ZM53.6689 47C52.7889 47 52.1422 46.78 51.7289 46.34C51.3156 45.9 51.1089 45.28 51.1089 44.48V32.2H53.6689V44.96H55.0489V47H53.6689ZM64.6678 47C64.1078 47 63.6611 46.84 63.3278 46.52C63.0078 46.1867 62.8078 45.7467 62.7278 45.2H62.6078C62.4345 45.88 62.0811 46.3933 61.5478 46.74C61.0145 47.0733 60.3545 47.24 59.5678 47.24C58.5011 47.24 57.6811 46.96 57.1078 46.4C56.5345 45.84 56.2478 45.0933 56.2478 44.16C56.2478 43.08 56.6345 42.28 57.4078 41.76C58.1811 41.2267 59.2811 40.96 60.7078 40.96H62.4878V40.2C62.4878 39.6133 62.3345 39.16 62.0278 38.84C61.7211 38.52 61.2278 38.36 60.5478 38.36C59.9478 38.36 59.4611 38.4933 59.0878 38.76C58.7278 39.0133 58.4211 39.32 58.1678 39.68L56.6478 38.32C57.0345 37.72 57.5478 37.24 58.1878 36.88C58.8278 36.5067 59.6745 36.32 60.7278 36.32C62.1411 36.32 63.2145 36.64 63.9478 37.28C64.6811 37.92 65.0478 38.84 65.0478 40.04V44.96H66.0878V47H64.6678ZM60.4278 45.38C61.0011 45.38 61.4878 45.2533 61.8878 45C62.2878 44.7467 62.4878 44.3733 62.4878 43.88V42.5H60.8478C59.5145 42.5 58.8478 42.9267 58.8478 43.78V44.12C58.8478 44.5467 58.9811 44.8667 59.2478 45.08C59.5278 45.28 59.9211 45.38 60.4278 45.38ZM77.0063 47.24C76.2329 47.24 75.5463 47.1133 74.9463 46.86C74.3462 46.6067 73.8396 46.24 73.4263 45.76C73.0263 45.28 72.7196 44.7067 72.5063 44.04C72.2929 43.36 72.1863 42.6 72.1863 41.76C72.1863 40.92 72.2929 40.1667 72.5063 39.5C72.7196 38.8333 73.0263 38.2667 73.4263 37.8C73.8396 37.32 74.3462 36.9533 74.9463 36.7C75.5463 36.4467 76.2329 36.32 77.0063 36.32C78.0596 36.32 78.9263 36.5533 79.6063 37.02C80.2996 37.4867 80.7996 38.1333 81.1063 38.96L79.0063 39.9C78.8863 39.46 78.6596 39.1 78.3263 38.82C78.0063 38.5267 77.5663 38.38 77.0063 38.38C76.2863 38.38 75.7463 38.6067 75.3863 39.06C75.0396 39.5133 74.8663 40.1067 74.8663 40.84V42.74C74.8663 43.4733 75.0396 44.0667 75.3863 44.52C75.7463 44.96 76.2863 45.18 77.0063 45.18C77.6196 45.18 78.0929 45.0267 78.4263 44.72C78.7596 44.4 79.0196 44.0067 79.2063 43.54L81.1663 44.48C80.8196 45.4 80.2929 46.0933 79.5863 46.56C78.8796 47.0133 78.0196 47.24 77.0063 47.24ZM90.8202 47C90.2602 47 89.8135 46.84 89.4802 46.52C89.1602 46.1867 88.9602 45.7467 88.8802 45.2H88.7602C88.5868 45.88 88.2335 46.3933 87.7002 46.74C87.1668 47.0733 86.5068 47.24 85.7202 47.24C84.6535 47.24 83.8335 46.96 83.2602 46.4C82.6868 45.84 82.4002 45.0933 82.4002 44.16C82.4002 43.08 82.7868 42.28 83.5602 41.76C84.3335 41.2267 85.4335 40.96 86.8602 40.96H88.6402V40.2C88.6402 39.6133 88.4868 39.16 88.1802 38.84C87.8735 38.52 87.3802 38.36 86.7002 38.36C86.1002 38.36 85.6135 38.4933 85.2402 38.76C84.8802 39.0133 84.5735 39.32 84.3202 39.68L82.8002 38.32C83.1868 37.72 83.7002 37.24 84.3402 36.88C84.9802 36.5067 85.8268 36.32 86.8802 36.32C88.2935 36.32 89.3668 36.64 90.1002 37.28C90.8335 37.92 91.2002 38.84 91.2002 40.04V44.96H92.2402V47H90.8202ZM86.5802 45.38C87.1535 45.38 87.6402 45.2533 88.0402 45C88.4402 44.7467 88.6402 44.3733 88.6402 43.88V42.5H87.0002C85.6668 42.5 85.0002 42.9267 85.0002 43.78V44.12C85.0002 44.5467 85.1335 44.8667 85.4002 45.08C85.6802 45.28 86.0735 45.38 86.5802 45.38ZM94.312 36.56H96.872V38.28H96.952C97.1387 37.68 97.492 37.2067 98.012 36.86C98.532 36.5 99.1387 36.32 99.832 36.32C101.165 36.32 102.179 36.7933 102.872 37.74C103.579 38.6733 103.932 40.0133 103.932 41.76C103.932 43.52 103.579 44.8733 102.872 45.82C102.179 46.7667 101.165 47.24 99.832 47.24C99.1387 47.24 98.532 47.06 98.012 46.7C97.5054 46.34 97.152 45.86 96.952 45.26H96.872V51H94.312V36.56ZM99.012 45.12C99.6787 45.12 100.219 44.9 100.632 44.46C101.045 44.02 101.252 43.4267 101.252 42.68V40.88C101.252 40.1333 101.045 39.54 100.632 39.1C100.219 38.6467 99.6787 38.42 99.012 38.42C98.3987 38.42 97.8854 38.5733 97.472 38.88C97.072 39.1867 96.872 39.5933 96.872 40.1V43.42C96.872 43.9667 97.072 44.3867 97.472 44.68C97.8854 44.9733 98.3987 45.12 99.012 45.12ZM107.584 35.04C107.051 35.04 106.664 34.92 106.424 34.68C106.198 34.44 106.084 34.1333 106.084 33.76V33.36C106.084 32.9867 106.198 32.68 106.424 32.44C106.664 32.2 107.051 32.08 107.584 32.08C108.104 32.08 108.484 32.2 108.724 32.44C108.964 32.68 109.084 32.9867 109.084 33.36V33.76C109.084 34.1333 108.964 34.44 108.724 34.68C108.484 34.92 108.104 35.04 107.584 35.04ZM106.304 36.56H108.864V47H106.304V36.56ZM115.092 47C114.212 47 113.538 46.7733 113.072 46.32C112.618 45.8533 112.392 45.1933 112.392 44.34V38.6H110.852V36.56H111.652C112.038 36.56 112.298 36.4733 112.432 36.3C112.578 36.1133 112.652 35.84 112.652 35.48V33.7H114.952V36.56H117.092V38.6H114.952V44.96H116.932V47H115.092ZM126.992 47C126.432 47 125.985 46.84 125.652 46.52C125.332 46.1867 125.132 45.7467 125.052 45.2H124.932C124.759 45.88 124.405 46.3933 123.872 46.74C123.339 47.0733 122.679 47.24 121.892 47.24C120.825 47.24 120.005 46.96 119.432 46.4C118.859 45.84 118.572 45.0933 118.572 44.16C118.572 43.08 118.959 42.28 119.732 41.76C120.505 41.2267 121.605 40.96 123.032 40.96H124.812V40.2C124.812 39.6133 124.659 39.16 124.352 38.84C124.045 38.52 123.552 38.36 122.872 38.36C122.272 38.36 121.785 38.4933 121.412 38.76C121.052 39.0133 120.745 39.32 120.492 39.68L118.972 38.32C119.359 37.72 119.872 37.24 120.512 36.88C121.152 36.5067 121.999 36.32 123.052 36.32C124.465 36.32 125.539 36.64 126.272 37.28C127.005 37.92 127.372 38.84 127.372 40.04V44.96H128.412V47H126.992ZM122.752 45.38C123.325 45.38 123.812 45.2533 124.212 45C124.612 44.7467 124.812 44.3733 124.812 43.88V42.5H123.172C121.839 42.5 121.172 42.9267 121.172 43.78V44.12C121.172 44.5467 121.305 44.8667 121.572 45.08C121.852 45.28 122.245 45.38 122.752 45.38ZM133.044 47C132.164 47 131.517 46.78 131.104 46.34C130.691 45.9 130.484 45.28 130.484 44.48V32.2H133.044V44.96H134.424V47H133.044ZM140.583 47.24C139.809 47.24 139.116 47.1133 138.503 46.86C137.903 46.5933 137.389 46.2267 136.963 45.76C136.549 45.28 136.229 44.7067 136.003 44.04C135.776 43.36 135.663 42.6 135.663 41.76C135.663 40.9333 135.769 40.1867 135.983 39.52C136.209 38.8533 136.529 38.2867 136.943 37.82C137.356 37.34 137.863 36.9733 138.463 36.72C139.063 36.4533 139.743 36.32 140.503 36.32C141.316 36.32 142.023 36.46 142.623 36.74C143.223 37.02 143.716 37.4 144.103 37.88C144.489 38.36 144.776 38.92 144.963 39.56C145.163 40.1867 145.263 40.86 145.263 41.58V42.42H138.323V42.68C138.323 43.44 138.536 44.0533 138.963 44.52C139.389 44.9733 140.023 45.2 140.863 45.2C141.503 45.2 142.023 45.0667 142.423 44.8C142.836 44.5333 143.203 44.1933 143.523 43.78L144.903 45.32C144.476 45.92 143.889 46.3933 143.143 46.74C142.409 47.0733 141.556 47.24 140.583 47.24ZM140.543 38.24C139.863 38.24 139.323 38.4667 138.923 38.92C138.523 39.3733 138.323 39.96 138.323 40.68V40.84H142.603V40.66C142.603 39.94 142.423 39.36 142.063 38.92C141.716 38.4667 141.209 38.24 140.543 38.24Z" fill="#443434"/>
<path d="M4.36719 97V87.0059H5.5293V95.9609H9.96582V97H4.36719ZM17.6973 89.5078V97H16.7676L16.6035 95.9473H16.542C16.387 96.207 16.1865 96.4258 15.9404 96.6035C15.6943 96.7812 15.4163 96.9134 15.1064 97C14.8011 97.0911 14.4753 97.1367 14.1289 97.1367C13.5365 97.1367 13.0397 97.041 12.6387 96.8496C12.2376 96.6582 11.9346 96.362 11.7295 95.9609C11.529 95.5599 11.4287 95.0449 11.4287 94.416V89.5078H12.5771V94.334C12.5771 94.9583 12.7184 95.4255 13.001 95.7354C13.2835 96.0407 13.7142 96.1934 14.293 96.1934C14.849 96.1934 15.291 96.0885 15.6191 95.8789C15.9518 95.6693 16.1911 95.3617 16.3369 94.9561C16.4827 94.5459 16.5557 94.0446 16.5557 93.4521V89.5078H17.6973ZM23.6445 89.3711C24.5332 89.3711 25.2054 89.5898 25.6611 90.0273C26.1169 90.4603 26.3447 91.1576 26.3447 92.1191V97H25.2236V92.1943C25.2236 91.57 25.0801 91.1029 24.793 90.793C24.5104 90.4831 24.0752 90.3281 23.4873 90.3281C22.6579 90.3281 22.0745 90.5628 21.7373 91.0322C21.4001 91.5016 21.2314 92.1829 21.2314 93.0762V97H20.0967V89.5078H21.0127L21.1836 90.5879H21.2451C21.4046 90.3236 21.6074 90.1025 21.8535 89.9248C22.0996 89.7425 22.3753 89.6058 22.6807 89.5146C22.986 89.4189 23.3073 89.3711 23.6445 89.3711ZM31.3486 97.1367C30.4007 97.1367 29.6488 96.8132 29.0928 96.166C28.5413 95.5189 28.2656 94.5573 28.2656 93.2812C28.2656 91.9915 28.5482 91.0186 29.1133 90.3623C29.6784 89.7015 30.4303 89.3711 31.3691 89.3711C31.7656 89.3711 32.112 89.4235 32.4082 89.5283C32.7044 89.6331 32.9596 89.7744 33.1738 89.9521C33.388 90.1253 33.568 90.3236 33.7139 90.5469H33.7959C33.7777 90.4056 33.7594 90.2119 33.7412 89.9658C33.723 89.7197 33.7139 89.5192 33.7139 89.3643V86.3633H34.8486V97H33.9326L33.7617 95.9336H33.7139C33.5726 96.1569 33.3926 96.3597 33.1738 96.542C32.9596 96.7243 32.7021 96.8701 32.4014 96.9795C32.1051 97.0843 31.7542 97.1367 31.3486 97.1367ZM31.5264 96.1934C32.3285 96.1934 32.8958 95.9655 33.2285 95.5098C33.5612 95.054 33.7275 94.3773 33.7275 93.4795V93.2744C33.7275 92.3219 33.568 91.5905 33.249 91.0801C32.9346 90.5697 32.3604 90.3145 31.5264 90.3145C30.8291 90.3145 30.3073 90.5833 29.9609 91.1211C29.6146 91.6543 29.4414 92.3835 29.4414 93.3086C29.4414 94.2292 29.6123 94.9401 29.9541 95.4414C30.3005 95.9427 30.8245 96.1934 31.5264 96.1934ZM38.3896 89.5078V97H37.2549V89.5078H38.3896ZM37.8359 86.7051C38.0228 86.7051 38.1823 86.7666 38.3145 86.8896C38.4512 87.0081 38.5195 87.195 38.5195 87.4502C38.5195 87.7008 38.4512 87.8877 38.3145 88.0107C38.1823 88.1338 38.0228 88.1953 37.8359 88.1953C37.64 88.1953 37.4759 88.1338 37.3438 88.0107C37.2161 87.8877 37.1523 87.7008 37.1523 87.4502C37.1523 87.195 37.2161 87.0081 37.3438 86.8896C37.4759 86.7666 37.64 86.7051 37.8359 86.7051ZM52.5674 89.3711C53.3923 89.3711 54.0143 89.5876 54.4336 90.0205C54.8529 90.4489 55.0625 91.1393 55.0625 92.0918V97H53.9414V92.1465C53.9414 91.5404 53.8092 91.0869 53.5449 90.7861C53.2852 90.4808 52.8978 90.3281 52.3828 90.3281C51.6582 90.3281 51.1318 90.5378 50.8037 90.957C50.4756 91.3763 50.3115 91.9938 50.3115 92.8096V97H49.1836V92.1465C49.1836 91.7409 49.1243 91.4036 49.0059 91.1348C48.8919 90.8659 48.7188 90.6654 48.4863 90.5332C48.2585 90.3965 47.9691 90.3281 47.6182 90.3281C47.1214 90.3281 46.7227 90.4307 46.4219 90.6357C46.1211 90.8408 45.9023 91.1462 45.7656 91.5518C45.6335 91.9528 45.5674 92.4473 45.5674 93.0352V97H44.4326V89.5078H45.3486L45.5195 90.5674H45.5811C45.7314 90.3076 45.9206 90.0889 46.1484 89.9111C46.3763 89.7334 46.6315 89.599 46.9141 89.5078C47.1966 89.4167 47.4974 89.3711 47.8164 89.3711C48.3861 89.3711 48.8623 89.4782 49.2451 89.6924C49.6325 89.902 49.9128 90.2233 50.0859 90.6562H50.1475C50.3936 90.2233 50.7308 89.902 51.1592 89.6924C51.5876 89.4782 52.057 89.3711 52.5674 89.3711ZM60.1963 89.3848C61.0895 89.3848 61.7526 89.5853 62.1855 89.9863C62.6185 90.3874 62.835 91.0277 62.835 91.9072V97H62.0078L61.7891 95.8926H61.7344C61.5247 96.166 61.306 96.3962 61.0781 96.583C60.8503 96.7653 60.5859 96.9043 60.2852 97C59.9889 97.0911 59.6243 97.1367 59.1914 97.1367C58.7357 97.1367 58.3301 97.057 57.9746 96.8975C57.6237 96.738 57.3457 96.4964 57.1406 96.1729C56.9401 95.8493 56.8398 95.4391 56.8398 94.9424C56.8398 94.195 57.1361 93.6208 57.7285 93.2197C58.321 92.8187 59.2233 92.5999 60.4355 92.5635L61.7275 92.5088V92.0508C61.7275 91.4036 61.5885 90.9502 61.3105 90.6904C61.0326 90.4307 60.6406 90.3008 60.1348 90.3008C59.7428 90.3008 59.3691 90.3577 59.0137 90.4717C58.6582 90.5856 58.321 90.7201 58.002 90.875L57.6533 90.0137C57.9906 89.8405 58.3779 89.6924 58.8154 89.5693C59.2529 89.4463 59.7132 89.3848 60.1963 89.3848ZM61.7139 93.3086L60.5723 93.3564C59.638 93.3929 58.9795 93.5456 58.5967 93.8145C58.2139 94.0833 58.0225 94.4639 58.0225 94.9561C58.0225 95.3844 58.1523 95.7012 58.4121 95.9062C58.6719 96.1113 59.016 96.2139 59.4443 96.2139C60.1097 96.2139 60.6543 96.0293 61.0781 95.6602C61.502 95.291 61.7139 94.7373 61.7139 93.999V93.3086ZM67.5928 96.207C67.7796 96.207 67.971 96.1911 68.167 96.1592C68.363 96.1273 68.5225 96.0885 68.6455 96.043V96.9248C68.5133 96.984 68.3288 97.0342 68.0918 97.0752C67.8594 97.1162 67.6315 97.1367 67.4082 97.1367C67.0117 97.1367 66.6517 97.0684 66.3281 96.9316C66.0046 96.7904 65.7448 96.5534 65.5488 96.2207C65.3574 95.888 65.2617 95.4277 65.2617 94.8398V90.3965H64.1953V89.8428L65.2686 89.3984L65.7197 87.7715H66.4033V89.5078H68.5977V90.3965H66.4033V94.8057C66.4033 95.2751 66.5104 95.626 66.7246 95.8584C66.9434 96.0908 67.2327 96.207 67.5928 96.207ZM71.2979 89.5078V97H70.1631V89.5078H71.2979ZM70.7441 86.7051C70.931 86.7051 71.0905 86.7666 71.2227 86.8896C71.3594 87.0081 71.4277 87.195 71.4277 87.4502C71.4277 87.7008 71.3594 87.8877 71.2227 88.0107C71.0905 88.1338 70.931 88.1953 70.7441 88.1953C70.5482 88.1953 70.3841 88.1338 70.252 88.0107C70.1243 87.8877 70.0605 87.7008 70.0605 87.4502C70.0605 87.195 70.1243 87.0081 70.252 86.8896C70.3841 86.7666 70.5482 86.7051 70.7441 86.7051ZM77.252 89.3711C78.1406 89.3711 78.8128 89.5898 79.2686 90.0273C79.7243 90.4603 79.9521 91.1576 79.9521 92.1191V97H78.8311V92.1943C78.8311 91.57 78.6875 91.1029 78.4004 90.793C78.1178 90.4831 77.6826 90.3281 77.0947 90.3281C76.2653 90.3281 75.682 90.5628 75.3447 91.0322C75.0075 91.5016 74.8389 92.1829 74.8389 93.0762V97H73.7041V89.5078H74.6201L74.791 90.5879H74.8525C75.012 90.3236 75.2148 90.1025 75.4609 89.9248C75.707 89.7425 75.9827 89.6058 76.2881 89.5146C76.5934 89.4189 76.9147 89.3711 77.252 89.3711ZM83.5889 95.373L83.6777 95.5303C83.5957 95.863 83.4909 96.2184 83.3633 96.5967C83.2402 96.9749 83.1035 97.3532 82.9531 97.7314C82.8073 98.1143 82.6592 98.472 82.5088 98.8047H81.6611C81.7568 98.4401 81.8503 98.055 81.9414 97.6494C82.0326 97.2484 82.1146 96.8519 82.1875 96.46C82.265 96.0635 82.3265 95.7012 82.3721 95.373H83.5889ZM90.6914 97H89.5498V86.3633H90.6914V97ZM95.9756 89.3711C96.6136 89.3711 97.1605 89.5124 97.6162 89.7949C98.0719 90.0775 98.4206 90.474 98.6621 90.9844C98.9036 91.4902 99.0244 92.0827 99.0244 92.7617V93.4658H93.8496C93.8633 94.3454 94.082 95.0153 94.5059 95.4756C94.9297 95.9359 95.5267 96.166 96.2969 96.166C96.7708 96.166 97.1901 96.1227 97.5547 96.0361C97.9193 95.9495 98.2975 95.8219 98.6895 95.6533V96.6514C98.3112 96.82 97.9352 96.943 97.5615 97.0205C97.1924 97.098 96.7549 97.1367 96.249 97.1367C95.529 97.1367 94.9001 96.9909 94.3623 96.6992C93.8291 96.403 93.4144 95.9701 93.1182 95.4004C92.8219 94.8307 92.6738 94.1335 92.6738 93.3086C92.6738 92.502 92.8083 91.8047 93.0771 91.2168C93.3506 90.6243 93.7334 90.1686 94.2256 89.8496C94.7223 89.5306 95.3057 89.3711 95.9756 89.3711ZM95.9619 90.3008C95.3558 90.3008 94.8727 90.499 94.5127 90.8955C94.1527 91.292 93.9385 91.8457 93.8701 92.5566H97.835C97.8304 92.11 97.7598 91.7181 97.623 91.3809C97.4909 91.0391 97.2881 90.7747 97.0146 90.5879C96.7412 90.3965 96.3903 90.3008 95.9619 90.3008ZM109.436 94.9492C109.436 95.4277 109.315 95.8311 109.073 96.1592C108.836 96.4827 108.494 96.7266 108.048 96.8906C107.606 97.0547 107.077 97.1367 106.462 97.1367C105.938 97.1367 105.484 97.0957 105.102 97.0137C104.719 96.9316 104.384 96.8154 104.097 96.665V95.6191C104.402 95.7695 104.767 95.9062 105.19 96.0293C105.614 96.1523 106.047 96.2139 106.489 96.2139C107.136 96.2139 107.606 96.109 107.897 95.8994C108.189 95.6898 108.335 95.4049 108.335 95.0449C108.335 94.8398 108.276 94.6598 108.157 94.5049C108.043 94.3454 107.85 94.1927 107.576 94.0469C107.303 93.8965 106.924 93.7324 106.441 93.5547C105.963 93.3724 105.548 93.1924 105.197 93.0146C104.851 92.8324 104.582 92.6113 104.391 92.3516C104.204 92.0918 104.11 91.7546 104.11 91.3398C104.11 90.7064 104.366 90.221 104.876 89.8838C105.391 89.542 106.065 89.3711 106.899 89.3711C107.351 89.3711 107.772 89.4167 108.164 89.5078C108.561 89.5944 108.93 89.7129 109.271 89.8633L108.889 90.7725C108.579 90.6403 108.248 90.5286 107.897 90.4375C107.547 90.3464 107.189 90.3008 106.824 90.3008C106.3 90.3008 105.897 90.3874 105.614 90.5605C105.336 90.7337 105.197 90.9707 105.197 91.2715C105.197 91.5039 105.261 91.6953 105.389 91.8457C105.521 91.9961 105.73 92.1374 106.018 92.2695C106.305 92.4017 106.683 92.5566 107.152 92.7344C107.622 92.9076 108.027 93.0876 108.369 93.2744C108.711 93.4567 108.973 93.68 109.155 93.9443C109.342 94.2041 109.436 94.5391 109.436 94.9492ZM117.721 93.2402C117.721 93.8555 117.641 94.4046 117.481 94.8877C117.322 95.3708 117.092 95.7786 116.791 96.1113C116.49 96.444 116.126 96.6992 115.697 96.877C115.273 97.0501 114.793 97.1367 114.255 97.1367C113.754 97.1367 113.293 97.0501 112.874 96.877C112.459 96.6992 112.099 96.444 111.794 96.1113C111.493 95.7786 111.258 95.3708 111.09 94.8877C110.926 94.4046 110.844 93.8555 110.844 93.2402C110.844 92.4199 110.983 91.7227 111.261 91.1484C111.539 90.5697 111.935 90.1299 112.45 89.8291C112.97 89.5238 113.587 89.3711 114.303 89.3711C114.986 89.3711 115.583 89.5238 116.094 89.8291C116.609 90.1344 117.007 90.5765 117.29 91.1553C117.577 91.7295 117.721 92.4245 117.721 93.2402ZM112.02 93.2402C112.02 93.8418 112.099 94.3636 112.259 94.8057C112.418 95.2477 112.664 95.5895 112.997 95.8311C113.33 96.0726 113.758 96.1934 114.282 96.1934C114.802 96.1934 115.228 96.0726 115.561 95.8311C115.898 95.5895 116.146 95.2477 116.306 94.8057C116.465 94.3636 116.545 93.8418 116.545 93.2402C116.545 92.6432 116.465 92.1283 116.306 91.6953C116.146 91.2578 115.9 90.9206 115.567 90.6836C115.235 90.4466 114.804 90.3281 114.275 90.3281C113.496 90.3281 112.924 90.5856 112.56 91.1006C112.2 91.6156 112.02 92.3288 112.02 93.2402ZM125.869 89.5078V97H124.939L124.775 95.9473H124.714C124.559 96.207 124.358 96.4258 124.112 96.6035C123.866 96.7812 123.588 96.9134 123.278 97C122.973 97.0911 122.647 97.1367 122.301 97.1367C121.708 97.1367 121.212 97.041 120.811 96.8496C120.41 96.6582 120.106 96.362 119.901 95.9609C119.701 95.5599 119.601 95.0449 119.601 94.416V89.5078H120.749V94.334C120.749 94.9583 120.89 95.4255 121.173 95.7354C121.455 96.0407 121.886 96.1934 122.465 96.1934C123.021 96.1934 123.463 96.0885 123.791 95.8789C124.124 95.6693 124.363 95.3617 124.509 94.9561C124.655 94.5459 124.728 94.0446 124.728 93.4521V89.5078H125.869ZM133.115 94.9492C133.115 95.4277 132.994 95.8311 132.753 96.1592C132.516 96.4827 132.174 96.7266 131.728 96.8906C131.285 97.0547 130.757 97.1367 130.142 97.1367C129.618 97.1367 129.164 97.0957 128.781 97.0137C128.398 96.9316 128.063 96.8154 127.776 96.665V95.6191C128.082 95.7695 128.446 95.9062 128.87 96.0293C129.294 96.1523 129.727 96.2139 130.169 96.2139C130.816 96.2139 131.285 96.109 131.577 95.8994C131.869 95.6898 132.015 95.4049 132.015 95.0449C132.015 94.8398 131.955 94.6598 131.837 94.5049C131.723 94.3454 131.529 94.1927 131.256 94.0469C130.982 93.8965 130.604 93.7324 130.121 93.5547C129.643 93.3724 129.228 93.1924 128.877 93.0146C128.531 92.8324 128.262 92.6113 128.07 92.3516C127.883 92.0918 127.79 91.7546 127.79 91.3398C127.79 90.7064 128.045 90.221 128.556 89.8838C129.071 89.542 129.745 89.3711 130.579 89.3711C131.03 89.3711 131.452 89.4167 131.844 89.5078C132.24 89.5944 132.609 89.7129 132.951 89.8633L132.568 90.7725C132.258 90.6403 131.928 90.5286 131.577 90.4375C131.226 90.3464 130.868 90.3008 130.504 90.3008C129.98 90.3008 129.576 90.3874 129.294 90.5605C129.016 90.7337 128.877 90.9707 128.877 91.2715C128.877 91.5039 128.941 91.6953 129.068 91.8457C129.201 91.9961 129.41 92.1374 129.697 92.2695C129.984 92.4017 130.363 92.5566 130.832 92.7344C131.301 92.9076 131.707 93.0876 132.049 93.2744C132.391 93.4567 132.653 93.68 132.835 93.9443C133.022 94.2041 133.115 94.5391 133.115 94.9492ZM142.098 89.3711C143.032 89.3711 143.777 89.6924 144.333 90.335C144.889 90.9775 145.167 91.9437 145.167 93.2334C145.167 94.0856 145.039 94.8011 144.784 95.3799C144.529 95.9587 144.169 96.3962 143.704 96.6924C143.244 96.9886 142.699 97.1367 142.07 97.1367C141.674 97.1367 141.325 97.0843 141.024 96.9795C140.724 96.8747 140.466 96.7334 140.252 96.5557C140.038 96.3779 139.86 96.1842 139.719 95.9746H139.637C139.65 96.1523 139.666 96.3665 139.685 96.6172C139.707 96.8678 139.719 97.0866 139.719 97.2734V100.35H138.577V89.5078H139.514L139.664 90.6152H139.719C139.865 90.3874 140.042 90.18 140.252 89.9932C140.462 89.8018 140.717 89.6514 141.018 89.542C141.323 89.4281 141.683 89.3711 142.098 89.3711ZM141.899 90.3281C141.38 90.3281 140.961 90.4284 140.642 90.6289C140.327 90.8294 140.097 91.1302 139.951 91.5312C139.805 91.9277 139.728 92.4268 139.719 93.0283V93.2471C139.719 93.8805 139.787 94.416 139.924 94.8535C140.065 95.291 140.295 95.6237 140.614 95.8516C140.938 96.0794 141.371 96.1934 141.913 96.1934C142.378 96.1934 142.765 96.068 143.075 95.8174C143.385 95.5667 143.615 95.2181 143.766 94.7715C143.921 94.3203 143.998 93.8031 143.998 93.2197C143.998 92.3356 143.825 91.6338 143.479 91.1143C143.137 90.5902 142.61 90.3281 141.899 90.3281ZM150.554 89.3711C150.704 89.3711 150.861 89.3802 151.025 89.3984C151.189 89.4121 151.335 89.4326 151.463 89.46L151.319 90.5127C151.196 90.4808 151.06 90.4557 150.909 90.4375C150.759 90.4193 150.618 90.4102 150.485 90.4102C150.185 90.4102 149.9 90.4717 149.631 90.5947C149.367 90.7132 149.134 90.8864 148.934 91.1143C148.733 91.3376 148.576 91.6087 148.462 91.9277C148.348 92.2422 148.291 92.5931 148.291 92.9805V97H147.149V89.5078H148.093L148.216 90.8887H148.264C148.419 90.6107 148.605 90.3577 148.824 90.1299C149.043 89.8975 149.296 89.7129 149.583 89.5762C149.875 89.4395 150.198 89.3711 150.554 89.3711ZM155.763 89.3711C156.401 89.3711 156.948 89.5124 157.403 89.7949C157.859 90.0775 158.208 90.474 158.449 90.9844C158.691 91.4902 158.812 92.0827 158.812 92.7617V93.4658H153.637C153.65 94.3454 153.869 95.0153 154.293 95.4756C154.717 95.9359 155.314 96.166 156.084 96.166C156.558 96.166 156.977 96.1227 157.342 96.0361C157.706 95.9495 158.085 95.8219 158.477 95.6533V96.6514C158.098 96.82 157.722 96.943 157.349 97.0205C156.979 97.098 156.542 97.1367 156.036 97.1367C155.316 97.1367 154.687 96.9909 154.149 96.6992C153.616 96.403 153.201 95.9701 152.905 95.4004C152.609 94.8307 152.461 94.1335 152.461 93.3086C152.461 92.502 152.595 91.8047 152.864 91.2168C153.138 90.6243 153.521 90.1686 154.013 89.8496C154.509 89.5306 155.093 89.3711 155.763 89.3711ZM155.749 90.3008C155.143 90.3008 154.66 90.499 154.3 90.8955C153.94 91.292 153.726 91.8457 153.657 92.5566H157.622C157.618 92.11 157.547 91.7181 157.41 91.3809C157.278 91.0391 157.075 90.7747 156.802 90.5879C156.528 90.3965 156.177 90.3008 155.749 90.3008ZM164.075 90.3965H162.209V97H161.074V90.3965H159.748V89.8496L161.074 89.4736V88.9746C161.074 88.3457 161.168 87.8353 161.354 87.4434C161.541 87.0469 161.812 86.7552 162.168 86.5684C162.523 86.3815 162.956 86.2881 163.467 86.2881C163.754 86.2881 164.016 86.3132 164.253 86.3633C164.494 86.4134 164.706 86.4704 164.889 86.5342L164.595 87.4297C164.44 87.3796 164.264 87.334 164.068 87.293C163.877 87.2474 163.681 87.2246 163.48 87.2246C163.048 87.2246 162.726 87.3659 162.517 87.6484C162.312 87.9264 162.209 88.3639 162.209 88.9609V89.5078H164.075V90.3965ZM168.341 89.3711C168.979 89.3711 169.526 89.5124 169.981 89.7949C170.437 90.0775 170.786 90.474 171.027 90.9844C171.269 91.4902 171.39 92.0827 171.39 92.7617V93.4658H166.215C166.229 94.3454 166.447 95.0153 166.871 95.4756C167.295 95.9359 167.892 96.166 168.662 96.166C169.136 96.166 169.555 96.1227 169.92 96.0361C170.285 95.9495 170.663 95.8219 171.055 95.6533V96.6514C170.676 96.82 170.3 96.943 169.927 97.0205C169.558 97.098 169.12 97.1367 168.614 97.1367C167.894 97.1367 167.265 96.9909 166.728 96.6992C166.194 96.403 165.78 95.9701 165.483 95.4004C165.187 94.8307 165.039 94.1335 165.039 93.3086C165.039 92.502 165.174 91.8047 165.442 91.2168C165.716 90.6243 166.099 90.1686 166.591 89.8496C167.088 89.5306 167.671 89.3711 168.341 89.3711ZM168.327 90.3008C167.721 90.3008 167.238 90.499 166.878 90.8955C166.518 91.292 166.304 91.8457 166.235 92.5566H170.2C170.196 92.11 170.125 91.7181 169.988 91.3809C169.856 91.0391 169.653 90.7747 169.38 90.5879C169.106 90.3965 168.756 90.3008 168.327 90.3008ZM175.737 96.207C175.924 96.207 176.116 96.1911 176.312 96.1592C176.507 96.1273 176.667 96.0885 176.79 96.043V96.9248C176.658 96.984 176.473 97.0342 176.236 97.0752C176.004 97.1162 175.776 97.1367 175.553 97.1367C175.156 97.1367 174.796 97.0684 174.473 96.9316C174.149 96.7904 173.889 96.5534 173.693 96.2207C173.502 95.888 173.406 95.4277 173.406 94.8398V90.3965H172.34V89.8428L173.413 89.3984L173.864 87.7715H174.548V89.5078H176.742V90.3965H174.548V94.8057C174.548 95.2751 174.655 95.626 174.869 95.8584C175.088 96.0908 175.377 96.207 175.737 96.207ZM184.61 97.1367C183.662 97.1367 182.91 96.8132 182.354 96.166C181.803 95.5189 181.527 94.5573 181.527 93.2812C181.527 91.9915 181.81 91.0186 182.375 90.3623C182.94 89.7015 183.692 89.3711 184.631 89.3711C185.027 89.3711 185.374 89.4235 185.67 89.5283C185.966 89.6331 186.221 89.7744 186.436 89.9521C186.65 90.1253 186.83 90.3236 186.976 90.5469H187.058C187.039 90.4056 187.021 90.2119 187.003 89.9658C186.985 89.7197 186.976 89.5192 186.976 89.3643V86.3633H188.11V97H187.194L187.023 95.9336H186.976C186.834 96.1569 186.654 96.3597 186.436 96.542C186.221 96.7243 185.964 96.8701 185.663 96.9795C185.367 97.0843 185.016 97.1367 184.61 97.1367ZM184.788 96.1934C185.59 96.1934 186.158 95.9655 186.49 95.5098C186.823 95.054 186.989 94.3773 186.989 93.4795V93.2744C186.989 92.3219 186.83 91.5905 186.511 91.0801C186.196 90.5697 185.622 90.3145 184.788 90.3145C184.091 90.3145 183.569 90.5833 183.223 91.1211C182.876 91.6543 182.703 92.3835 182.703 93.3086C182.703 94.2292 182.874 94.9401 183.216 95.4414C183.562 95.9427 184.086 96.1934 184.788 96.1934ZM196.703 89.5078V97H195.773L195.609 95.9473H195.548C195.393 96.207 195.192 96.4258 194.946 96.6035C194.7 96.7812 194.422 96.9134 194.112 97C193.807 97.0911 193.481 97.1367 193.135 97.1367C192.542 97.1367 192.046 97.041 191.645 96.8496C191.243 96.6582 190.94 96.362 190.735 95.9609C190.535 95.5599 190.435 95.0449 190.435 94.416V89.5078H191.583V94.334C191.583 94.9583 191.724 95.4255 192.007 95.7354C192.289 96.0407 192.72 96.1934 193.299 96.1934C193.855 96.1934 194.297 96.0885 194.625 95.8789C194.958 95.6693 195.197 95.3617 195.343 94.9561C195.489 94.5459 195.562 94.0446 195.562 93.4521V89.5078H196.703ZM7.74414 108.371C8.63281 108.371 9.30501 108.59 9.76074 109.027C10.2165 109.46 10.4443 110.158 10.4443 111.119V116H9.32324V111.194C9.32324 110.57 9.17969 110.103 8.89258 109.793C8.61003 109.483 8.1748 109.328 7.58691 109.328C6.75749 109.328 6.17415 109.563 5.83691 110.032C5.49967 110.502 5.33105 111.183 5.33105 112.076V116H4.19629V108.508H5.1123L5.2832 109.588H5.34473C5.50423 109.324 5.70703 109.103 5.95312 108.925C6.19922 108.743 6.47493 108.606 6.78027 108.515C7.08561 108.419 7.4069 108.371 7.74414 108.371ZM11.5996 108.508H12.8164L14.4707 112.855C14.5664 113.111 14.6553 113.357 14.7373 113.594C14.8193 113.826 14.8923 114.049 14.9561 114.264C15.0199 114.478 15.07 114.685 15.1064 114.886H15.1543C15.2181 114.658 15.3092 114.359 15.4277 113.99C15.5462 113.617 15.6738 113.236 15.8105 112.849L17.376 108.508H18.5996L15.3389 117.101C15.1657 117.561 14.9629 117.962 14.7305 118.304C14.5026 118.646 14.2246 118.908 13.8965 119.09C13.5684 119.277 13.1719 119.37 12.707 119.37C12.4928 119.37 12.3037 119.356 12.1396 119.329C11.9756 119.306 11.8343 119.279 11.7158 119.247V118.338C11.8161 118.361 11.9368 118.381 12.0781 118.399C12.224 118.418 12.3743 118.427 12.5293 118.427C12.8118 118.427 13.0557 118.372 13.2607 118.263C13.4704 118.158 13.6504 118.003 13.8008 117.798C13.9512 117.593 14.0811 117.349 14.1904 117.066L14.6006 116.014L11.5996 108.508ZM26.2559 112.24C26.2559 112.855 26.1761 113.405 26.0166 113.888C25.8571 114.371 25.627 114.779 25.3262 115.111C25.0254 115.444 24.6608 115.699 24.2324 115.877C23.8086 116.05 23.3278 116.137 22.79 116.137C22.2887 116.137 21.8285 116.05 21.4092 115.877C20.9945 115.699 20.6344 115.444 20.3291 115.111C20.0283 114.779 19.7936 114.371 19.625 113.888C19.4609 113.405 19.3789 112.855 19.3789 112.24C19.3789 111.42 19.5179 110.723 19.7959 110.148C20.0739 109.57 20.4704 109.13 20.9854 108.829C21.5049 108.524 22.1224 108.371 22.8379 108.371C23.5215 108.371 24.1185 108.524 24.6289 108.829C25.1439 109.134 25.5426 109.576 25.8252 110.155C26.1123 110.729 26.2559 111.424 26.2559 112.24ZM20.5547 112.24C20.5547 112.842 20.6344 113.364 20.7939 113.806C20.9535 114.248 21.1995 114.59 21.5322 114.831C21.8649 115.073 22.2933 115.193 22.8174 115.193C23.3369 115.193 23.763 115.073 24.0957 114.831C24.4329 114.59 24.6813 114.248 24.8408 113.806C25.0003 113.364 25.0801 112.842 25.0801 112.24C25.0801 111.643 25.0003 111.128 24.8408 110.695C24.6813 110.258 24.4352 109.921 24.1025 109.684C23.7699 109.447 23.3392 109.328 22.8105 109.328C22.0312 109.328 21.4593 109.586 21.0947 110.101C20.7347 110.616 20.5547 111.329 20.5547 112.24ZM31.7656 108.371C32.6543 108.371 33.3265 108.59 33.7822 109.027C34.238 109.46 34.4658 110.158 34.4658 111.119V116H33.3447V111.194C33.3447 110.57 33.2012 110.103 32.9141 109.793C32.6315 109.483 32.1963 109.328 31.6084 109.328C30.779 109.328 30.1956 109.563 29.8584 110.032C29.5212 110.502 29.3525 111.183 29.3525 112.076V116H28.2178V108.508H29.1338L29.3047 109.588H29.3662C29.5257 109.324 29.7285 109.103 29.9746 108.925C30.2207 108.743 30.4964 108.606 30.8018 108.515C31.1071 108.419 31.4284 108.371 31.7656 108.371ZM36.168 112.746V111.734H39.5586V112.746H36.168ZM44.2002 108.371C44.8382 108.371 45.3851 108.512 45.8408 108.795C46.2965 109.077 46.6452 109.474 46.8867 109.984C47.1283 110.49 47.249 111.083 47.249 111.762V112.466H42.0742C42.0879 113.345 42.3066 114.015 42.7305 114.476C43.1543 114.936 43.7513 115.166 44.5215 115.166C44.9954 115.166 45.4147 115.123 45.7793 115.036C46.1439 114.95 46.5221 114.822 46.9141 114.653V115.651C46.5358 115.82 46.1598 115.943 45.7861 116.021C45.417 116.098 44.9795 116.137 44.4736 116.137C43.7536 116.137 43.1247 115.991 42.5869 115.699C42.0537 115.403 41.639 114.97 41.3428 114.4C41.0465 113.831 40.8984 113.133 40.8984 112.309C40.8984 111.502 41.0329 110.805 41.3018 110.217C41.5752 109.624 41.958 109.169 42.4502 108.85C42.9469 108.531 43.5303 108.371 44.2002 108.371ZM44.1865 109.301C43.5804 109.301 43.0973 109.499 42.7373 109.896C42.3773 110.292 42.1631 110.846 42.0947 111.557H46.0596C46.055 111.11 45.9844 110.718 45.8477 110.381C45.7155 110.039 45.5127 109.775 45.2393 109.588C44.9658 109.396 44.6149 109.301 44.1865 109.301ZM50.3047 105.363V110.887C50.3047 111.069 50.2979 111.292 50.2842 111.557C50.2705 111.816 50.2591 112.047 50.25 112.247H50.2979C50.3936 112.129 50.5326 111.953 50.7148 111.721C50.9017 111.488 51.0589 111.301 51.1865 111.16L53.6748 108.508H55.0078L51.9932 111.707L55.2266 116H53.8594L51.2139 112.452L50.3047 113.286V116H49.1768V105.363H50.3047ZM59.417 108.371C60.055 108.371 60.6019 108.512 61.0576 108.795C61.5133 109.077 61.862 109.474 62.1035 109.984C62.3451 110.49 62.4658 111.083 62.4658 111.762V112.466H57.291C57.3047 113.345 57.5234 114.015 57.9473 114.476C58.3711 114.936 58.9681 115.166 59.7383 115.166C60.2122 115.166 60.6315 115.123 60.9961 115.036C61.3607 114.95 61.7389 114.822 62.1309 114.653V115.651C61.7526 115.82 61.3766 115.943 61.0029 116.021C60.6338 116.098 60.1963 116.137 59.6904 116.137C58.9704 116.137 58.3415 115.991 57.8037 115.699C57.2705 115.403 56.8558 114.97 56.5596 114.4C56.2633 113.831 56.1152 113.133 56.1152 112.309C56.1152 111.502 56.2497 110.805 56.5186 110.217C56.792 109.624 57.1748 109.169 57.667 108.85C58.1637 108.531 58.7471 108.371 59.417 108.371ZM59.4033 109.301C58.7972 109.301 58.3141 109.499 57.9541 109.896C57.5941 110.292 57.3799 110.846 57.3115 111.557H61.2764C61.2718 111.11 61.2012 110.718 61.0645 110.381C60.9323 110.039 60.7295 109.775 60.4561 109.588C60.1826 109.396 59.8317 109.301 59.4033 109.301ZM65.5352 116H64.3936V105.363H65.5352V116ZM70.8193 108.371C71.4574 108.371 72.0042 108.512 72.46 108.795C72.9157 109.077 73.2643 109.474 73.5059 109.984C73.7474 110.49 73.8682 111.083 73.8682 111.762V112.466H68.6934C68.707 113.345 68.9258 114.015 69.3496 114.476C69.7734 114.936 70.3704 115.166 71.1406 115.166C71.6146 115.166 72.0339 115.123 72.3984 115.036C72.763 114.95 73.1413 114.822 73.5332 114.653V115.651C73.1549 115.82 72.779 115.943 72.4053 116.021C72.0361 116.098 71.5986 116.137 71.0928 116.137C70.3727 116.137 69.7438 115.991 69.2061 115.699C68.6729 115.403 68.2581 114.97 67.9619 114.4C67.6657 113.831 67.5176 113.133 67.5176 112.309C67.5176 111.502 67.652 110.805 67.9209 110.217C68.1943 109.624 68.5771 109.169 69.0693 108.85C69.5661 108.531 70.1494 108.371 70.8193 108.371ZM70.8057 109.301C70.1995 109.301 69.7165 109.499 69.3564 109.896C68.9964 110.292 68.7822 110.846 68.7139 111.557H72.6787C72.6742 111.11 72.6035 110.718 72.4668 110.381C72.3346 110.039 72.1318 109.775 71.8584 109.588C71.585 109.396 71.234 109.301 70.8057 109.301ZM82.3174 108.371C82.9554 108.371 83.5023 108.512 83.958 108.795C84.4137 109.077 84.7624 109.474 85.0039 109.984C85.2454 110.49 85.3662 111.083 85.3662 111.762V112.466H80.1914C80.2051 113.345 80.4238 114.015 80.8477 114.476C81.2715 114.936 81.8685 115.166 82.6387 115.166C83.1126 115.166 83.5319 115.123 83.8965 115.036C84.2611 114.95 84.6393 114.822 85.0312 114.653V115.651C84.653 115.82 84.277 115.943 83.9033 116.021C83.5342 116.098 83.0967 116.137 82.5908 116.137C81.8708 116.137 81.2419 115.991 80.7041 115.699C80.1709 115.403 79.7562 114.97 79.46 114.4C79.1637 113.831 79.0156 113.133 79.0156 112.309C79.0156 111.502 79.1501 110.805 79.4189 110.217C79.6924 109.624 80.0752 109.169 80.5674 108.85C81.0641 108.531 81.6475 108.371 82.3174 108.371ZM82.3037 109.301C81.6976 109.301 81.2145 109.499 80.8545 109.896C80.4945 110.292 80.2803 110.846 80.2119 111.557H84.1768C84.1722 111.11 84.1016 110.718 83.9648 110.381C83.8327 110.039 83.6299 109.775 83.3564 109.588C83.083 109.396 82.7321 109.301 82.3037 109.301ZM92.1406 113.949C92.1406 114.428 92.0199 114.831 91.7783 115.159C91.5413 115.483 91.1995 115.727 90.7529 115.891C90.3109 116.055 89.7822 116.137 89.167 116.137C88.6429 116.137 88.1895 116.096 87.8066 116.014C87.4238 115.932 87.0889 115.815 86.8018 115.665V114.619C87.1071 114.77 87.4717 114.906 87.8955 115.029C88.3193 115.152 88.7523 115.214 89.1943 115.214C89.8415 115.214 90.3109 115.109 90.6025 114.899C90.8942 114.69 91.04 114.405 91.04 114.045C91.04 113.84 90.9808 113.66 90.8623 113.505C90.7484 113.345 90.5547 113.193 90.2812 113.047C90.0078 112.896 89.6296 112.732 89.1465 112.555C88.668 112.372 88.2533 112.192 87.9023 112.015C87.556 111.832 87.2871 111.611 87.0957 111.352C86.9089 111.092 86.8154 110.755 86.8154 110.34C86.8154 109.706 87.0706 109.221 87.5811 108.884C88.096 108.542 88.7705 108.371 89.6045 108.371C90.0557 108.371 90.4772 108.417 90.8691 108.508C91.2656 108.594 91.6348 108.713 91.9766 108.863L91.5938 109.772C91.2839 109.64 90.9535 109.529 90.6025 109.438C90.2516 109.346 89.8939 109.301 89.5293 109.301C89.0052 109.301 88.6019 109.387 88.3193 109.561C88.0413 109.734 87.9023 109.971 87.9023 110.271C87.9023 110.504 87.9661 110.695 88.0938 110.846C88.2259 110.996 88.4355 111.137 88.7227 111.27C89.0098 111.402 89.388 111.557 89.8574 111.734C90.3268 111.908 90.7324 112.088 91.0742 112.274C91.416 112.457 91.6781 112.68 91.8604 112.944C92.0472 113.204 92.1406 113.539 92.1406 113.949ZM96.3857 115.207C96.5726 115.207 96.764 115.191 96.96 115.159C97.1559 115.127 97.3154 115.089 97.4385 115.043V115.925C97.3063 115.984 97.1217 116.034 96.8848 116.075C96.6523 116.116 96.4245 116.137 96.2012 116.137C95.8047 116.137 95.4447 116.068 95.1211 115.932C94.7975 115.79 94.5378 115.553 94.3418 115.221C94.1504 114.888 94.0547 114.428 94.0547 113.84V109.396H92.9883V108.843L94.0615 108.398L94.5127 106.771H95.1963V108.508H97.3906V109.396H95.1963V113.806C95.1963 114.275 95.3034 114.626 95.5176 114.858C95.7363 115.091 96.0257 115.207 96.3857 115.207ZM106.113 108.371C107.048 108.371 107.793 108.692 108.349 109.335C108.905 109.978 109.183 110.944 109.183 112.233C109.183 113.086 109.055 113.801 108.8 114.38C108.545 114.959 108.185 115.396 107.72 115.692C107.259 115.989 106.715 116.137 106.086 116.137C105.689 116.137 105.341 116.084 105.04 115.979C104.739 115.875 104.482 115.733 104.268 115.556C104.053 115.378 103.876 115.184 103.734 114.975H103.652C103.666 115.152 103.682 115.367 103.7 115.617C103.723 115.868 103.734 116.087 103.734 116.273V119.35H102.593V108.508H103.529L103.68 109.615H103.734C103.88 109.387 104.058 109.18 104.268 108.993C104.477 108.802 104.732 108.651 105.033 108.542C105.339 108.428 105.699 108.371 106.113 108.371ZM105.915 109.328C105.396 109.328 104.976 109.428 104.657 109.629C104.343 109.829 104.113 110.13 103.967 110.531C103.821 110.928 103.743 111.427 103.734 112.028V112.247C103.734 112.881 103.803 113.416 103.939 113.854C104.081 114.291 104.311 114.624 104.63 114.852C104.953 115.079 105.386 115.193 105.929 115.193C106.394 115.193 106.781 115.068 107.091 114.817C107.401 114.567 107.631 114.218 107.781 113.771C107.936 113.32 108.014 112.803 108.014 112.22C108.014 111.336 107.84 110.634 107.494 110.114C107.152 109.59 106.626 109.328 105.915 109.328ZM113.968 108.385C114.861 108.385 115.524 108.585 115.957 108.986C116.39 109.387 116.606 110.028 116.606 110.907V116H115.779L115.561 114.893H115.506C115.296 115.166 115.077 115.396 114.85 115.583C114.622 115.765 114.357 115.904 114.057 116C113.76 116.091 113.396 116.137 112.963 116.137C112.507 116.137 112.102 116.057 111.746 115.897C111.395 115.738 111.117 115.496 110.912 115.173C110.712 114.849 110.611 114.439 110.611 113.942C110.611 113.195 110.908 112.621 111.5 112.22C112.092 111.819 112.995 111.6 114.207 111.563L115.499 111.509V111.051C115.499 110.404 115.36 109.95 115.082 109.69C114.804 109.431 114.412 109.301 113.906 109.301C113.514 109.301 113.141 109.358 112.785 109.472C112.43 109.586 112.092 109.72 111.773 109.875L111.425 109.014C111.762 108.84 112.149 108.692 112.587 108.569C113.024 108.446 113.485 108.385 113.968 108.385ZM115.485 112.309L114.344 112.356C113.41 112.393 112.751 112.546 112.368 112.814C111.985 113.083 111.794 113.464 111.794 113.956C111.794 114.384 111.924 114.701 112.184 114.906C112.443 115.111 112.787 115.214 113.216 115.214C113.881 115.214 114.426 115.029 114.85 114.66C115.273 114.291 115.485 113.737 115.485 112.999V112.309ZM122.349 108.371C122.499 108.371 122.656 108.38 122.82 108.398C122.984 108.412 123.13 108.433 123.258 108.46L123.114 109.513C122.991 109.481 122.854 109.456 122.704 109.438C122.554 109.419 122.412 109.41 122.28 109.41C121.979 109.41 121.695 109.472 121.426 109.595C121.161 109.713 120.929 109.886 120.729 110.114C120.528 110.338 120.371 110.609 120.257 110.928C120.143 111.242 120.086 111.593 120.086 111.98V116H118.944V108.508H119.888L120.011 109.889H120.059C120.214 109.611 120.4 109.358 120.619 109.13C120.838 108.897 121.091 108.713 121.378 108.576C121.67 108.439 121.993 108.371 122.349 108.371ZM127.093 115.207C127.28 115.207 127.471 115.191 127.667 115.159C127.863 115.127 128.022 115.089 128.146 115.043V115.925C128.013 115.984 127.829 116.034 127.592 116.075C127.359 116.116 127.132 116.137 126.908 116.137C126.512 116.137 126.152 116.068 125.828 115.932C125.505 115.79 125.245 115.553 125.049 115.221C124.857 114.888 124.762 114.428 124.762 113.84V109.396H123.695V108.843L124.769 108.398L125.22 106.771H125.903V108.508H128.098V109.396H125.903V113.806C125.903 114.275 126.01 114.626 126.225 114.858C126.443 115.091 126.733 115.207 127.093 115.207ZM130.798 108.508V116H129.663V108.508H130.798ZM130.244 105.705C130.431 105.705 130.59 105.767 130.723 105.89C130.859 106.008 130.928 106.195 130.928 106.45C130.928 106.701 130.859 106.888 130.723 107.011C130.59 107.134 130.431 107.195 130.244 107.195C130.048 107.195 129.884 107.134 129.752 107.011C129.624 106.888 129.561 106.701 129.561 106.45C129.561 106.195 129.624 106.008 129.752 105.89C129.884 105.767 130.048 105.705 130.244 105.705ZM136.089 108.371C136.727 108.371 137.274 108.512 137.729 108.795C138.185 109.077 138.534 109.474 138.775 109.984C139.017 110.49 139.138 111.083 139.138 111.762V112.466H133.963C133.977 113.345 134.195 114.015 134.619 114.476C135.043 114.936 135.64 115.166 136.41 115.166C136.884 115.166 137.303 115.123 137.668 115.036C138.033 114.95 138.411 114.822 138.803 114.653V115.651C138.424 115.82 138.049 115.943 137.675 116.021C137.306 116.098 136.868 116.137 136.362 116.137C135.642 116.137 135.013 115.991 134.476 115.699C133.942 115.403 133.528 114.97 133.231 114.4C132.935 113.831 132.787 113.133 132.787 112.309C132.787 111.502 132.922 110.805 133.19 110.217C133.464 109.624 133.847 109.169 134.339 108.85C134.836 108.531 135.419 108.371 136.089 108.371ZM136.075 109.301C135.469 109.301 134.986 109.499 134.626 109.896C134.266 110.292 134.052 110.846 133.983 111.557H137.948C137.944 111.11 137.873 110.718 137.736 110.381C137.604 110.039 137.401 109.775 137.128 109.588C136.854 109.396 136.504 109.301 136.075 109.301ZM147.587 108.371C148.225 108.371 148.772 108.512 149.228 108.795C149.683 109.077 150.032 109.474 150.273 109.984C150.515 110.49 150.636 111.083 150.636 111.762V112.466H145.461C145.475 113.345 145.693 114.015 146.117 114.476C146.541 114.936 147.138 115.166 147.908 115.166C148.382 115.166 148.801 115.123 149.166 115.036C149.531 114.95 149.909 114.822 150.301 114.653V115.651C149.923 115.82 149.547 115.943 149.173 116.021C148.804 116.098 148.366 116.137 147.86 116.137C147.14 116.137 146.511 115.991 145.974 115.699C145.44 115.403 145.026 114.97 144.729 114.4C144.433 113.831 144.285 113.133 144.285 112.309C144.285 111.502 144.42 110.805 144.688 110.217C144.962 109.624 145.345 109.169 145.837 108.85C146.334 108.531 146.917 108.371 147.587 108.371ZM147.573 109.301C146.967 109.301 146.484 109.499 146.124 109.896C145.764 110.292 145.55 110.846 145.481 111.557H149.446C149.442 111.11 149.371 110.718 149.234 110.381C149.102 110.039 148.899 109.775 148.626 109.588C148.353 109.396 148.002 109.301 147.573 109.301ZM156.111 108.371C157 108.371 157.672 108.59 158.128 109.027C158.584 109.46 158.812 110.158 158.812 111.119V116H157.69V111.194C157.69 110.57 157.547 110.103 157.26 109.793C156.977 109.483 156.542 109.328 155.954 109.328C155.125 109.328 154.541 109.563 154.204 110.032C153.867 110.502 153.698 111.183 153.698 112.076V116H152.563V108.508H153.479L153.65 109.588H153.712C153.871 109.324 154.074 109.103 154.32 108.925C154.566 108.743 154.842 108.606 155.147 108.515C155.453 108.419 155.774 108.371 156.111 108.371ZM166.434 116L163.59 108.508H164.807L166.454 113.04C166.568 113.35 166.684 113.692 166.803 114.065C166.921 114.439 167.003 114.74 167.049 114.968H167.097C167.151 114.74 167.243 114.439 167.37 114.065C167.498 113.687 167.614 113.345 167.719 113.04L169.366 108.508H170.583L167.732 116H166.434ZM172.921 108.508V116H171.786V108.508H172.921ZM172.367 105.705C172.554 105.705 172.714 105.767 172.846 105.89C172.982 106.008 173.051 106.195 173.051 106.45C173.051 106.701 172.982 106.888 172.846 107.011C172.714 107.134 172.554 107.195 172.367 107.195C172.171 107.195 172.007 107.134 171.875 107.011C171.747 106.888 171.684 106.701 171.684 106.45C171.684 106.195 171.747 106.008 171.875 105.89C172.007 105.767 172.171 105.705 172.367 105.705ZM180.174 113.949C180.174 114.428 180.053 114.831 179.812 115.159C179.575 115.483 179.233 115.727 178.786 115.891C178.344 116.055 177.815 116.137 177.2 116.137C176.676 116.137 176.223 116.096 175.84 116.014C175.457 115.932 175.122 115.815 174.835 115.665V114.619C175.14 114.77 175.505 114.906 175.929 115.029C176.353 115.152 176.785 115.214 177.228 115.214C177.875 115.214 178.344 115.109 178.636 114.899C178.927 114.69 179.073 114.405 179.073 114.045C179.073 113.84 179.014 113.66 178.896 113.505C178.782 113.345 178.588 113.193 178.314 113.047C178.041 112.896 177.663 112.732 177.18 112.555C176.701 112.372 176.286 112.192 175.936 112.015C175.589 111.832 175.32 111.611 175.129 111.352C174.942 111.092 174.849 110.755 174.849 110.34C174.849 109.706 175.104 109.221 175.614 108.884C176.129 108.542 176.804 108.371 177.638 108.371C178.089 108.371 178.51 108.417 178.902 108.508C179.299 108.594 179.668 108.713 180.01 108.863L179.627 109.772C179.317 109.64 178.987 109.529 178.636 109.438C178.285 109.346 177.927 109.301 177.562 109.301C177.038 109.301 176.635 109.387 176.353 109.561C176.075 109.734 175.936 109.971 175.936 110.271C175.936 110.504 175.999 110.695 176.127 110.846C176.259 110.996 176.469 111.137 176.756 111.27C177.043 111.402 177.421 111.557 177.891 111.734C178.36 111.908 178.766 112.088 179.107 112.274C179.449 112.457 179.711 112.68 179.894 112.944C180.08 113.204 180.174 113.539 180.174 113.949ZM183.134 108.508V116H181.999V108.508H183.134ZM182.58 105.705C182.767 105.705 182.926 105.767 183.059 105.89C183.195 106.008 183.264 106.195 183.264 106.45C183.264 106.701 183.195 106.888 183.059 107.011C182.926 107.134 182.767 107.195 182.58 107.195C182.384 107.195 182.22 107.134 182.088 107.011C181.96 106.888 181.896 106.701 181.896 106.45C181.896 106.195 181.96 106.008 182.088 105.89C182.22 105.767 182.384 105.705 182.58 105.705ZM187.96 115.207C188.147 115.207 188.338 115.191 188.534 115.159C188.73 115.127 188.89 115.089 189.013 115.043V115.925C188.881 115.984 188.696 116.034 188.459 116.075C188.227 116.116 187.999 116.137 187.775 116.137C187.379 116.137 187.019 116.068 186.695 115.932C186.372 115.79 186.112 115.553 185.916 115.221C185.725 114.888 185.629 114.428 185.629 113.84V109.396H184.562V108.843L185.636 108.398L186.087 106.771H186.771V108.508H188.965V109.396H186.771V113.806C186.771 114.275 186.878 114.626 187.092 114.858C187.311 115.091 187.6 115.207 187.96 115.207ZM193.415 108.371C194.053 108.371 194.6 108.512 195.056 108.795C195.511 109.077 195.86 109.474 196.102 109.984C196.343 110.49 196.464 111.083 196.464 111.762V112.466H191.289C191.303 113.345 191.521 114.015 191.945 114.476C192.369 114.936 192.966 115.166 193.736 115.166C194.21 115.166 194.63 115.123 194.994 115.036C195.359 114.95 195.737 114.822 196.129 114.653V115.651C195.751 115.82 195.375 115.943 195.001 116.021C194.632 116.098 194.194 116.137 193.688 116.137C192.968 116.137 192.34 115.991 191.802 115.699C191.269 115.403 190.854 114.97 190.558 114.4C190.261 113.831 190.113 113.133 190.113 112.309C190.113 111.502 190.248 110.805 190.517 110.217C190.79 109.624 191.173 109.169 191.665 108.85C192.162 108.531 192.745 108.371 193.415 108.371ZM193.401 109.301C192.795 109.301 192.312 109.499 191.952 109.896C191.592 110.292 191.378 110.846 191.31 111.557H195.274C195.27 111.11 195.199 110.718 195.062 110.381C194.93 110.039 194.728 109.775 194.454 109.588C194.181 109.396 193.83 109.301 193.401 109.301ZM6.8623 135.137C5.91439 135.137 5.16243 134.813 4.60645 134.166C4.05501 133.519 3.7793 132.557 3.7793 131.281C3.7793 129.992 4.06185 129.019 4.62695 128.362C5.19206 127.701 5.94401 127.371 6.88281 127.371C7.2793 127.371 7.62565 127.424 7.92188 127.528C8.2181 127.633 8.47331 127.774 8.6875 127.952C8.90169 128.125 9.08171 128.324 9.22754 128.547H9.30957C9.29134 128.406 9.27311 128.212 9.25488 127.966C9.23665 127.72 9.22754 127.519 9.22754 127.364V124.363H10.3623V135H9.44629L9.27539 133.934H9.22754C9.08626 134.157 8.90625 134.36 8.6875 134.542C8.47331 134.724 8.21582 134.87 7.91504 134.979C7.61882 135.084 7.2679 135.137 6.8623 135.137ZM7.04004 134.193C7.84212 134.193 8.40951 133.965 8.74219 133.51C9.07487 133.054 9.24121 132.377 9.24121 131.479V131.274C9.24121 130.322 9.08171 129.59 8.7627 129.08C8.44824 128.57 7.87402 128.314 7.04004 128.314C6.34277 128.314 5.82096 128.583 5.47461 129.121C5.12826 129.654 4.95508 130.383 4.95508 131.309C4.95508 132.229 5.12598 132.94 5.46777 133.441C5.81413 133.943 6.33822 134.193 7.04004 134.193ZM15.5713 127.385C16.4645 127.385 17.1276 127.585 17.5605 127.986C17.9935 128.387 18.21 129.028 18.21 129.907V135H17.3828L17.1641 133.893H17.1094C16.8997 134.166 16.681 134.396 16.4531 134.583C16.2253 134.765 15.9609 134.904 15.6602 135C15.3639 135.091 14.9993 135.137 14.5664 135.137C14.1107 135.137 13.7051 135.057 13.3496 134.897C12.9987 134.738 12.7207 134.496 12.5156 134.173C12.3151 133.849 12.2148 133.439 12.2148 132.942C12.2148 132.195 12.5111 131.621 13.1035 131.22C13.696 130.819 14.5983 130.6 15.8105 130.563L17.1025 130.509V130.051C17.1025 129.404 16.9635 128.95 16.6855 128.69C16.4076 128.431 16.0156 128.301 15.5098 128.301C15.1178 128.301 14.7441 128.358 14.3887 128.472C14.0332 128.586 13.696 128.72 13.377 128.875L13.0283 128.014C13.3656 127.84 13.7529 127.692 14.1904 127.569C14.6279 127.446 15.0882 127.385 15.5713 127.385ZM17.0889 131.309L15.9473 131.356C15.013 131.393 14.3545 131.546 13.9717 131.814C13.5889 132.083 13.3975 132.464 13.3975 132.956C13.3975 133.384 13.5273 133.701 13.7871 133.906C14.0469 134.111 14.391 134.214 14.8193 134.214C15.4847 134.214 16.0293 134.029 16.4531 133.66C16.877 133.291 17.0889 132.737 17.0889 131.999V131.309ZM24.0957 127.371C24.9844 127.371 25.6566 127.59 26.1123 128.027C26.568 128.46 26.7959 129.158 26.7959 130.119V135H25.6748V130.194C25.6748 129.57 25.5312 129.103 25.2441 128.793C24.9616 128.483 24.5264 128.328 23.9385 128.328C23.109 128.328 22.5257 128.563 22.1885 129.032C21.8512 129.502 21.6826 130.183 21.6826 131.076V135H20.5479V127.508H21.4639L21.6348 128.588H21.6963C21.8558 128.324 22.0586 128.103 22.3047 127.925C22.5508 127.743 22.8265 127.606 23.1318 127.515C23.4372 127.419 23.7585 127.371 24.0957 127.371ZM33.9805 132.949C33.9805 133.428 33.8597 133.831 33.6182 134.159C33.3812 134.483 33.0394 134.727 32.5928 134.891C32.1507 135.055 31.6221 135.137 31.0068 135.137C30.4827 135.137 30.0293 135.096 29.6465 135.014C29.2637 134.932 28.9287 134.815 28.6416 134.665V133.619C28.9469 133.77 29.3115 133.906 29.7354 134.029C30.1592 134.152 30.5921 134.214 31.0342 134.214C31.6813 134.214 32.1507 134.109 32.4424 133.899C32.734 133.69 32.8799 133.405 32.8799 133.045C32.8799 132.84 32.8206 132.66 32.7021 132.505C32.5882 132.345 32.3945 132.193 32.1211 132.047C31.8477 131.896 31.4694 131.732 30.9863 131.555C30.5078 131.372 30.0931 131.192 29.7422 131.015C29.3958 130.832 29.127 130.611 28.9355 130.352C28.7487 130.092 28.6553 129.755 28.6553 129.34C28.6553 128.706 28.9105 128.221 29.4209 127.884C29.9359 127.542 30.6104 127.371 31.4443 127.371C31.8955 127.371 32.3171 127.417 32.709 127.508C33.1055 127.594 33.4746 127.713 33.8164 127.863L33.4336 128.772C33.1237 128.64 32.7933 128.529 32.4424 128.438C32.0915 128.346 31.7337 128.301 31.3691 128.301C30.8451 128.301 30.4417 128.387 30.1592 128.561C29.8812 128.734 29.7422 128.971 29.7422 129.271C29.7422 129.504 29.806 129.695 29.9336 129.846C30.0658 129.996 30.2754 130.137 30.5625 130.27C30.8496 130.402 31.2279 130.557 31.6973 130.734C32.1667 130.908 32.5723 131.088 32.9141 131.274C33.2559 131.457 33.5179 131.68 33.7002 131.944C33.887 132.204 33.9805 132.539 33.9805 132.949ZM44.2891 132.949C44.2891 133.428 44.1683 133.831 43.9268 134.159C43.6898 134.483 43.348 134.727 42.9014 134.891C42.4593 135.055 41.9307 135.137 41.3154 135.137C40.7913 135.137 40.3379 135.096 39.9551 135.014C39.5723 134.932 39.2373 134.815 38.9502 134.665V133.619C39.2555 133.77 39.6201 133.906 40.0439 134.029C40.4678 134.152 40.9007 134.214 41.3428 134.214C41.9899 134.214 42.4593 134.109 42.751 133.899C43.0426 133.69 43.1885 133.405 43.1885 133.045C43.1885 132.84 43.1292 132.66 43.0107 132.505C42.8968 132.345 42.7031 132.193 42.4297 132.047C42.1562 131.896 41.778 131.732 41.2949 131.555C40.8164 131.372 40.4017 131.192 40.0508 131.015C39.7044 130.832 39.4355 130.611 39.2441 130.352C39.0573 130.092 38.9639 129.755 38.9639 129.34C38.9639 128.706 39.2191 128.221 39.7295 127.884C40.2445 127.542 40.9189 127.371 41.7529 127.371C42.2041 127.371 42.6257 127.417 43.0176 127.508C43.4141 127.594 43.7832 127.713 44.125 127.863L43.7422 128.772C43.4323 128.64 43.1019 128.529 42.751 128.438C42.4001 128.346 42.0423 128.301 41.6777 128.301C41.1536 128.301 40.7503 128.387 40.4678 128.561C40.1898 128.734 40.0508 128.971 40.0508 129.271C40.0508 129.504 40.1146 129.695 40.2422 129.846C40.3743 129.996 40.584 130.137 40.8711 130.27C41.1582 130.402 41.5365 130.557 42.0059 130.734C42.4753 130.908 42.8809 131.088 43.2227 131.274C43.5645 131.457 43.8265 131.68 44.0088 131.944C44.1956 132.204 44.2891 132.539 44.2891 132.949ZM52.5742 131.24C52.5742 131.855 52.4945 132.405 52.335 132.888C52.1755 133.371 51.9453 133.779 51.6445 134.111C51.3438 134.444 50.9792 134.699 50.5508 134.877C50.127 135.05 49.6462 135.137 49.1084 135.137C48.6071 135.137 48.1468 135.05 47.7275 134.877C47.3128 134.699 46.9528 134.444 46.6475 134.111C46.3467 133.779 46.112 133.371 45.9434 132.888C45.7793 132.405 45.6973 131.855 45.6973 131.24C45.6973 130.42 45.8363 129.723 46.1143 129.148C46.3923 128.57 46.7887 128.13 47.3037 127.829C47.8232 127.524 48.4408 127.371 49.1562 127.371C49.8398 127.371 50.4368 127.524 50.9473 127.829C51.4622 128.134 51.861 128.576 52.1436 129.155C52.4307 129.729 52.5742 130.424 52.5742 131.24ZM46.873 131.24C46.873 131.842 46.9528 132.364 47.1123 132.806C47.2718 133.248 47.5179 133.59 47.8506 133.831C48.1833 134.073 48.6117 134.193 49.1357 134.193C49.6553 134.193 50.0814 134.073 50.4141 133.831C50.7513 133.59 50.9997 133.248 51.1592 132.806C51.3187 132.364 51.3984 131.842 51.3984 131.24C51.3984 130.643 51.3187 130.128 51.1592 129.695C50.9997 129.258 50.7536 128.921 50.4209 128.684C50.0882 128.447 49.6576 128.328 49.1289 128.328C48.3496 128.328 47.7777 128.586 47.4131 129.101C47.0531 129.616 46.873 130.329 46.873 131.24ZM58.084 127.371C58.9727 127.371 59.6449 127.59 60.1006 128.027C60.5563 128.46 60.7842 129.158 60.7842 130.119V135H59.6631V130.194C59.6631 129.57 59.5195 129.103 59.2324 128.793C58.9499 128.483 58.5146 128.328 57.9268 128.328C57.0973 128.328 56.514 128.563 56.1768 129.032C55.8395 129.502 55.6709 130.183 55.6709 131.076V135H54.5361V127.508H55.4521L55.623 128.588H55.6846C55.8441 128.324 56.0469 128.103 56.293 127.925C56.5391 127.743 56.8148 127.606 57.1201 127.515C57.4255 127.419 57.7467 127.371 58.084 127.371ZM68.4062 135L65.5625 127.508H66.7793L68.4268 132.04C68.5407 132.35 68.6569 132.692 68.7754 133.065C68.8939 133.439 68.9759 133.74 69.0215 133.968H69.0693C69.124 133.74 69.2152 133.439 69.3428 133.065C69.4704 132.687 69.5866 132.345 69.6914 132.04L71.3389 127.508H72.5557L69.7051 135H68.4062ZM74.8936 127.508V135H73.7588V127.508H74.8936ZM74.3398 124.705C74.5267 124.705 74.6862 124.767 74.8184 124.89C74.9551 125.008 75.0234 125.195 75.0234 125.45C75.0234 125.701 74.9551 125.888 74.8184 126.011C74.6862 126.134 74.5267 126.195 74.3398 126.195C74.1439 126.195 73.9798 126.134 73.8477 126.011C73.7201 125.888 73.6562 125.701 73.6562 125.45C73.6562 125.195 73.7201 125.008 73.8477 124.89C73.9798 124.767 74.1439 124.705 74.3398 124.705ZM78.4414 135H77.2998V124.363H78.4414V135ZM81.9824 135H80.8408V124.363H81.9824V135ZM87.1846 127.385C88.0778 127.385 88.7409 127.585 89.1738 127.986C89.6068 128.387 89.8232 129.028 89.8232 129.907V135H88.9961L88.7773 133.893H88.7227C88.513 134.166 88.2943 134.396 88.0664 134.583C87.8385 134.765 87.5742 134.904 87.2734 135C86.9772 135.091 86.6126 135.137 86.1797 135.137C85.724 135.137 85.3184 135.057 84.9629 134.897C84.612 134.738 84.334 134.496 84.1289 134.173C83.9284 133.849 83.8281 133.439 83.8281 132.942C83.8281 132.195 84.1243 131.621 84.7168 131.22C85.3092 130.819 86.2116 130.6 87.4238 130.563L88.7158 130.509V130.051C88.7158 129.404 88.5768 128.95 88.2988 128.69C88.0208 128.431 87.6289 128.301 87.123 128.301C86.7311 128.301 86.3574 128.358 86.002 128.472C85.6465 128.586 85.3092 128.72 84.9902 128.875L84.6416 128.014C84.9788 127.84 85.3662 127.692 85.8037 127.569C86.2412 127.446 86.7015 127.385 87.1846 127.385ZM88.7021 131.309L87.5605 131.356C86.6263 131.393 85.9678 131.546 85.585 131.814C85.2021 132.083 85.0107 132.464 85.0107 132.956C85.0107 133.384 85.1406 133.701 85.4004 133.906C85.6602 134.111 86.0042 134.214 86.4326 134.214C87.098 134.214 87.6426 134.029 88.0664 133.66C88.4902 133.291 88.7021 132.737 88.7021 131.999V131.309ZM94.2529 138.363C93.2686 138.363 92.5098 138.179 91.9766 137.81C91.4434 137.445 91.1768 136.932 91.1768 136.271C91.1768 135.802 91.3249 135.401 91.6211 135.068C91.9219 134.736 92.3366 134.515 92.8652 134.405C92.6693 134.314 92.5007 134.177 92.3594 133.995C92.2227 133.813 92.1543 133.603 92.1543 133.366C92.1543 133.093 92.2295 132.854 92.3799 132.648C92.5348 132.439 92.7695 132.238 93.084 132.047C92.6921 131.887 92.373 131.618 92.127 131.24C91.8854 130.857 91.7646 130.413 91.7646 129.907C91.7646 129.369 91.8763 128.911 92.0996 128.533C92.3229 128.15 92.6465 127.859 93.0703 127.658C93.4941 127.458 94.0068 127.357 94.6084 127.357C94.7406 127.357 94.8727 127.364 95.0049 127.378C95.1416 127.387 95.2715 127.403 95.3945 127.426C95.5176 127.444 95.6247 127.467 95.7158 127.494H98.2861V128.226L96.9053 128.396C97.042 128.574 97.1559 128.788 97.2471 129.039C97.3382 129.29 97.3838 129.568 97.3838 129.873C97.3838 130.62 97.1309 131.215 96.625 131.657C96.1191 132.095 95.4242 132.313 94.54 132.313C94.3304 132.313 94.1162 132.295 93.8975 132.259C93.6742 132.382 93.5033 132.519 93.3848 132.669C93.2708 132.819 93.2139 132.993 93.2139 133.188C93.2139 133.334 93.2572 133.451 93.3438 133.537C93.4349 133.624 93.5648 133.688 93.7334 133.729C93.902 133.765 94.1048 133.783 94.3418 133.783H95.6611C96.4769 133.783 97.1012 133.954 97.5342 134.296C97.9717 134.638 98.1904 135.137 98.1904 135.793C98.1904 136.622 97.8532 137.258 97.1787 137.7C96.5042 138.142 95.529 138.363 94.2529 138.363ZM94.2871 137.475C94.9069 137.475 95.4196 137.411 95.8252 137.283C96.2354 137.16 96.5407 136.98 96.7412 136.743C96.9463 136.511 97.0488 136.233 97.0488 135.909C97.0488 135.608 96.9805 135.381 96.8438 135.226C96.707 135.075 96.5065 134.975 96.2422 134.925C95.9779 134.87 95.6543 134.843 95.2715 134.843H93.9727C93.6354 134.843 93.3415 134.895 93.0908 135C92.8402 135.105 92.6465 135.26 92.5098 135.465C92.3776 135.67 92.3115 135.925 92.3115 136.23C92.3115 136.636 92.4824 136.944 92.8242 137.153C93.166 137.368 93.6536 137.475 94.2871 137.475ZM94.5811 131.486C95.1234 131.486 95.5312 131.35 95.8047 131.076C96.0781 130.803 96.2148 130.404 96.2148 129.88C96.2148 129.319 96.0758 128.9 95.7979 128.622C95.5199 128.34 95.1097 128.198 94.5674 128.198C94.0479 128.198 93.6468 128.344 93.3643 128.636C93.0863 128.923 92.9473 129.344 92.9473 129.9C92.9473 130.411 93.0885 130.803 93.3711 131.076C93.6536 131.35 94.057 131.486 94.5811 131.486ZM102.647 127.371C103.285 127.371 103.832 127.512 104.288 127.795C104.744 128.077 105.092 128.474 105.334 128.984C105.576 129.49 105.696 130.083 105.696 130.762V131.466H100.521C100.535 132.345 100.754 133.015 101.178 133.476C101.602 133.936 102.199 134.166 102.969 134.166C103.443 134.166 103.862 134.123 104.227 134.036C104.591 133.95 104.969 133.822 105.361 133.653V134.651C104.983 134.82 104.607 134.943 104.233 135.021C103.864 135.098 103.427 135.137 102.921 135.137C102.201 135.137 101.572 134.991 101.034 134.699C100.501 134.403 100.086 133.97 99.79 133.4C99.4938 132.831 99.3457 132.133 99.3457 131.309C99.3457 130.502 99.4801 129.805 99.749 129.217C100.022 128.624 100.405 128.169 100.897 127.85C101.394 127.531 101.978 127.371 102.647 127.371ZM102.634 128.301C102.028 128.301 101.545 128.499 101.185 128.896C100.825 129.292 100.61 129.846 100.542 130.557H104.507C104.502 130.11 104.432 129.718 104.295 129.381C104.163 129.039 103.96 128.775 103.687 128.588C103.413 128.396 103.062 128.301 102.634 128.301ZM114.809 127.371C115.697 127.371 116.369 127.59 116.825 128.027C117.281 128.46 117.509 129.158 117.509 130.119V135H116.388V130.194C116.388 129.57 116.244 129.103 115.957 128.793C115.674 128.483 115.239 128.328 114.651 128.328C113.822 128.328 113.239 128.563 112.901 129.032C112.564 129.502 112.396 130.183 112.396 131.076V135H111.261V127.508H112.177L112.348 128.588H112.409C112.569 128.324 112.771 128.103 113.018 127.925C113.264 127.743 113.539 127.606 113.845 127.515C114.15 127.419 114.471 127.371 114.809 127.371ZM122.649 127.385C123.543 127.385 124.206 127.585 124.639 127.986C125.072 128.387 125.288 129.028 125.288 129.907V135H124.461L124.242 133.893H124.188C123.978 134.166 123.759 134.396 123.531 134.583C123.303 134.765 123.039 134.904 122.738 135C122.442 135.091 122.077 135.137 121.645 135.137C121.189 135.137 120.783 135.057 120.428 134.897C120.077 134.738 119.799 134.496 119.594 134.173C119.393 133.849 119.293 133.439 119.293 132.942C119.293 132.195 119.589 131.621 120.182 131.22C120.774 130.819 121.676 130.6 122.889 130.563L124.181 130.509V130.051C124.181 129.404 124.042 128.95 123.764 128.69C123.486 128.431 123.094 128.301 122.588 128.301C122.196 128.301 121.822 128.358 121.467 128.472C121.111 128.586 120.774 128.72 120.455 128.875L120.106 128.014C120.444 127.84 120.831 127.692 121.269 127.569C121.706 127.446 122.166 127.385 122.649 127.385ZM124.167 131.309L123.025 131.356C122.091 131.393 121.433 131.546 121.05 131.814C120.667 132.083 120.476 132.464 120.476 132.956C120.476 133.384 120.605 133.701 120.865 133.906C121.125 134.111 121.469 134.214 121.897 134.214C122.563 134.214 123.107 134.029 123.531 133.66C123.955 133.291 124.167 132.737 124.167 131.999V131.309ZM130.046 134.207C130.233 134.207 130.424 134.191 130.62 134.159C130.816 134.127 130.976 134.089 131.099 134.043V134.925C130.966 134.984 130.782 135.034 130.545 135.075C130.312 135.116 130.085 135.137 129.861 135.137C129.465 135.137 129.105 135.068 128.781 134.932C128.458 134.79 128.198 134.553 128.002 134.221C127.811 133.888 127.715 133.428 127.715 132.84V128.396H126.648V127.843L127.722 127.398L128.173 125.771H128.856V127.508H131.051V128.396H128.856V132.806C128.856 133.275 128.964 133.626 129.178 133.858C129.396 134.091 129.686 134.207 130.046 134.207ZM135.419 127.385C136.312 127.385 136.975 127.585 137.408 127.986C137.841 128.387 138.058 129.028 138.058 129.907V135H137.23L137.012 133.893H136.957C136.747 134.166 136.529 134.396 136.301 134.583C136.073 134.765 135.809 134.904 135.508 135C135.212 135.091 134.847 135.137 134.414 135.137C133.958 135.137 133.553 135.057 133.197 134.897C132.846 134.738 132.568 134.496 132.363 134.173C132.163 133.849 132.062 133.439 132.062 132.942C132.062 132.195 132.359 131.621 132.951 131.22C133.544 130.819 134.446 130.6 135.658 130.563L136.95 130.509V130.051C136.95 129.404 136.811 128.95 136.533 128.69C136.255 128.431 135.863 128.301 135.357 128.301C134.965 128.301 134.592 128.358 134.236 128.472C133.881 128.586 133.544 128.72 133.225 128.875L132.876 128.014C133.213 127.84 133.601 127.692 134.038 127.569C134.476 127.446 134.936 127.385 135.419 127.385ZM136.937 131.309L135.795 131.356C134.861 131.393 134.202 131.546 133.819 131.814C133.437 132.083 133.245 132.464 133.245 132.956C133.245 133.384 133.375 133.701 133.635 133.906C133.895 134.111 134.239 134.214 134.667 134.214C135.332 134.214 135.877 134.029 136.301 133.66C136.725 133.291 136.937 132.737 136.937 131.999V131.309ZM141.537 135H140.396V124.363H141.537V135ZM146.821 127.371C147.459 127.371 148.006 127.512 148.462 127.795C148.918 128.077 149.266 128.474 149.508 128.984C149.749 129.49 149.87 130.083 149.87 130.762V131.466H144.695C144.709 132.345 144.928 133.015 145.352 133.476C145.775 133.936 146.372 134.166 147.143 134.166C147.617 134.166 148.036 134.123 148.4 134.036C148.765 133.95 149.143 133.822 149.535 133.653V134.651C149.157 134.82 148.781 134.943 148.407 135.021C148.038 135.098 147.601 135.137 147.095 135.137C146.375 135.137 145.746 134.991 145.208 134.699C144.675 134.403 144.26 133.97 143.964 133.4C143.668 132.831 143.52 132.133 143.52 131.309C143.52 130.502 143.654 129.805 143.923 129.217C144.196 128.624 144.579 128.169 145.071 127.85C145.568 127.531 146.151 127.371 146.821 127.371ZM146.808 128.301C146.201 128.301 145.718 128.499 145.358 128.896C144.998 129.292 144.784 129.846 144.716 130.557H148.681C148.676 130.11 148.605 129.718 148.469 129.381C148.337 129.039 148.134 128.775 147.86 128.588C147.587 128.396 147.236 128.301 146.808 128.301ZM155.264 134.289C155.264 133.97 155.341 133.744 155.496 133.612C155.651 133.476 155.84 133.407 156.063 133.407C156.296 133.407 156.492 133.476 156.651 133.612C156.811 133.744 156.891 133.97 156.891 134.289C156.891 134.604 156.811 134.834 156.651 134.979C156.492 135.121 156.296 135.191 156.063 135.191C155.84 135.191 155.651 135.121 155.496 134.979C155.341 134.834 155.264 134.604 155.264 134.289ZM158.941 134.289C158.941 133.97 159.019 133.744 159.174 133.612C159.329 133.476 159.518 133.407 159.741 133.407C159.974 133.407 160.17 133.476 160.329 133.612C160.489 133.744 160.568 133.97 160.568 134.289C160.568 134.604 160.489 134.834 160.329 134.979C160.17 135.121 159.974 135.191 159.741 135.191C159.518 135.191 159.329 135.121 159.174 134.979C159.019 134.834 158.941 134.604 158.941 134.289ZM162.619 134.289C162.619 133.97 162.697 133.744 162.852 133.612C163.007 133.476 163.196 133.407 163.419 133.407C163.651 133.407 163.847 133.476 164.007 133.612C164.166 133.744 164.246 133.97 164.246 134.289C164.246 134.604 164.166 134.834 164.007 134.979C163.847 135.121 163.651 135.191 163.419 135.191C163.196 135.191 163.007 135.121 162.852 134.979C162.697 134.834 162.619 134.604 162.619 134.289ZM166.297 134.289C166.297 133.97 166.374 133.744 166.529 133.612C166.684 133.476 166.873 133.407 167.097 133.407C167.329 133.407 167.525 133.476 167.685 133.612C167.844 133.744 167.924 133.97 167.924 134.289C167.924 134.604 167.844 134.834 167.685 134.979C167.525 135.121 167.329 135.191 167.097 135.191C166.873 135.191 166.684 135.121 166.529 134.979C166.374 134.834 166.297 134.604 166.297 134.289Z" fill="#443434"/>
</svg>
