<svg width="201" height="137" viewBox="0 0 201 137" fill="none" xmlns="http://www.w3.org/2000/svg">
<path d="M14.18 10.98H14.1L13.02 13.2L10.16 18.48L7.3 13.2L6.22 10.98H6.14V21H3.64V7.04H6.62L10.2 13.86H10.28L13.82 7.04H16.68V21H14.18V10.98ZM27.4881 21C26.9281 21 26.4815 20.84 26.1481 20.52C25.8281 20.1867 25.6281 19.7467 25.5481 19.2H25.4281C25.2548 19.88 24.9015 20.3933 24.3681 20.74C23.8348 21.0733 23.1748 21.24 22.3881 21.24C21.3215 21.24 20.5015 20.96 19.9281 20.4C19.3548 19.84 19.0681 19.0933 19.0681 18.16C19.0681 17.08 19.4548 16.28 20.2281 15.76C21.0015 15.2267 22.1015 14.96 23.5281 14.96H25.3081V14.2C25.3081 13.6133 25.1548 13.16 24.8481 12.84C24.5415 12.52 24.0481 12.36 23.3681 12.36C22.7681 12.36 22.2815 12.4933 21.9081 12.76C21.5481 13.0133 21.2415 13.32 20.9881 13.68L19.4681 12.32C19.8548 11.72 20.3681 11.24 21.0081 10.88C21.6481 10.5067 22.4948 10.32 23.5481 10.32C24.9615 10.32 26.0348 10.64 26.7681 11.28C27.5015 11.92 27.8681 12.84 27.8681 14.04V18.96H28.9081V21H27.4881ZM23.2481 19.38C23.8215 19.38 24.3081 19.2533 24.7081 19C25.1081 18.7467 25.3081 18.3733 25.3081 17.88V16.5H23.6681C22.3348 16.5 21.6681 16.9267 21.6681 17.78V18.12C21.6681 18.5467 21.8015 18.8667 22.0681 19.08C22.3481 19.28 22.7415 19.38 23.2481 19.38ZM30.98 21V10.56H33.54V12.3H33.64C33.8533 11.74 34.1867 11.2733 34.64 10.9C35.1067 10.5133 35.7467 10.32 36.56 10.32C37.64 10.32 38.4667 10.6733 39.04 11.38C39.6133 12.0867 39.9 13.0933 39.9 14.4V21H37.34V14.66C37.34 13.9133 37.2067 13.3533 36.94 12.98C36.6733 12.6067 36.2333 12.42 35.62 12.42C35.3533 12.42 35.0933 12.46 34.84 12.54C34.6 12.6067 34.38 12.7133 34.18 12.86C33.9933 12.9933 33.84 13.1667 33.72 13.38C33.6 13.58 33.54 13.82 33.54 14.1V21H30.98ZM44.0178 9.04C43.4845 9.04 43.0978 8.92 42.8578 8.68C42.6311 8.44 42.5178 8.13333 42.5178 7.76V7.36C42.5178 6.98667 42.6311 6.68 42.8578 6.44C43.0978 6.2 43.4845 6.08 44.0178 6.08C44.5378 6.08 44.9178 6.2 45.1578 6.44C45.3978 6.68 45.5178 6.98667 45.5178 7.36V7.76C45.5178 8.13333 45.3978 8.44 45.1578 8.68C44.9178 8.92 44.5378 9.04 44.0178 9.04ZM42.7378 10.56H45.2978V21H42.7378V10.56ZM48.7852 12.58H47.2452V10.56H48.7852V9.06C48.7852 8.14 49.0252 7.43333 49.5052 6.94C49.9985 6.44667 50.7185 6.2 51.6652 6.2H53.4852V8.24H51.3452V10.56H53.4852V12.58H51.3452V21H48.7852V12.58ZM59.3992 21.24C58.6259 21.24 57.9326 21.1133 57.3192 20.86C56.7192 20.5933 56.2059 20.2267 55.7792 19.76C55.3659 19.28 55.0459 18.7067 54.8192 18.04C54.5926 17.36 54.4792 16.6 54.4792 15.76C54.4792 14.9333 54.5859 14.1867 54.7992 13.52C55.0259 12.8533 55.3459 12.2867 55.7592 11.82C56.1726 11.34 56.6792 10.9733 57.2792 10.72C57.8792 10.4533 58.5592 10.32 59.3192 10.32C60.1326 10.32 60.8392 10.46 61.4392 10.74C62.0392 11.02 62.5326 11.4 62.9192 11.88C63.3059 12.36 63.5926 12.92 63.7792 13.56C63.9792 14.1867 64.0792 14.86 64.0792 15.58V16.42H57.1392V16.68C57.1392 17.44 57.3526 18.0533 57.7792 18.52C58.2059 18.9733 58.8392 19.2 59.6792 19.2C60.3192 19.2 60.8392 19.0667 61.2392 18.8C61.6526 18.5333 62.0192 18.1933 62.3392 17.78L63.7192 19.32C63.2926 19.92 62.7059 20.3933 61.9592 20.74C61.2259 21.0733 60.3726 21.24 59.3992 21.24ZM59.3592 12.24C58.6792 12.24 58.1392 12.4667 57.7392 12.92C57.3392 13.3733 57.1392 13.96 57.1392 14.68V14.84H61.4192V14.66C61.4192 13.94 61.2392 13.36 60.8792 12.92C60.5326 12.4667 60.0259 12.24 59.3592 12.24ZM69.7516 21.24C68.7516 21.24 67.9116 21.0733 67.2316 20.74C66.5516 20.3933 65.9516 19.92 65.4316 19.32L66.9916 17.8C67.3782 18.24 67.7982 18.5867 68.2516 18.84C68.7182 19.0933 69.2516 19.22 69.8516 19.22C70.4649 19.22 70.9049 19.1133 71.1716 18.9C71.4516 18.6867 71.5916 18.3933 71.5916 18.02C71.5916 17.7133 71.4916 17.4733 71.2916 17.3C71.1049 17.1133 70.7782 16.9867 70.3116 16.92L69.2716 16.78C68.1382 16.6333 67.2716 16.3133 66.6716 15.82C66.0849 15.3133 65.7916 14.58 65.7916 13.62C65.7916 13.1133 65.8849 12.66 66.0716 12.26C66.2582 11.8467 66.5249 11.5 66.8716 11.22C67.2182 10.9267 67.6316 10.7067 68.1116 10.56C68.6049 10.4 69.1516 10.32 69.7516 10.32C70.2582 10.32 70.7049 10.36 71.0916 10.44C71.4916 10.5067 71.8516 10.6133 72.1716 10.76C72.4916 10.8933 72.7849 11.0667 73.0516 11.28C73.3182 11.48 73.5782 11.7067 73.8316 11.96L72.3316 13.46C72.0249 13.14 71.6582 12.8733 71.2316 12.66C70.8049 12.4467 70.3382 12.34 69.8316 12.34C69.2716 12.34 68.8649 12.44 68.6116 12.64C68.3716 12.84 68.2516 13.1 68.2516 13.42C68.2516 13.7667 68.3516 14.0333 68.5516 14.22C68.7649 14.3933 69.1182 14.52 69.6116 14.6L70.6716 14.74C72.9249 15.06 74.0516 16.0867 74.0516 17.82C74.0516 18.3267 73.9449 18.7933 73.7316 19.22C73.5316 19.6333 73.2449 19.9933 72.8716 20.3C72.4982 20.5933 72.0449 20.8267 71.5116 21C70.9916 21.16 70.4049 21.24 69.7516 21.24ZM79.4158 21C78.5358 21 77.8624 20.7733 77.3958 20.32C76.9424 19.8533 76.7158 19.1933 76.7158 18.34V12.6H75.1758V10.56H75.9758C76.3624 10.56 76.6224 10.4733 76.7558 10.3C76.9024 10.1133 76.9758 9.84 76.9758 9.48V7.7H79.2758V10.56H81.4158V12.6H79.2758V18.96H81.2558V21H79.4158ZM91.3163 21C90.7563 21 90.3096 20.84 89.9763 20.52C89.6563 20.1867 89.4563 19.7467 89.3763 19.2H89.2563C89.0829 19.88 88.7296 20.3933 88.1963 20.74C87.6629 21.0733 87.0029 21.24 86.2163 21.24C85.1496 21.24 84.3296 20.96 83.7563 20.4C83.1829 19.84 82.8963 19.0933 82.8963 18.16C82.8963 17.08 83.2829 16.28 84.0563 15.76C84.8296 15.2267 85.9296 14.96 87.3563 14.96H89.1363V14.2C89.1363 13.6133 88.9829 13.16 88.6763 12.84C88.3696 12.52 87.8763 12.36 87.1963 12.36C86.5963 12.36 86.1096 12.4933 85.7363 12.76C85.3763 13.0133 85.0696 13.32 84.8163 13.68L83.2963 12.32C83.6829 11.72 84.1963 11.24 84.8363 10.88C85.4763 10.5067 86.3229 10.32 87.3763 10.32C88.7896 10.32 89.8629 10.64 90.5963 11.28C91.3296 11.92 91.6963 12.84 91.6963 14.04V18.96H92.7363V21H91.3163ZM87.0763 19.38C87.6496 19.38 88.1363 19.2533 88.5363 19C88.9363 18.7467 89.1363 18.3733 89.1363 17.88V16.5H87.4963C86.1629 16.5 85.4963 16.9267 85.4963 17.78V18.12C85.4963 18.5467 85.6296 18.8667 85.8963 19.08C86.1763 19.28 86.5696 19.38 87.0763 19.38ZM97.99 21C97.11 21 96.4367 20.7733 95.97 20.32C95.5167 19.8533 95.29 19.1933 95.29 18.34V12.6H93.75V10.56H94.55C94.9367 10.56 95.1967 10.4733 95.33 10.3C95.4767 10.1133 95.55 9.84 95.55 9.48V7.7H97.85V10.56H99.99V12.6H97.85V18.96H99.83V21H97.99ZM103.49 9.04C102.957 9.04 102.57 8.92 102.33 8.68C102.104 8.44 101.99 8.13333 101.99 7.76V7.36C101.99 6.98667 102.104 6.68 102.33 6.44C102.57 6.2 102.957 6.08 103.49 6.08C104.01 6.08 104.39 6.2 104.63 6.44C104.87 6.68 104.99 6.98667 104.99 7.36V7.76C104.99 8.13333 104.87 8.44 104.63 8.68C104.39 8.92 104.01 9.04 103.49 9.04ZM102.21 10.56H104.77V21H102.21V10.56ZM111.878 21.24C111.131 21.24 110.458 21.1133 109.858 20.86C109.271 20.6067 108.764 20.24 108.338 19.76C107.924 19.28 107.604 18.7067 107.378 18.04C107.151 17.36 107.038 16.6 107.038 15.76C107.038 14.92 107.151 14.1667 107.378 13.5C107.604 12.8333 107.924 12.2667 108.338 11.8C108.764 11.32 109.271 10.9533 109.858 10.7C110.458 10.4467 111.131 10.32 111.878 10.32C112.624 10.32 113.298 10.4467 113.898 10.7C114.498 10.9533 115.004 11.32 115.418 11.8C115.844 12.2667 116.171 12.8333 116.398 13.5C116.624 14.1667 116.738 14.92 116.738 15.76C116.738 16.6 116.624 17.36 116.398 18.04C116.171 18.7067 115.844 19.28 115.418 19.76C115.004 20.24 114.498 20.6067 113.898 20.86C113.298 21.1133 112.624 21.24 111.878 21.24ZM111.878 19.18C112.558 19.18 113.091 18.9733 113.478 18.56C113.864 18.1467 114.058 17.54 114.058 16.74V14.8C114.058 14.0133 113.864 13.4133 113.478 13C113.091 12.5867 112.558 12.38 111.878 12.38C111.211 12.38 110.684 12.5867 110.298 13C109.911 13.4133 109.718 14.0133 109.718 14.8V16.74C109.718 17.54 109.911 18.1467 110.298 18.56C110.684 18.9733 111.211 19.18 111.878 19.18ZM119.007 21V10.56H121.567V12.3H121.667C121.881 11.74 122.214 11.2733 122.667 10.9C123.134 10.5133 123.774 10.32 124.587 10.32C125.667 10.32 126.494 10.6733 127.067 11.38C127.641 12.0867 127.927 13.0933 127.927 14.4V21H125.367V14.66C125.367 13.9133 125.234 13.3533 124.967 12.98C124.701 12.6067 124.261 12.42 123.647 12.42C123.381 12.42 123.121 12.46 122.867 12.54C122.627 12.6067 122.407 12.7133 122.207 12.86C122.021 12.9933 121.867 13.1667 121.747 13.38C121.627 13.58 121.567 13.82 121.567 14.1V21H119.007ZM134.185 21.24C133.185 21.24 132.345 21.0733 131.665 20.74C130.985 20.3933 130.385 19.92 129.865 19.32L131.425 17.8C131.812 18.24 132.232 18.5867 132.685 18.84C133.152 19.0933 133.685 19.22 134.285 19.22C134.898 19.22 135.338 19.1133 135.605 18.9C135.885 18.6867 136.025 18.3933 136.025 18.02C136.025 17.7133 135.925 17.4733 135.725 17.3C135.538 17.1133 135.212 16.9867 134.745 16.92L133.705 16.78C132.572 16.6333 131.705 16.3133 131.105 15.82C130.518 15.3133 130.225 14.58 130.225 13.62C130.225 13.1133 130.318 12.66 130.505 12.26C130.692 11.8467 130.958 11.5 131.305 11.22C131.652 10.9267 132.065 10.7067 132.545 10.56C133.038 10.4 133.585 10.32 134.185 10.32C134.692 10.32 135.138 10.36 135.525 10.44C135.925 10.5067 136.285 10.6133 136.605 10.76C136.925 10.8933 137.218 11.0667 137.485 11.28C137.752 11.48 138.012 11.7067 138.265 11.96L136.765 13.46C136.458 13.14 136.092 12.8733 135.665 12.66C135.238 12.4467 134.772 12.34 134.265 12.34C133.705 12.34 133.298 12.44 133.045 12.64C132.805 12.84 132.685 13.1 132.685 13.42C132.685 13.7667 132.785 14.0333 132.985 14.22C133.198 14.3933 133.552 14.52 134.045 14.6L135.105 14.74C137.358 15.06 138.485 16.0867 138.485 17.82C138.485 18.3267 138.378 18.7933 138.165 19.22C137.965 19.6333 137.678 19.9933 137.305 20.3C136.932 20.5933 136.478 20.8267 135.945 21C135.425 21.16 134.838 21.24 134.185 21.24ZM145.472 10.56H148.032V12.28H148.112C148.299 11.68 148.652 11.2067 149.172 10.86C149.692 10.5 150.299 10.32 150.992 10.32C152.326 10.32 153.339 10.7933 154.032 11.74C154.739 12.6733 155.092 14.0133 155.092 15.76C155.092 17.52 154.739 18.8733 154.032 19.82C153.339 20.7667 152.326 21.24 150.992 21.24C150.299 21.24 149.692 21.06 149.172 20.7C148.666 20.34 148.312 19.86 148.112 19.26H148.032V25H145.472V10.56ZM150.172 19.12C150.839 19.12 151.379 18.9 151.792 18.46C152.206 18.02 152.412 17.4267 152.412 16.68V14.88C152.412 14.1333 152.206 13.54 151.792 13.1C151.379 12.6467 150.839 12.42 150.172 12.42C149.559 12.42 149.046 12.5733 148.632 12.88C148.232 13.1867 148.032 13.5933 148.032 14.1V17.42C148.032 17.9667 148.232 18.3867 148.632 18.68C149.046 18.9733 149.559 19.12 150.172 19.12ZM161.604 21.24C160.858 21.24 160.184 21.1133 159.584 20.86C158.998 20.6067 158.491 20.24 158.064 19.76C157.651 19.28 157.331 18.7067 157.104 18.04C156.878 17.36 156.764 16.6 156.764 15.76C156.764 14.92 156.878 14.1667 157.104 13.5C157.331 12.8333 157.651 12.2667 158.064 11.8C158.491 11.32 158.998 10.9533 159.584 10.7C160.184 10.4467 160.858 10.32 161.604 10.32C162.351 10.32 163.024 10.4467 163.624 10.7C164.224 10.9533 164.731 11.32 165.144 11.8C165.571 12.2667 165.898 12.8333 166.124 13.5C166.351 14.1667 166.464 14.92 166.464 15.76C166.464 16.6 166.351 17.36 166.124 18.04C165.898 18.7067 165.571 19.28 165.144 19.76C164.731 20.24 164.224 20.6067 163.624 20.86C163.024 21.1133 162.351 21.24 161.604 21.24ZM161.604 19.18C162.284 19.18 162.818 18.9733 163.204 18.56C163.591 18.1467 163.784 17.54 163.784 16.74V14.8C163.784 14.0133 163.591 13.4133 163.204 13C162.818 12.5867 162.284 12.38 161.604 12.38C160.938 12.38 160.411 12.5867 160.024 13C159.638 13.4133 159.444 14.0133 159.444 14.8V16.74C159.444 17.54 159.638 18.1467 160.024 18.56C160.411 18.9733 160.938 19.18 161.604 19.18ZM174.974 19.26H174.874C174.781 19.5267 174.654 19.78 174.494 20.02C174.347 20.2467 174.154 20.4533 173.914 20.64C173.687 20.8267 173.407 20.9733 173.074 21.08C172.754 21.1867 172.381 21.24 171.954 21.24C170.874 21.24 170.047 20.8867 169.474 20.18C168.901 19.4733 168.614 18.4667 168.614 17.16V10.56H171.174V16.9C171.174 17.62 171.314 18.1733 171.594 18.56C171.874 18.9333 172.321 19.12 172.934 19.12C173.187 19.12 173.434 19.0867 173.674 19.02C173.927 18.9533 174.147 18.8533 174.334 18.72C174.521 18.5733 174.674 18.4 174.794 18.2C174.914 17.9867 174.974 17.74 174.974 17.46V10.56H177.534V21H174.974V19.26ZM180.492 21V10.56H183.052V12.72H183.152C183.218 12.44 183.318 12.1733 183.452 11.92C183.598 11.6533 183.785 11.42 184.012 11.22C184.238 11.02 184.505 10.86 184.812 10.74C185.132 10.62 185.498 10.56 185.912 10.56H186.472V12.98H185.672C184.805 12.98 184.152 13.1067 183.712 13.36C183.272 13.6133 183.052 14.0267 183.052 14.6V21H180.492ZM6.04 47C5.16 47 4.51333 46.78 4.1 46.34C3.68667 45.9 3.48 45.28 3.48 44.48V32.2H6.04V44.96H7.42V47H6.04ZM17.0389 47C16.4789 47 16.0322 46.84 15.6989 46.52C15.3789 46.1867 15.1789 45.7467 15.0989 45.2H14.9789C14.8056 45.88 14.4522 46.3933 13.9189 46.74C13.3856 47.0733 12.7256 47.24 11.9389 47.24C10.8722 47.24 10.0522 46.96 9.47891 46.4C8.90557 45.84 8.61891 45.0933 8.61891 44.16C8.61891 43.08 9.00557 42.28 9.77891 41.76C10.5522 41.2267 11.6522 40.96 13.0789 40.96H14.8589V40.2C14.8589 39.6133 14.7056 39.16 14.3989 38.84C14.0922 38.52 13.5989 38.36 12.9189 38.36C12.3189 38.36 11.8322 38.4933 11.4589 38.76C11.0989 39.0133 10.7922 39.32 10.5389 39.68L9.01891 38.32C9.40557 37.72 9.91891 37.24 10.5589 36.88C11.1989 36.5067 12.0456 36.32 13.0989 36.32C14.5122 36.32 15.5856 36.64 16.3189 37.28C17.0522 37.92 17.4189 38.84 17.4189 40.04V44.96H18.4589V47H17.0389ZM12.7989 45.38C13.3722 45.38 13.8589 45.2533 14.2589 45C14.6589 44.7467 14.8589 44.3733 14.8589 43.88V42.5H13.2189C11.8856 42.5 11.2189 42.9267 11.2189 43.78V44.12C11.2189 44.5467 11.3522 44.8667 11.6189 45.08C11.8989 45.28 12.2922 45.38 12.7989 45.38ZM25.2573 32.2H27.8173V38.28H27.8973C28.084 37.68 28.4373 37.2067 28.9573 36.86C29.4773 36.5 30.084 36.32 30.7773 36.32C32.1107 36.32 33.124 36.7933 33.8173 37.74C34.524 38.6733 34.8773 40.0133 34.8773 41.76C34.8773 43.52 34.524 44.8733 33.8173 45.82C33.124 46.7667 32.1107 47.24 30.7773 47.24C30.084 47.24 29.4773 47.06 28.9573 46.7C28.4507 46.34 28.0973 45.86 27.8973 45.26H27.8173V47H25.2573V32.2ZM29.9573 45.12C30.624 45.12 31.164 44.9 31.5773 44.46C31.9907 44.02 32.1973 43.4267 32.1973 42.68V40.88C32.1973 40.1333 31.9907 39.54 31.5773 39.1C31.164 38.6467 30.624 38.42 29.9573 38.42C29.344 38.42 28.8307 38.5733 28.4173 38.88C28.0173 39.1867 27.8173 39.5933 27.8173 40.1V43.42C27.8173 43.9667 28.0173 44.3867 28.4173 44.68C28.8307 44.9733 29.344 45.12 29.9573 45.12ZM44.9295 47C44.3695 47 43.9229 46.84 43.5895 46.52C43.2695 46.1867 43.0695 45.7467 42.9895 45.2H42.8695C42.6962 45.88 42.3429 46.3933 41.8095 46.74C41.2762 47.0733 40.6162 47.24 39.8295 47.24C38.7629 47.24 37.9429 46.96 37.3695 46.4C36.7962 45.84 36.5095 45.0933 36.5095 44.16C36.5095 43.08 36.8962 42.28 37.6695 41.76C38.4429 41.2267 39.5429 40.96 40.9695 40.96H42.7495V40.2C42.7495 39.6133 42.5962 39.16 42.2895 38.84C41.9829 38.52 41.4895 38.36 40.8095 38.36C40.2095 38.36 39.7229 38.4933 39.3495 38.76C38.9895 39.0133 38.6829 39.32 38.4295 39.68L36.9095 38.32C37.2962 37.72 37.8095 37.24 38.4495 36.88C39.0895 36.5067 39.9362 36.32 40.9895 36.32C42.4029 36.32 43.4762 36.64 44.2095 37.28C44.9429 37.92 45.3095 38.84 45.3095 40.04V44.96H46.3495V47H44.9295ZM40.6895 45.38C41.2629 45.38 41.7495 45.2533 42.1495 45C42.5495 44.7467 42.7495 44.3733 42.7495 43.88V42.5H41.1095C39.7762 42.5 39.1095 42.9267 39.1095 43.78V44.12C39.1095 44.5467 39.2429 44.8667 39.5095 45.08C39.7895 45.28 40.1829 45.38 40.6895 45.38ZM49.7014 35.04C49.1681 35.04 48.7814 34.92 48.5414 34.68C48.3147 34.44 48.2014 34.1333 48.2014 33.76V33.36C48.2014 32.9867 48.3147 32.68 48.5414 32.44C48.7814 32.2 49.1681 32.08 49.7014 32.08C50.2214 32.08 50.6014 32.2 50.8414 32.44C51.0814 32.68 51.2014 32.9867 51.2014 33.36V33.76C51.2014 34.1333 51.0814 34.44 50.8414 34.68C50.6014 34.92 50.2214 35.04 49.7014 35.04ZM48.4214 36.56H50.9814V47H48.4214V36.56ZM57.3688 47.24C56.3688 47.24 55.5288 47.0733 54.8488 46.74C54.1688 46.3933 53.5688 45.92 53.0488 45.32L54.6088 43.8C54.9954 44.24 55.4154 44.5867 55.8688 44.84C56.3354 45.0933 56.8688 45.22 57.4688 45.22C58.0821 45.22 58.5221 45.1133 58.7888 44.9C59.0688 44.6867 59.2088 44.3933 59.2088 44.02C59.2088 43.7133 59.1088 43.4733 58.9088 43.3C58.7221 43.1133 58.3954 42.9867 57.9288 42.92L56.8888 42.78C55.7554 42.6333 54.8888 42.3133 54.2888 41.82C53.7021 41.3133 53.4088 40.58 53.4088 39.62C53.4088 39.1133 53.5021 38.66 53.6888 38.26C53.8754 37.8467 54.1421 37.5 54.4888 37.22C54.8354 36.9267 55.2488 36.7067 55.7288 36.56C56.2221 36.4 56.7688 36.32 57.3688 36.32C57.8754 36.32 58.3221 36.36 58.7088 36.44C59.1088 36.5067 59.4688 36.6133 59.7888 36.76C60.1088 36.8933 60.4021 37.0667 60.6688 37.28C60.9354 37.48 61.1954 37.7067 61.4488 37.96L59.9488 39.46C59.6421 39.14 59.2754 38.8733 58.8488 38.66C58.4221 38.4467 57.9554 38.34 57.4488 38.34C56.8888 38.34 56.4821 38.44 56.2288 38.64C55.9888 38.84 55.8688 39.1 55.8688 39.42C55.8688 39.7667 55.9688 40.0333 56.1688 40.22C56.3821 40.3933 56.7354 40.52 57.2288 40.6L58.2888 40.74C60.5421 41.06 61.6688 42.0867 61.6688 43.82C61.6688 44.3267 61.5621 44.7933 61.3488 45.22C61.1488 45.6333 60.8621 45.9933 60.4888 46.3C60.1154 46.5933 59.6621 46.8267 59.1288 47C58.6088 47.16 58.0221 47.24 57.3688 47.24ZM67.2125 47.24C66.2125 47.24 65.3725 47.0733 64.6925 46.74C64.0125 46.3933 63.4125 45.92 62.8925 45.32L64.4525 43.8C64.8392 44.24 65.2592 44.5867 65.7125 44.84C66.1792 45.0933 66.7125 45.22 67.3125 45.22C67.9258 45.22 68.3658 45.1133 68.6325 44.9C68.9125 44.6867 69.0525 44.3933 69.0525 44.02C69.0525 43.7133 68.9525 43.4733 68.7525 43.3C68.5658 43.1133 68.2392 42.9867 67.7725 42.92L66.7325 42.78C65.5992 42.6333 64.7325 42.3133 64.1325 41.82C63.5458 41.3133 63.2525 40.58 63.2525 39.62C63.2525 39.1133 63.3458 38.66 63.5325 38.26C63.7192 37.8467 63.9858 37.5 64.3325 37.22C64.6792 36.9267 65.0925 36.7067 65.5725 36.56C66.0658 36.4 66.6125 36.32 67.2125 36.32C67.7192 36.32 68.1658 36.36 68.5525 36.44C68.9525 36.5067 69.3125 36.6133 69.6325 36.76C69.9525 36.8933 70.2458 37.0667 70.5125 37.28C70.7792 37.48 71.0392 37.7067 71.2925 37.96L69.7925 39.46C69.4858 39.14 69.1192 38.8733 68.6925 38.66C68.2658 38.4467 67.7992 38.34 67.2925 38.34C66.7325 38.34 66.3258 38.44 66.0725 38.64C65.8325 38.84 65.7125 39.1 65.7125 39.42C65.7125 39.7667 65.8125 40.0333 66.0125 40.22C66.2258 40.3933 66.5792 40.52 67.0725 40.6L68.1325 40.74C70.3858 41.06 71.5125 42.0867 71.5125 43.82C71.5125 44.3267 71.4058 44.7933 71.1925 45.22C70.9925 45.6333 70.7058 45.9933 70.3325 46.3C69.9592 46.5933 69.5058 46.8267 68.9725 47C68.4525 47.16 67.8658 47.24 67.2125 47.24ZM77.993 47.24C77.2196 47.24 76.5263 47.1133 75.913 46.86C75.313 46.5933 74.7996 46.2267 74.373 45.76C73.9596 45.28 73.6396 44.7067 73.413 44.04C73.1863 43.36 73.073 42.6 73.073 41.76C73.073 40.9333 73.1796 40.1867 73.393 39.52C73.6196 38.8533 73.9396 38.2867 74.353 37.82C74.7663 37.34 75.273 36.9733 75.873 36.72C76.473 36.4533 77.153 36.32 77.913 36.32C78.7263 36.32 79.433 36.46 80.033 36.74C80.633 37.02 81.1263 37.4 81.513 37.88C81.8996 38.36 82.1863 38.92 82.373 39.56C82.573 40.1867 82.673 40.86 82.673 41.58V42.42H75.733V42.68C75.733 43.44 75.9463 44.0533 76.373 44.52C76.7996 44.9733 77.433 45.2 78.273 45.2C78.913 45.2 79.433 45.0667 79.833 44.8C80.2463 44.5333 80.613 44.1933 80.933 43.78L82.313 45.32C81.8863 45.92 81.2996 46.3933 80.553 46.74C79.8196 47.0733 78.9663 47.24 77.993 47.24ZM77.953 38.24C77.273 38.24 76.733 38.4667 76.333 38.92C75.933 39.3733 75.733 39.96 75.733 40.68V40.84H80.013V40.66C80.013 39.94 79.833 39.36 79.473 38.92C79.1263 38.4667 78.6196 38.24 77.953 38.24ZM96.1319 45.26H96.0319C95.8452 45.86 95.4919 46.34 94.9719 46.7C94.4519 47.06 93.8452 47.24 93.1519 47.24C91.8319 47.24 90.8185 46.7667 90.1119 45.82C89.4185 44.8733 89.0719 43.52 89.0719 41.76C89.0719 40.0133 89.4185 38.6733 90.1119 37.74C90.8185 36.7933 91.8319 36.32 93.1519 36.32C93.8452 36.32 94.4519 36.5 94.9719 36.86C95.4919 37.2067 95.8452 37.68 96.0319 38.28H96.1319V32.2H98.6919V47H96.1319V45.26ZM93.9719 45.12C94.5852 45.12 95.0985 44.9733 95.5119 44.68C95.9252 44.3867 96.1319 43.9667 96.1319 43.42V40.1C96.1319 39.5933 95.9252 39.1867 95.5119 38.88C95.0985 38.5733 94.5852 38.42 93.9719 38.42C93.3052 38.42 92.7652 38.6467 92.3519 39.1C91.9519 39.54 91.7519 40.1333 91.7519 40.88V42.68C91.7519 43.4267 91.9519 44.02 92.3519 44.46C92.7652 44.9 93.3052 45.12 93.9719 45.12ZM105.864 47.24C105.091 47.24 104.397 47.1133 103.784 46.86C103.184 46.5933 102.671 46.2267 102.244 45.76C101.831 45.28 101.511 44.7067 101.284 44.04C101.057 43.36 100.944 42.6 100.944 41.76C100.944 40.9333 101.051 40.1867 101.264 39.52C101.491 38.8533 101.811 38.2867 102.224 37.82C102.637 37.34 103.144 36.9733 103.744 36.72C104.344 36.4533 105.024 36.32 105.784 36.32C106.597 36.32 107.304 36.46 107.904 36.74C108.504 37.02 108.997 37.4 109.384 37.88C109.771 38.36 110.057 38.92 110.244 39.56C110.444 40.1867 110.544 40.86 110.544 41.58V42.42H103.604V42.68C103.604 43.44 103.817 44.0533 104.244 44.52C104.671 44.9733 105.304 45.2 106.144 45.2C106.784 45.2 107.304 45.0667 107.704 44.8C108.117 44.5333 108.484 44.1933 108.804 43.78L110.184 45.32C109.757 45.92 109.171 46.3933 108.424 46.74C107.691 47.0733 106.837 47.24 105.864 47.24ZM105.824 38.24C105.144 38.24 104.604 38.4667 104.204 38.92C103.804 39.3733 103.604 39.96 103.604 40.68V40.84H107.884V40.66C107.884 39.94 107.704 39.36 107.344 38.92C106.997 38.4667 106.491 38.24 105.824 38.24ZM116.216 47.24C115.216 47.24 114.376 47.0733 113.696 46.74C113.016 46.3933 112.416 45.92 111.896 45.32L113.456 43.8C113.843 44.24 114.263 44.5867 114.716 44.84C115.183 45.0933 115.716 45.22 116.316 45.22C116.93 45.22 117.37 45.1133 117.636 44.9C117.916 44.6867 118.056 44.3933 118.056 44.02C118.056 43.7133 117.956 43.4733 117.756 43.3C117.57 43.1133 117.243 42.9867 116.776 42.92L115.736 42.78C114.603 42.6333 113.736 42.3133 113.136 41.82C112.55 41.3133 112.256 40.58 112.256 39.62C112.256 39.1133 112.35 38.66 112.536 38.26C112.723 37.8467 112.99 37.5 113.336 37.22C113.683 36.9267 114.096 36.7067 114.576 36.56C115.07 36.4 115.616 36.32 116.216 36.32C116.723 36.32 117.17 36.36 117.556 36.44C117.956 36.5067 118.316 36.6133 118.636 36.76C118.956 36.8933 119.25 37.0667 119.516 37.28C119.783 37.48 120.043 37.7067 120.296 37.96L118.796 39.46C118.49 39.14 118.123 38.8733 117.696 38.66C117.27 38.4467 116.803 38.34 116.296 38.34C115.736 38.34 115.33 38.44 115.076 38.64C114.836 38.84 114.716 39.1 114.716 39.42C114.716 39.7667 114.816 40.0333 115.016 40.22C115.23 40.3933 115.583 40.52 116.076 40.6L117.136 40.74C119.39 41.06 120.516 42.0867 120.516 43.82C120.516 44.3267 120.41 44.7933 120.196 45.22C119.996 45.6333 119.71 45.9933 119.336 46.3C118.963 46.5933 118.51 46.8267 117.976 47C117.456 47.16 116.87 47.24 116.216 47.24ZM127.503 36.56H130.063V38.28H130.143C130.33 37.68 130.683 37.2067 131.203 36.86C131.723 36.5 132.33 36.32 133.023 36.32C134.357 36.32 135.37 36.7933 136.063 37.74C136.77 38.6733 137.123 40.0133 137.123 41.76C137.123 43.52 136.77 44.8733 136.063 45.82C135.37 46.7667 134.357 47.24 133.023 47.24C132.33 47.24 131.723 47.06 131.203 46.7C130.697 46.34 130.343 45.86 130.143 45.26H130.063V51H127.503V36.56ZM132.203 45.12C132.87 45.12 133.41 44.9 133.823 44.46C134.237 44.02 134.443 43.4267 134.443 42.68V40.88C134.443 40.1333 134.237 39.54 133.823 39.1C133.41 38.6467 132.87 38.42 132.203 38.42C131.59 38.42 131.077 38.5733 130.663 38.88C130.263 39.1867 130.063 39.5933 130.063 40.1V43.42C130.063 43.9667 130.263 44.3867 130.663 44.68C131.077 44.9733 131.59 45.12 132.203 45.12ZM139.496 47V36.56H142.056V38.72H142.156C142.222 38.44 142.322 38.1733 142.456 37.92C142.602 37.6533 142.789 37.42 143.016 37.22C143.242 37.02 143.509 36.86 143.816 36.74C144.136 36.62 144.502 36.56 144.916 36.56H145.476V38.98H144.676C143.809 38.98 143.156 39.1067 142.716 39.36C142.276 39.6133 142.056 40.0267 142.056 40.6V47H139.496ZM148.627 35.04C148.094 35.04 147.707 34.92 147.467 34.68C147.241 34.44 147.127 34.1333 147.127 33.76V33.36C147.127 32.9867 147.241 32.68 147.467 32.44C147.707 32.2 148.094 32.08 148.627 32.08C149.147 32.08 149.527 32.2 149.767 32.44C150.007 32.68 150.127 32.9867 150.127 33.36V33.76C150.127 34.1333 150.007 34.44 149.767 34.68C149.527 34.92 149.147 35.04 148.627 35.04ZM147.347 36.56H149.907V47H147.347V36.56ZM151.775 47L155.335 41.7L151.855 36.56H154.775L156.935 40.02H157.015L159.155 36.56H161.875L158.335 41.74L161.895 47H158.975L156.775 43.4H156.695L154.495 47H151.775Z" fill="#443434"/>
<path d="M1.302 98V88.228H2.478V96.964H6.636V98H1.302ZM12.519 96.824H12.463C12.3883 96.992 12.295 97.16 12.183 97.328C12.0803 97.4867 11.9496 97.6313 11.791 97.762C11.6323 97.8833 11.441 97.9813 11.217 98.056C10.993 98.1307 10.7316 98.168 10.433 98.168C9.68629 98.168 9.09362 97.93 8.65495 97.454C8.21629 96.9687 7.99695 96.2873 7.99695 95.41V90.776H9.11695V95.214C9.11695 96.5113 9.66762 97.16 10.769 97.16C10.993 97.16 11.2076 97.132 11.413 97.076C11.6276 97.02 11.8143 96.936 11.973 96.824C12.141 96.712 12.2716 96.572 12.365 96.404C12.4676 96.2267 12.519 96.0167 12.519 95.774V90.776H13.639V98H12.519V96.824ZM16.024 98V90.776H17.144V91.952H17.2C17.3773 91.5413 17.6247 91.2147 17.942 90.972C18.2687 90.7293 18.7027 90.608 19.244 90.608C19.9907 90.608 20.5787 90.8507 21.008 91.336C21.4467 91.812 21.666 92.4887 21.666 93.366V98H20.546V93.562C20.546 92.2647 20 91.616 18.908 91.616C18.684 91.616 18.4647 91.644 18.25 91.7C18.0447 91.756 17.858 91.84 17.69 91.952C17.522 92.064 17.3867 92.2087 17.284 92.386C17.1907 92.554 17.144 92.7547 17.144 92.988V98H16.024ZM28.601 96.824H28.545C28.1063 97.72 27.4017 98.168 26.431 98.168C25.983 98.168 25.577 98.0793 25.213 97.902C24.849 97.7247 24.5363 97.4727 24.275 97.146C24.023 96.8193 23.827 96.4227 23.687 95.956C23.5563 95.4893 23.491 94.9667 23.491 94.388C23.491 93.8093 23.5563 93.2867 23.687 92.82C23.827 92.3533 24.023 91.9567 24.275 91.63C24.5363 91.3033 24.849 91.0513 25.213 90.874C25.577 90.6967 25.983 90.608 26.431 90.608C26.935 90.608 27.3643 90.72 27.719 90.944C28.083 91.1587 28.3583 91.4947 28.545 91.952H28.601V87.64H29.721V98H28.601V96.824ZM26.739 97.16C26.991 97.16 27.229 97.1273 27.453 97.062C27.6863 96.9967 27.887 96.9033 28.055 96.782C28.223 96.6513 28.3537 96.4973 28.447 96.32C28.5497 96.1333 28.601 95.9233 28.601 95.69V93.002C28.601 92.806 28.5497 92.624 28.447 92.456C28.3537 92.2787 28.223 92.1293 28.055 92.008C27.887 91.8867 27.6863 91.7933 27.453 91.728C27.229 91.6533 26.991 91.616 26.739 91.616C26.1043 91.616 25.605 91.8167 25.241 92.218C24.877 92.61 24.695 93.128 24.695 93.772V95.004C24.695 95.648 24.877 96.1707 25.241 96.572C25.605 96.964 26.1043 97.16 26.739 97.16ZM32.6621 89.082C32.4194 89.082 32.2421 89.026 32.1301 88.914C32.0274 88.7927 31.9761 88.6387 31.9761 88.452V88.27C31.9761 88.0833 32.0274 87.934 32.1301 87.822C32.2421 87.7007 32.4194 87.64 32.6621 87.64C32.9048 87.64 33.0774 87.7007 33.1801 87.822C33.2921 87.934 33.3481 88.0833 33.3481 88.27V88.452C33.3481 88.6387 33.2921 88.7927 33.1801 88.914C33.0774 89.026 32.9048 89.082 32.6621 89.082ZM32.1021 90.776H33.2221V98H32.1021V90.776ZM38.9107 98V90.776H40.0307V91.952H40.0867C40.1707 91.7653 40.264 91.5927 40.3667 91.434C40.4787 91.266 40.6094 91.1213 40.7587 91C40.9174 90.8787 41.0994 90.7853 41.3047 90.72C41.51 90.6453 41.7527 90.608 42.0327 90.608C42.5087 90.608 42.9474 90.7247 43.3487 90.958C43.75 91.182 44.0487 91.5553 44.2447 92.078H44.2727C44.4034 91.686 44.646 91.3453 45.0007 91.056C45.3647 90.7573 45.8547 90.608 46.4707 90.608C47.208 90.608 47.782 90.8507 48.1927 91.336C48.6127 91.812 48.8227 92.4887 48.8227 93.366V98H47.7027V93.562C47.7027 92.918 47.5767 92.4327 47.3247 92.106C47.0727 91.7793 46.6714 91.616 46.1207 91.616C45.8967 91.616 45.682 91.644 45.4767 91.7C45.2807 91.756 45.1034 91.84 44.9447 91.952C44.786 92.064 44.66 92.2087 44.5667 92.386C44.4734 92.554 44.4267 92.7547 44.4267 92.988V98H43.3067V93.562C43.3067 92.918 43.1807 92.4327 42.9287 92.106C42.6767 91.7793 42.2847 91.616 41.7527 91.616C41.5287 91.616 41.314 91.644 41.1087 91.7C40.9034 91.756 40.7214 91.84 40.5627 91.952C40.404 92.064 40.2734 92.2087 40.1707 92.386C40.0774 92.554 40.0307 92.7547 40.0307 92.988V98H38.9107ZM56.3834 98C55.9634 98 55.66 97.888 55.4734 97.664C55.296 97.44 55.184 97.16 55.1374 96.824H55.0674C54.9087 97.272 54.6474 97.608 54.2834 97.832C53.9194 98.056 53.4854 98.168 52.9814 98.168C52.216 98.168 51.6187 97.972 51.1894 97.58C50.7694 97.188 50.5594 96.656 50.5594 95.984C50.5594 95.3027 50.8067 94.78 51.3014 94.416C51.8054 94.052 52.5847 93.87 53.6394 93.87H55.0674V93.156C55.0674 92.6427 54.9274 92.2507 54.6474 91.98C54.3674 91.7093 53.938 91.574 53.3594 91.574C52.9207 91.574 52.552 91.672 52.2534 91.868C51.964 92.064 51.7214 92.3253 51.5254 92.652L50.8534 92.022C51.0494 91.63 51.362 91.2987 51.7914 91.028C52.2207 90.748 52.762 90.608 53.4154 90.608C54.2927 90.608 54.974 90.8227 55.4594 91.252C55.9447 91.6813 56.1874 92.2787 56.1874 93.044V97.02H57.0134V98H56.3834ZM53.1634 97.216C53.4434 97.216 53.7 97.1833 53.9334 97.118C54.1667 97.0527 54.3674 96.9593 54.5354 96.838C54.7034 96.7167 54.834 96.5767 54.9274 96.418C55.0207 96.2593 55.0674 96.0867 55.0674 95.9V94.71H53.5834C52.9394 94.71 52.468 94.8033 52.1694 94.99C51.88 95.1767 51.7354 95.4473 51.7354 95.802V96.096C51.7354 96.4507 51.8614 96.726 52.1134 96.922C52.3747 97.118 52.7247 97.216 53.1634 97.216ZM60.2079 98C59.8159 98 59.5172 97.8927 59.3119 97.678C59.1159 97.454 59.0179 97.1647 59.0179 96.81V91.756H57.8279V90.776H58.4999C58.7425 90.776 58.9059 90.7293 58.9899 90.636C59.0832 90.5333 59.1299 90.3607 59.1299 90.118V88.774H60.1379V90.776H61.7199V91.756H60.1379V97.02H61.6079V98H60.2079ZM64.0801 89.082C63.8374 89.082 63.6601 89.026 63.5481 88.914C63.4454 88.7927 63.3941 88.6387 63.3941 88.452V88.27C63.3941 88.0833 63.4454 87.934 63.5481 87.822C63.6601 87.7007 63.8374 87.64 64.0801 87.64C64.3227 87.64 64.4954 87.7007 64.5981 87.822C64.7101 87.934 64.7661 88.0833 64.7661 88.27V88.452C64.7661 88.6387 64.7101 88.7927 64.5981 88.914C64.4954 89.026 64.3227 89.082 64.0801 89.082ZM63.5201 90.776H64.6401V98H63.5201V90.776ZM67.0201 98V90.776H68.1401V91.952H68.1961C68.3734 91.5413 68.6207 91.2147 68.9381 90.972C69.2647 90.7293 69.6987 90.608 70.2401 90.608C70.9867 90.608 71.5747 90.8507 72.0041 91.336C72.4427 91.812 72.6621 92.4887 72.6621 93.366V98H71.5421V93.562C71.5421 92.2647 70.9961 91.616 69.9041 91.616C69.6801 91.616 69.4607 91.644 69.2461 91.7C69.0407 91.756 68.8541 91.84 68.6861 91.952C68.5181 92.064 68.3827 92.2087 68.2801 92.386C68.1867 92.554 68.1401 92.7547 68.1401 92.988V98H67.0201ZM75.6911 96.362C75.9898 96.362 76.2044 96.4413 76.3351 96.6C76.4751 96.7493 76.5451 96.9453 76.5451 97.188V97.384C76.5451 97.7667 76.4331 98.1867 76.2091 98.644C75.9851 99.1107 75.6724 99.5167 75.2711 99.862H74.3331C74.6131 99.5633 74.8371 99.2787 75.0051 99.008C75.1824 98.7467 75.3084 98.4527 75.3831 98.126C75.1964 98.0793 75.0564 97.9907 74.9631 97.86C74.8791 97.7293 74.8371 97.5707 74.8371 97.384V97.188C74.8371 96.9453 74.9024 96.7493 75.0331 96.6C75.1731 96.4413 75.3924 96.362 75.6911 96.362ZM83.2902 98C82.8982 98 82.5995 97.8927 82.3942 97.678C82.1982 97.454 82.1002 97.174 82.1002 96.838V87.64H83.2202V97.02H84.2842V98H83.2902ZM88.6306 98.168C88.1359 98.168 87.6879 98.0793 87.2866 97.902C86.8946 97.7247 86.5539 97.4727 86.2646 97.146C85.9846 96.81 85.7653 96.4133 85.6066 95.956C85.4573 95.4893 85.3826 94.9667 85.3826 94.388C85.3826 93.8187 85.4573 93.3007 85.6066 92.834C85.7653 92.3673 85.9846 91.9707 86.2646 91.644C86.5539 91.308 86.8946 91.0513 87.2866 90.874C87.6879 90.6967 88.1359 90.608 88.6306 90.608C89.1159 90.608 89.5499 90.6967 89.9326 90.874C90.3153 91.0513 90.6419 91.2987 90.9126 91.616C91.1833 91.924 91.3886 92.2927 91.5286 92.722C91.6779 93.1513 91.7526 93.6227 91.7526 94.136V94.668H86.5586V95.004C86.5586 95.312 86.6053 95.6013 86.6986 95.872C86.8013 96.1333 86.9413 96.362 87.1186 96.558C87.3053 96.754 87.5293 96.908 87.7906 97.02C88.0613 97.132 88.3646 97.188 88.7006 97.188C89.1579 97.188 89.5546 97.0807 89.8906 96.866C90.2359 96.6513 90.5019 96.3433 90.6886 95.942L91.4866 96.516C91.2533 97.0107 90.8893 97.412 90.3946 97.72C89.8999 98.0187 89.3119 98.168 88.6306 98.168ZM88.6306 91.546C88.3226 91.546 88.0426 91.602 87.7906 91.714C87.5386 91.8167 87.3193 91.966 87.1326 92.162C86.9553 92.358 86.8153 92.5913 86.7126 92.862C86.6099 93.1233 86.5586 93.4127 86.5586 93.73V93.828H90.5486V93.674C90.5486 93.03 90.3713 92.5167 90.0166 92.134C89.6713 91.742 89.2093 91.546 88.6306 91.546ZM99.0768 98.168C98.4048 98.168 97.8401 98.042 97.3828 97.79C96.9348 97.5287 96.5475 97.1833 96.2208 96.754L97.0188 96.11C97.2988 96.4647 97.6115 96.74 97.9568 96.936C98.3021 97.1227 98.7035 97.216 99.1608 97.216C99.6368 97.216 100.005 97.1133 100.267 96.908C100.537 96.7027 100.673 96.4133 100.673 96.04C100.673 95.76 100.579 95.522 100.393 95.326C100.215 95.1207 99.8888 94.9807 99.4128 94.906L98.8388 94.822C98.5028 94.7753 98.1948 94.7053 97.9148 94.612C97.6348 94.5093 97.3875 94.3787 97.1728 94.22C96.9675 94.052 96.8041 93.8467 96.6828 93.604C96.5708 93.3613 96.5148 93.072 96.5148 92.736C96.5148 92.3813 96.5801 92.0733 96.7108 91.812C96.8415 91.5413 97.0188 91.3173 97.2428 91.14C97.4761 90.9627 97.7515 90.832 98.0688 90.748C98.3861 90.6547 98.7268 90.608 99.0908 90.608C99.6788 90.608 100.169 90.7107 100.561 90.916C100.962 91.1213 101.312 91.406 101.611 91.77L100.869 92.442C100.71 92.218 100.477 92.0173 100.169 91.84C99.8608 91.6533 99.4735 91.56 99.0068 91.56C98.5401 91.56 98.1855 91.6627 97.9428 91.868C97.7095 92.064 97.5928 92.3347 97.5928 92.68C97.5928 93.0347 97.7095 93.2913 97.9428 93.45C98.1855 93.6087 98.5308 93.7253 98.9788 93.8L99.5388 93.884C100.341 94.0053 100.911 94.2387 101.247 94.584C101.583 94.92 101.751 95.3633 101.751 95.914C101.751 96.614 101.513 97.1647 101.037 97.566C100.561 97.9673 99.9075 98.168 99.0768 98.168ZM106.459 98.168C105.974 98.168 105.53 98.0793 105.129 97.902C104.728 97.7247 104.382 97.4727 104.093 97.146C103.813 96.81 103.594 96.4133 103.435 95.956C103.276 95.4893 103.197 94.9667 103.197 94.388C103.197 93.8187 103.276 93.3007 103.435 92.834C103.594 92.3673 103.813 91.9707 104.093 91.644C104.382 91.308 104.728 91.0513 105.129 90.874C105.53 90.6967 105.974 90.608 106.459 90.608C106.944 90.608 107.383 90.6967 107.775 90.874C108.176 91.0513 108.522 91.308 108.811 91.644C109.1 91.9707 109.324 92.3673 109.483 92.834C109.642 93.3007 109.721 93.8187 109.721 94.388C109.721 94.9667 109.642 95.4893 109.483 95.956C109.324 96.4133 109.1 96.81 108.811 97.146C108.522 97.4727 108.176 97.7247 107.775 97.902C107.383 98.0793 106.944 98.168 106.459 98.168ZM106.459 97.174C107.066 97.174 107.56 96.9873 107.943 96.614C108.326 96.2407 108.517 95.6713 108.517 94.906V93.87C108.517 93.1047 108.326 92.5353 107.943 92.162C107.56 91.7887 107.066 91.602 106.459 91.602C105.852 91.602 105.358 91.7887 104.975 92.162C104.592 92.5353 104.401 93.1047 104.401 93.87V94.906C104.401 95.6713 104.592 96.2407 104.975 96.614C105.358 96.9873 105.852 97.174 106.459 97.174ZM116.015 96.824H115.959C115.884 96.992 115.791 97.16 115.679 97.328C115.576 97.4867 115.446 97.6313 115.287 97.762C115.128 97.8833 114.937 97.9813 114.713 98.056C114.489 98.1307 114.228 98.168 113.929 98.168C113.182 98.168 112.59 97.93 112.151 97.454C111.712 96.9687 111.493 96.2873 111.493 95.41V90.776H112.613V95.214C112.613 96.5113 113.164 97.16 114.265 97.16C114.489 97.16 114.704 97.132 114.909 97.076C115.124 97.02 115.31 96.936 115.469 96.824C115.637 96.712 115.768 96.572 115.861 96.404C115.964 96.2267 116.015 96.0167 116.015 95.774V90.776H117.135V98H116.015V96.824ZM121.69 98.168C121.018 98.168 120.453 98.042 119.996 97.79C119.548 97.5287 119.161 97.1833 118.834 96.754L119.632 96.11C119.912 96.4647 120.225 96.74 120.57 96.936C120.915 97.1227 121.317 97.216 121.774 97.216C122.25 97.216 122.619 97.1133 122.88 96.908C123.151 96.7027 123.286 96.4133 123.286 96.04C123.286 95.76 123.193 95.522 123.006 95.326C122.829 95.1207 122.502 94.9807 122.026 94.906L121.452 94.822C121.116 94.7753 120.808 94.7053 120.528 94.612C120.248 94.5093 120.001 94.3787 119.786 94.22C119.581 94.052 119.417 93.8467 119.296 93.604C119.184 93.3613 119.128 93.072 119.128 92.736C119.128 92.3813 119.193 92.0733 119.324 91.812C119.455 91.5413 119.632 91.3173 119.856 91.14C120.089 90.9627 120.365 90.832 120.682 90.748C120.999 90.6547 121.34 90.608 121.704 90.608C122.292 90.608 122.782 90.7107 123.174 90.916C123.575 91.1213 123.925 91.406 124.224 91.77L123.482 92.442C123.323 92.218 123.09 92.0173 122.782 91.84C122.474 91.6533 122.087 91.56 121.62 91.56C121.153 91.56 120.799 91.6627 120.556 91.868C120.323 92.064 120.206 92.3347 120.206 92.68C120.206 93.0347 120.323 93.2913 120.556 93.45C120.799 93.6087 121.144 93.7253 121.592 93.8L122.152 93.884C122.955 94.0053 123.524 94.2387 123.86 94.584C124.196 94.92 124.364 95.3633 124.364 95.914C124.364 96.614 124.126 97.1647 123.65 97.566C123.174 97.9673 122.521 98.168 121.69 98.168ZM129.651 90.776H130.771V91.952H130.827C131.014 91.4947 131.284 91.1587 131.639 90.944C132.003 90.72 132.437 90.608 132.941 90.608C133.389 90.608 133.795 90.6967 134.159 90.874C134.523 91.0513 134.831 91.3033 135.083 91.63C135.344 91.9567 135.54 92.3533 135.671 92.82C135.811 93.2867 135.881 93.8093 135.881 94.388C135.881 94.9667 135.811 95.4893 135.671 95.956C135.54 96.4227 135.344 96.8193 135.083 97.146C134.831 97.4727 134.523 97.7247 134.159 97.902C133.795 98.0793 133.389 98.168 132.941 98.168C131.961 98.168 131.256 97.72 130.827 96.824H130.771V100.8H129.651V90.776ZM132.633 97.16C133.268 97.16 133.767 96.964 134.131 96.572C134.495 96.1707 134.677 95.648 134.677 95.004V93.772C134.677 93.128 134.495 92.61 134.131 92.218C133.767 91.8167 133.268 91.616 132.633 91.616C132.381 91.616 132.138 91.6533 131.905 91.728C131.681 91.7933 131.485 91.8867 131.317 92.008C131.149 92.1293 131.014 92.2787 130.911 92.456C130.818 92.624 130.771 92.806 130.771 93.002V95.69C130.771 95.9233 130.818 96.1333 130.911 96.32C131.014 96.4973 131.149 96.6513 131.317 96.782C131.485 96.9033 131.681 96.9967 131.905 97.062C132.138 97.1273 132.381 97.16 132.633 97.16ZM137.772 98V90.776H138.892V92.106H138.962C139.093 91.7607 139.326 91.4527 139.662 91.182C139.998 90.9113 140.46 90.776 141.048 90.776H141.482V91.896H140.824C140.217 91.896 139.741 92.0127 139.396 92.246C139.06 92.47 138.892 92.7547 138.892 93.1V98H137.772ZM145.56 98.168C145.066 98.168 144.618 98.0793 144.216 97.902C143.824 97.7247 143.484 97.4727 143.194 97.146C142.914 96.81 142.695 96.4133 142.536 95.956C142.387 95.4893 142.312 94.9667 142.312 94.388C142.312 93.8187 142.387 93.3007 142.536 92.834C142.695 92.3673 142.914 91.9707 143.194 91.644C143.484 91.308 143.824 91.0513 144.216 90.874C144.618 90.6967 145.066 90.608 145.56 90.608C146.046 90.608 146.48 90.6967 146.862 90.874C147.245 91.0513 147.572 91.2987 147.842 91.616C148.113 91.924 148.318 92.2927 148.458 92.722C148.608 93.1513 148.682 93.6227 148.682 94.136V94.668H143.488V95.004C143.488 95.312 143.535 95.6013 143.628 95.872C143.731 96.1333 143.871 96.362 144.048 96.558C144.235 96.754 144.459 96.908 144.72 97.02C144.991 97.132 145.294 97.188 145.63 97.188C146.088 97.188 146.484 97.0807 146.82 96.866C147.166 96.6513 147.432 96.3433 147.618 95.942L148.416 96.516C148.183 97.0107 147.819 97.412 147.324 97.72C146.83 98.0187 146.242 98.168 145.56 98.168ZM145.56 91.546C145.252 91.546 144.972 91.602 144.72 91.714C144.468 91.8167 144.249 91.966 144.062 92.162C143.885 92.358 143.745 92.5913 143.642 92.862C143.54 93.1233 143.488 93.4127 143.488 93.73V93.828H147.478V93.674C147.478 93.03 147.301 92.5167 146.946 92.134C146.601 91.742 146.139 91.546 145.56 91.546ZM150.92 91.756H149.744V90.776H150.92V89.32C150.92 88.816 151.051 88.41 151.312 88.102C151.573 87.794 151.97 87.64 152.502 87.64H153.594V88.62H152.04V90.776H153.594V91.756H152.04V98H150.92V91.756ZM157.728 98.168C157.234 98.168 156.786 98.0793 156.384 97.902C155.992 97.7247 155.652 97.4727 155.362 97.146C155.082 96.81 154.863 96.4133 154.704 95.956C154.555 95.4893 154.48 94.9667 154.48 94.388C154.48 93.8187 154.555 93.3007 154.704 92.834C154.863 92.3673 155.082 91.9707 155.362 91.644C155.652 91.308 155.992 91.0513 156.384 90.874C156.786 90.6967 157.234 90.608 157.728 90.608C158.214 90.608 158.648 90.6967 159.03 90.874C159.413 91.0513 159.74 91.2987 160.01 91.616C160.281 91.924 160.486 92.2927 160.626 92.722C160.776 93.1513 160.85 93.6227 160.85 94.136V94.668H155.656V95.004C155.656 95.312 155.703 95.6013 155.796 95.872C155.899 96.1333 156.039 96.362 156.216 96.558C156.403 96.754 156.627 96.908 156.888 97.02C157.159 97.132 157.462 97.188 157.798 97.188C158.256 97.188 158.652 97.0807 158.988 96.866C159.334 96.6513 159.6 96.3433 159.786 95.942L160.584 96.516C160.351 97.0107 159.987 97.412 159.492 97.72C158.998 98.0187 158.41 98.168 157.728 98.168ZM157.728 91.546C157.42 91.546 157.14 91.602 156.888 91.714C156.636 91.8167 156.417 91.966 156.23 92.162C156.053 92.358 155.913 92.5913 155.81 92.862C155.708 93.1233 155.656 93.4127 155.656 93.73V93.828H159.646V93.674C159.646 93.03 159.469 92.5167 159.114 92.134C158.769 91.742 158.307 91.546 157.728 91.546ZM164.292 98C163.9 98 163.601 97.8927 163.396 97.678C163.2 97.454 163.102 97.1647 163.102 96.81V91.756H161.912V90.776H162.584C162.827 90.776 162.99 90.7293 163.074 90.636C163.167 90.5333 163.214 90.3607 163.214 90.118V88.774H164.222V90.776H165.804V91.756H164.222V97.02H165.692V98H164.292ZM175.533 96.824H175.477C175.038 97.72 174.333 98.168 173.363 98.168C172.915 98.168 172.509 98.0793 172.145 97.902C171.781 97.7247 171.468 97.4727 171.207 97.146C170.955 96.8193 170.759 96.4227 170.619 95.956C170.488 95.4893 170.423 94.9667 170.423 94.388C170.423 93.8093 170.488 93.2867 170.619 92.82C170.759 92.3533 170.955 91.9567 171.207 91.63C171.468 91.3033 171.781 91.0513 172.145 90.874C172.509 90.6967 172.915 90.608 173.363 90.608C173.867 90.608 174.296 90.72 174.651 90.944C175.015 91.1587 175.29 91.4947 175.477 91.952H175.533V87.64H176.653V98H175.533V96.824ZM173.671 97.16C173.923 97.16 174.161 97.1273 174.385 97.062C174.618 96.9967 174.819 96.9033 174.987 96.782C175.155 96.6513 175.285 96.4973 175.379 96.32C175.481 96.1333 175.533 95.9233 175.533 95.69V93.002C175.533 92.806 175.481 92.624 175.379 92.456C175.285 92.2787 175.155 92.1293 174.987 92.008C174.819 91.8867 174.618 91.7933 174.385 91.728C174.161 91.6533 173.923 91.616 173.671 91.616C173.036 91.616 172.537 91.8167 172.173 92.218C171.809 92.61 171.627 93.128 171.627 93.772V95.004C171.627 95.648 171.809 96.1707 172.173 96.572C172.537 96.964 173.036 97.16 173.671 97.16ZM183.486 96.824H183.43C183.355 96.992 183.262 97.16 183.15 97.328C183.047 97.4867 182.916 97.6313 182.758 97.762C182.599 97.8833 182.408 97.9813 182.184 98.056C181.96 98.1307 181.698 98.168 181.4 98.168C180.653 98.168 180.06 97.93 179.622 97.454C179.183 96.9687 178.964 96.2873 178.964 95.41V90.776H180.084V95.214C180.084 96.5113 180.634 97.16 181.736 97.16C181.96 97.16 182.174 97.132 182.38 97.076C182.594 97.02 182.781 96.936 182.94 96.824C183.108 96.712 183.238 96.572 183.332 96.404C183.434 96.2267 183.486 96.0167 183.486 95.774V90.776H184.606V98H183.486V96.824ZM1.19 116V108.776H2.31V109.952H2.366C2.54333 109.541 2.79067 109.215 3.108 108.972C3.43467 108.729 3.86867 108.608 4.41 108.608C5.15667 108.608 5.74467 108.851 6.174 109.336C6.61267 109.812 6.832 110.489 6.832 111.366V116H5.712V111.562C5.712 110.265 5.166 109.616 4.074 109.616C3.85 109.616 3.63067 109.644 3.416 109.7C3.21067 109.756 3.024 109.84 2.856 109.952C2.688 110.064 2.55267 110.209 2.45 110.386C2.35667 110.554 2.31 110.755 2.31 110.988V116H1.19ZM13.4897 108.776H14.5957L11.3617 117.68C11.2777 117.895 11.1937 118.072 11.1097 118.212C11.0257 118.361 10.923 118.478 10.8017 118.562C10.6803 118.646 10.5263 118.707 10.3397 118.744C10.1623 118.781 9.94299 118.8 9.68166 118.8H9.10766V117.82H10.2417L10.7877 116.28L8.08566 108.776H9.20566L10.9417 113.69L11.2777 114.866H11.3477L11.7397 113.69L13.4897 108.776ZM18.6856 116.168C18.2003 116.168 17.757 116.079 17.3556 115.902C16.9543 115.725 16.609 115.473 16.3196 115.146C16.0396 114.81 15.8203 114.413 15.6616 113.956C15.503 113.489 15.4236 112.967 15.4236 112.388C15.4236 111.819 15.503 111.301 15.6616 110.834C15.8203 110.367 16.0396 109.971 16.3196 109.644C16.609 109.308 16.9543 109.051 17.3556 108.874C17.757 108.697 18.2003 108.608 18.6856 108.608C19.171 108.608 19.6096 108.697 20.0016 108.874C20.403 109.051 20.7483 109.308 21.0376 109.644C21.327 109.971 21.551 110.367 21.7096 110.834C21.8683 111.301 21.9476 111.819 21.9476 112.388C21.9476 112.967 21.8683 113.489 21.7096 113.956C21.551 114.413 21.327 114.81 21.0376 115.146C20.7483 115.473 20.403 115.725 20.0016 115.902C19.6096 116.079 19.171 116.168 18.6856 116.168ZM18.6856 115.174C19.2923 115.174 19.787 114.987 20.1696 114.614C20.5523 114.241 20.7436 113.671 20.7436 112.906V111.87C20.7436 111.105 20.5523 110.535 20.1696 110.162C19.787 109.789 19.2923 109.602 18.6856 109.602C18.079 109.602 17.5843 109.789 17.2016 110.162C16.819 110.535 16.6276 111.105 16.6276 111.87V112.906C16.6276 113.671 16.819 114.241 17.2016 114.614C17.5843 114.987 18.079 115.174 18.6856 115.174ZM23.7896 116V108.776H24.9096V109.952H24.9656C25.1429 109.541 25.3903 109.215 25.7076 108.972C26.0343 108.729 26.4683 108.608 27.0096 108.608C27.7563 108.608 28.3443 108.851 28.7736 109.336C29.2123 109.812 29.4316 110.489 29.4316 111.366V116H28.3116V111.562C28.3116 110.265 27.7656 109.616 26.6736 109.616C26.4496 109.616 26.2303 109.644 26.0156 109.7C25.8103 109.756 25.6236 109.84 25.4556 109.952C25.2876 110.064 25.1523 110.209 25.0496 110.386C24.9563 110.554 24.9096 110.755 24.9096 110.988V116H23.7896ZM31.5226 112.346V111.142H35.1766V112.346H31.5226ZM40.1912 116.168C39.6965 116.168 39.2485 116.079 38.8472 115.902C38.4552 115.725 38.1145 115.473 37.8252 115.146C37.5452 114.81 37.3258 114.413 37.1672 113.956C37.0178 113.489 36.9432 112.967 36.9432 112.388C36.9432 111.819 37.0178 111.301 37.1672 110.834C37.3258 110.367 37.5452 109.971 37.8252 109.644C38.1145 109.308 38.4552 109.051 38.8472 108.874C39.2485 108.697 39.6965 108.608 40.1912 108.608C40.6765 108.608 41.1105 108.697 41.4932 108.874C41.8758 109.051 42.2025 109.299 42.4732 109.616C42.7438 109.924 42.9492 110.293 43.0892 110.722C43.2385 111.151 43.3132 111.623 43.3132 112.136V112.668H38.1192V113.004C38.1192 113.312 38.1658 113.601 38.2592 113.872C38.3618 114.133 38.5018 114.362 38.6792 114.558C38.8658 114.754 39.0898 114.908 39.3512 115.02C39.6218 115.132 39.9252 115.188 40.2612 115.188C40.7185 115.188 41.1152 115.081 41.4512 114.866C41.7965 114.651 42.0625 114.343 42.2492 113.942L43.0472 114.516C42.8138 115.011 42.4498 115.412 41.9552 115.72C41.4605 116.019 40.8725 116.168 40.1912 116.168ZM40.1912 109.546C39.8832 109.546 39.6032 109.602 39.3512 109.714C39.0992 109.817 38.8798 109.966 38.6932 110.162C38.5158 110.358 38.3758 110.591 38.2732 110.862C38.1705 111.123 38.1192 111.413 38.1192 111.73V111.828H42.1092V111.674C42.1092 111.03 41.9318 110.517 41.5772 110.134C41.2318 109.742 40.7698 109.546 40.1912 109.546ZM45.1588 105.64H46.2788V112.206H46.3348L47.4408 110.974L49.4848 108.776H50.8428L48.1688 111.632L51.1088 116H49.7508L47.3568 112.318L46.2788 113.424V116H45.1588V105.64ZM55.0251 116.168C54.5305 116.168 54.0825 116.079 53.6811 115.902C53.2891 115.725 52.9485 115.473 52.6591 115.146C52.3791 114.81 52.1598 114.413 52.0011 113.956C51.8518 113.489 51.7771 112.967 51.7771 112.388C51.7771 111.819 51.8518 111.301 52.0011 110.834C52.1598 110.367 52.3791 109.971 52.6591 109.644C52.9485 109.308 53.2891 109.051 53.6811 108.874C54.0825 108.697 54.5305 108.608 55.0251 108.608C55.5105 108.608 55.9445 108.697 56.3271 108.874C56.7098 109.051 57.0365 109.299 57.3071 109.616C57.5778 109.924 57.7831 110.293 57.9231 110.722C58.0725 111.151 58.1471 111.623 58.1471 112.136V112.668H52.9531V113.004C52.9531 113.312 52.9998 113.601 53.0931 113.872C53.1958 114.133 53.3358 114.362 53.5131 114.558C53.6998 114.754 53.9238 114.908 54.1851 115.02C54.4558 115.132 54.7591 115.188 55.0951 115.188C55.5525 115.188 55.9491 115.081 56.2851 114.866C56.6305 114.651 56.8965 114.343 57.0831 113.942L57.8811 114.516C57.6478 115.011 57.2838 115.412 56.7891 115.72C56.2945 116.019 55.7065 116.168 55.0251 116.168ZM55.0251 109.546C54.7171 109.546 54.4371 109.602 54.1851 109.714C53.9331 109.817 53.7138 109.966 53.5271 110.162C53.3498 110.358 53.2098 110.591 53.1071 110.862C53.0045 111.123 52.9531 111.413 52.9531 111.73V111.828H56.9431V111.674C56.9431 111.03 56.7658 110.517 56.4111 110.134C56.0658 109.742 55.6038 109.546 55.0251 109.546ZM61.1827 116C60.7907 116 60.4921 115.893 60.2867 115.678C60.0907 115.454 59.9927 115.174 59.9927 114.838V105.64H61.1127V115.02H62.1767V116H61.1827ZM66.5232 116.168C66.0285 116.168 65.5805 116.079 65.1792 115.902C64.7872 115.725 64.4465 115.473 64.1572 115.146C63.8772 114.81 63.6579 114.413 63.4992 113.956C63.3499 113.489 63.2752 112.967 63.2752 112.388C63.2752 111.819 63.3499 111.301 63.4992 110.834C63.6579 110.367 63.8772 109.971 64.1572 109.644C64.4465 109.308 64.7872 109.051 65.1792 108.874C65.5805 108.697 66.0285 108.608 66.5232 108.608C67.0085 108.608 67.4425 108.697 67.8252 108.874C68.2079 109.051 68.5345 109.299 68.8052 109.616C69.0759 109.924 69.2812 110.293 69.4212 110.722C69.5705 111.151 69.6452 111.623 69.6452 112.136V112.668H64.4512V113.004C64.4512 113.312 64.4979 113.601 64.5912 113.872C64.6939 114.133 64.8339 114.362 65.0112 114.558C65.1979 114.754 65.4219 114.908 65.6832 115.02C65.9539 115.132 66.2572 115.188 66.5932 115.188C67.0505 115.188 67.4472 115.081 67.7832 114.866C68.1285 114.651 68.3945 114.343 68.5812 113.942L69.3792 114.516C69.1459 115.011 68.7819 115.412 68.2872 115.72C67.7925 116.019 67.2045 116.168 66.5232 116.168ZM66.5232 109.546C66.2152 109.546 65.9352 109.602 65.6832 109.714C65.4312 109.817 65.2119 109.966 65.0252 110.162C64.8479 110.358 64.7079 110.591 64.6052 110.862C64.5025 111.123 64.4512 111.413 64.4512 111.73V111.828H68.4412V111.674C68.4412 111.03 68.2639 110.517 67.9092 110.134C67.5639 109.742 67.1019 109.546 66.5232 109.546ZM77.5154 116.168C77.0207 116.168 76.5727 116.079 76.1714 115.902C75.7794 115.725 75.4387 115.473 75.1494 115.146C74.8694 114.81 74.65 114.413 74.4914 113.956C74.342 113.489 74.2674 112.967 74.2674 112.388C74.2674 111.819 74.342 111.301 74.4914 110.834C74.65 110.367 74.8694 109.971 75.1494 109.644C75.4387 109.308 75.7794 109.051 76.1714 108.874C76.5727 108.697 77.0207 108.608 77.5154 108.608C78.0007 108.608 78.4347 108.697 78.8174 108.874C79.2 109.051 79.5267 109.299 79.7974 109.616C80.068 109.924 80.2734 110.293 80.4134 110.722C80.5627 111.151 80.6374 111.623 80.6374 112.136V112.668H75.4434V113.004C75.4434 113.312 75.49 113.601 75.5834 113.872C75.686 114.133 75.826 114.362 76.0034 114.558C76.19 114.754 76.414 114.908 76.6754 115.02C76.946 115.132 77.2494 115.188 77.5854 115.188C78.0427 115.188 78.4394 115.081 78.7754 114.866C79.1207 114.651 79.3867 114.343 79.5734 113.942L80.3714 114.516C80.138 115.011 79.774 115.412 79.2794 115.72C78.7847 116.019 78.1967 116.168 77.5154 116.168ZM77.5154 109.546C77.2074 109.546 76.9274 109.602 76.6754 109.714C76.4234 109.817 76.204 109.966 76.0174 110.162C75.84 110.358 75.7 110.591 75.5974 110.862C75.4947 111.123 75.4434 111.413 75.4434 111.73V111.828H79.4334V111.674C79.4334 111.03 79.256 110.517 78.9014 110.134C78.556 109.742 78.094 109.546 77.5154 109.546ZM84.653 116.168C83.981 116.168 83.4163 116.042 82.959 115.79C82.511 115.529 82.1236 115.183 81.797 114.754L82.595 114.11C82.875 114.465 83.1876 114.74 83.533 114.936C83.8783 115.123 84.2796 115.216 84.737 115.216C85.213 115.216 85.5816 115.113 85.843 114.908C86.1136 114.703 86.249 114.413 86.249 114.04C86.249 113.76 86.1556 113.522 85.969 113.326C85.7916 113.121 85.465 112.981 84.989 112.906L84.415 112.822C84.079 112.775 83.771 112.705 83.491 112.612C83.211 112.509 82.9636 112.379 82.749 112.22C82.5436 112.052 82.3803 111.847 82.259 111.604C82.147 111.361 82.091 111.072 82.091 110.736C82.091 110.381 82.1563 110.073 82.287 109.812C82.4176 109.541 82.595 109.317 82.819 109.14C83.0523 108.963 83.3276 108.832 83.645 108.748C83.9623 108.655 84.303 108.608 84.667 108.608C85.255 108.608 85.745 108.711 86.137 108.916C86.5383 109.121 86.8883 109.406 87.187 109.77L86.445 110.442C86.2863 110.218 86.053 110.017 85.745 109.84C85.437 109.653 85.0496 109.56 84.583 109.56C84.1163 109.56 83.7616 109.663 83.519 109.868C83.2856 110.064 83.169 110.335 83.169 110.68C83.169 111.035 83.2856 111.291 83.519 111.45C83.7616 111.609 84.107 111.725 84.555 111.8L85.115 111.884C85.9176 112.005 86.487 112.239 86.823 112.584C87.159 112.92 87.327 113.363 87.327 113.914C87.327 114.614 87.089 115.165 86.613 115.566C86.137 115.967 85.4836 116.168 84.653 116.168ZM90.8055 116C90.4135 116 90.1149 115.893 89.9095 115.678C89.7135 115.454 89.6155 115.165 89.6155 114.81V109.756H88.4255V108.776H89.0975C89.3402 108.776 89.5035 108.729 89.5875 108.636C89.6809 108.533 89.7275 108.361 89.7275 108.118V106.774H90.7355V108.776H92.3175V109.756H90.7355V115.02H92.2055V116H90.8055ZM97.4263 108.776H98.5463V109.952H98.6023C98.789 109.495 99.0597 109.159 99.4143 108.944C99.7783 108.72 100.212 108.608 100.716 108.608C101.164 108.608 101.57 108.697 101.934 108.874C102.298 109.051 102.606 109.303 102.858 109.63C103.12 109.957 103.316 110.353 103.446 110.82C103.586 111.287 103.656 111.809 103.656 112.388C103.656 112.967 103.586 113.489 103.446 113.956C103.316 114.423 103.12 114.819 102.858 115.146C102.606 115.473 102.298 115.725 101.934 115.902C101.57 116.079 101.164 116.168 100.716 116.168C99.7363 116.168 99.0317 115.72 98.6023 114.824H98.5463V118.8H97.4263V108.776ZM100.408 115.16C101.043 115.16 101.542 114.964 101.906 114.572C102.27 114.171 102.452 113.648 102.452 113.004V111.772C102.452 111.128 102.27 110.61 101.906 110.218C101.542 109.817 101.043 109.616 100.408 109.616C100.156 109.616 99.9137 109.653 99.6803 109.728C99.4563 109.793 99.2603 109.887 99.0923 110.008C98.9243 110.129 98.789 110.279 98.6863 110.456C98.593 110.624 98.5463 110.806 98.5463 111.002V113.69C98.5463 113.923 98.593 114.133 98.6863 114.32C98.789 114.497 98.9243 114.651 99.0923 114.782C99.2603 114.903 99.4563 114.997 99.6803 115.062C99.9137 115.127 100.156 115.16 100.408 115.16ZM110.797 116C110.377 116 110.074 115.888 109.887 115.664C109.71 115.44 109.598 115.16 109.551 114.824H109.481C109.323 115.272 109.061 115.608 108.697 115.832C108.333 116.056 107.899 116.168 107.395 116.168C106.63 116.168 106.033 115.972 105.603 115.58C105.183 115.188 104.973 114.656 104.973 113.984C104.973 113.303 105.221 112.78 105.715 112.416C106.219 112.052 106.999 111.87 108.053 111.87H109.481V111.156C109.481 110.643 109.341 110.251 109.061 109.98C108.781 109.709 108.352 109.574 107.773 109.574C107.335 109.574 106.966 109.672 106.667 109.868C106.378 110.064 106.135 110.325 105.939 110.652L105.267 110.022C105.463 109.63 105.776 109.299 106.205 109.028C106.635 108.748 107.176 108.608 107.829 108.608C108.707 108.608 109.388 108.823 109.873 109.252C110.359 109.681 110.601 110.279 110.601 111.044V115.02H111.427V116H110.797ZM107.577 115.216C107.857 115.216 108.114 115.183 108.347 115.118C108.581 115.053 108.781 114.959 108.949 114.838C109.117 114.717 109.248 114.577 109.341 114.418C109.435 114.259 109.481 114.087 109.481 113.9V112.71H107.997C107.353 112.71 106.882 112.803 106.583 112.99C106.294 113.177 106.149 113.447 106.149 113.802V114.096C106.149 114.451 106.275 114.726 106.527 114.922C106.789 115.118 107.139 115.216 107.577 115.216ZM113.026 116V108.776H114.146V110.106H114.216C114.347 109.761 114.58 109.453 114.916 109.182C115.252 108.911 115.714 108.776 116.302 108.776H116.736V109.896H116.078C115.471 109.896 114.995 110.013 114.65 110.246C114.314 110.47 114.146 110.755 114.146 111.1V116H113.026ZM119.817 116C119.425 116 119.127 115.893 118.921 115.678C118.725 115.454 118.627 115.165 118.627 114.81V109.756H117.437V108.776H118.109C118.352 108.776 118.515 108.729 118.599 108.636C118.693 108.533 118.739 108.361 118.739 108.118V106.774H119.747V108.776H121.329V109.756H119.747V115.02H121.217V116H119.817ZM123.689 107.082C123.447 107.082 123.269 107.026 123.157 106.914C123.055 106.793 123.003 106.639 123.003 106.452V106.27C123.003 106.083 123.055 105.934 123.157 105.822C123.269 105.701 123.447 105.64 123.689 105.64C123.932 105.64 124.105 105.701 124.207 105.822C124.319 105.934 124.375 106.083 124.375 106.27V106.452C124.375 106.639 124.319 106.793 124.207 106.914C124.105 107.026 123.932 107.082 123.689 107.082ZM123.129 108.776H124.249V116H123.129V108.776ZM129.345 116.168C128.851 116.168 128.403 116.079 128.001 115.902C127.609 115.725 127.269 115.473 126.979 115.146C126.699 114.81 126.48 114.413 126.321 113.956C126.172 113.489 126.097 112.967 126.097 112.388C126.097 111.819 126.172 111.301 126.321 110.834C126.48 110.367 126.699 109.971 126.979 109.644C127.269 109.308 127.609 109.051 128.001 108.874C128.403 108.697 128.851 108.608 129.345 108.608C129.831 108.608 130.265 108.697 130.647 108.874C131.03 109.051 131.357 109.299 131.627 109.616C131.898 109.924 132.103 110.293 132.243 110.722C132.393 111.151 132.467 111.623 132.467 112.136V112.668H127.273V113.004C127.273 113.312 127.32 113.601 127.413 113.872C127.516 114.133 127.656 114.362 127.833 114.558C128.02 114.754 128.244 114.908 128.505 115.02C128.776 115.132 129.079 115.188 129.415 115.188C129.873 115.188 130.269 115.081 130.605 114.866C130.951 114.651 131.217 114.343 131.403 113.942L132.201 114.516C131.968 115.011 131.604 115.412 131.109 115.72C130.615 116.019 130.027 116.168 129.345 116.168ZM129.345 109.546C129.037 109.546 128.757 109.602 128.505 109.714C128.253 109.817 128.034 109.966 127.847 110.162C127.67 110.358 127.53 110.591 127.427 110.862C127.325 111.123 127.273 111.413 127.273 111.73V111.828H131.263V111.674C131.263 111.03 131.086 110.517 130.731 110.134C130.386 109.742 129.924 109.546 129.345 109.546ZM140.338 116.168C139.843 116.168 139.395 116.079 138.994 115.902C138.602 115.725 138.261 115.473 137.972 115.146C137.692 114.81 137.472 114.413 137.314 113.956C137.164 113.489 137.09 112.967 137.09 112.388C137.09 111.819 137.164 111.301 137.314 110.834C137.472 110.367 137.692 109.971 137.972 109.644C138.261 109.308 138.602 109.051 138.994 108.874C139.395 108.697 139.843 108.608 140.338 108.608C140.823 108.608 141.257 108.697 141.64 108.874C142.022 109.051 142.349 109.299 142.62 109.616C142.89 109.924 143.096 110.293 143.236 110.722C143.385 111.151 143.46 111.623 143.46 112.136V112.668H138.266V113.004C138.266 113.312 138.312 113.601 138.406 113.872C138.508 114.133 138.648 114.362 138.826 114.558C139.012 114.754 139.236 114.908 139.498 115.02C139.768 115.132 140.072 115.188 140.408 115.188C140.865 115.188 141.262 115.081 141.598 114.866C141.943 114.651 142.209 114.343 142.396 113.942L143.194 114.516C142.96 115.011 142.596 115.412 142.102 115.72C141.607 116.019 141.019 116.168 140.338 116.168ZM140.338 109.546C140.03 109.546 139.75 109.602 139.498 109.714C139.246 109.817 139.026 109.966 138.84 110.162C138.662 110.358 138.522 110.591 138.42 110.862C138.317 111.123 138.266 111.413 138.266 111.73V111.828H142.256V111.674C142.256 111.03 142.078 110.517 141.724 110.134C141.378 109.742 140.916 109.546 140.338 109.546ZM145.305 116V108.776H146.425V109.952H146.481C146.659 109.541 146.906 109.215 147.223 108.972C147.55 108.729 147.984 108.608 148.525 108.608C149.272 108.608 149.86 108.851 150.289 109.336C150.728 109.812 150.947 110.489 150.947 111.366V116H149.827V111.562C149.827 110.265 149.281 109.616 148.189 109.616C147.965 109.616 147.746 109.644 147.531 109.7C147.326 109.756 147.139 109.84 146.971 109.952C146.803 110.064 146.668 110.209 146.565 110.386C146.472 110.554 146.425 110.755 146.425 110.988V116H145.305ZM158.167 116L155.633 108.776H156.753L158.013 112.36L158.797 114.824H158.867L159.651 112.36L160.939 108.776H162.017L159.469 116H158.167ZM164.021 107.082C163.779 107.082 163.601 107.026 163.489 106.914C163.387 106.793 163.335 106.639 163.335 106.452V106.27C163.335 106.083 163.387 105.934 163.489 105.822C163.601 105.701 163.779 105.64 164.021 105.64C164.264 105.64 164.437 105.701 164.539 105.822C164.651 105.934 164.707 106.083 164.707 106.27V106.452C164.707 106.639 164.651 106.793 164.539 106.914C164.437 107.026 164.264 107.082 164.021 107.082ZM163.461 108.776H164.581V116H163.461V108.776ZM169.131 116.168C168.459 116.168 167.895 116.042 167.437 115.79C166.989 115.529 166.602 115.183 166.275 114.754L167.073 114.11C167.353 114.465 167.666 114.74 168.011 114.936C168.357 115.123 168.758 115.216 169.215 115.216C169.691 115.216 170.06 115.113 170.321 114.908C170.592 114.703 170.727 114.413 170.727 114.04C170.727 113.76 170.634 113.522 170.447 113.326C170.27 113.121 169.943 112.981 169.467 112.906L168.893 112.822C168.557 112.775 168.249 112.705 167.969 112.612C167.689 112.509 167.442 112.379 167.227 112.22C167.022 112.052 166.859 111.847 166.737 111.604C166.625 111.361 166.569 111.072 166.569 110.736C166.569 110.381 166.635 110.073 166.765 109.812C166.896 109.541 167.073 109.317 167.297 109.14C167.531 108.963 167.806 108.832 168.123 108.748C168.441 108.655 168.781 108.608 169.145 108.608C169.733 108.608 170.223 108.711 170.615 108.916C171.017 109.121 171.367 109.406 171.665 109.77L170.923 110.442C170.765 110.218 170.531 110.017 170.223 109.84C169.915 109.653 169.528 109.56 169.061 109.56C168.595 109.56 168.24 109.663 167.997 109.868C167.764 110.064 167.647 110.335 167.647 110.68C167.647 111.035 167.764 111.291 167.997 111.45C168.24 111.609 168.585 111.725 169.033 111.8L169.593 111.884C170.396 112.005 170.965 112.239 171.301 112.584C171.637 112.92 171.805 113.363 171.805 113.914C171.805 114.614 171.567 115.165 171.091 115.566C170.615 115.967 169.962 116.168 169.131 116.168ZM174.344 107.082C174.101 107.082 173.924 107.026 173.812 106.914C173.709 106.793 173.658 106.639 173.658 106.452V106.27C173.658 106.083 173.709 105.934 173.812 105.822C173.924 105.701 174.101 105.64 174.344 105.64C174.586 105.64 174.759 105.701 174.862 105.822C174.974 105.934 175.03 106.083 175.03 106.27V106.452C175.03 106.639 174.974 106.793 174.862 106.914C174.759 107.026 174.586 107.082 174.344 107.082ZM173.784 108.776H174.904V116H173.784V108.776ZM178.88 116C178.488 116 178.189 115.893 177.984 115.678C177.788 115.454 177.69 115.165 177.69 114.81V109.756H176.5V108.776H177.172C177.414 108.776 177.578 108.729 177.662 108.636C177.755 108.533 177.802 108.361 177.802 108.118V106.774H178.81V108.776H180.392V109.756H178.81V115.02H180.28V116H178.88ZM184.853 116.168C184.359 116.168 183.911 116.079 183.509 115.902C183.117 115.725 182.777 115.473 182.487 115.146C182.207 114.81 181.988 114.413 181.829 113.956C181.68 113.489 181.605 112.967 181.605 112.388C181.605 111.819 181.68 111.301 181.829 110.834C181.988 110.367 182.207 109.971 182.487 109.644C182.777 109.308 183.117 109.051 183.509 108.874C183.911 108.697 184.359 108.608 184.853 108.608C185.339 108.608 185.773 108.697 186.155 108.874C186.538 109.051 186.865 109.299 187.135 109.616C187.406 109.924 187.611 110.293 187.751 110.722C187.901 111.151 187.975 111.623 187.975 112.136V112.668H182.781V113.004C182.781 113.312 182.828 113.601 182.921 113.872C183.024 114.133 183.164 114.362 183.341 114.558C183.528 114.754 183.752 114.908 184.013 115.02C184.284 115.132 184.587 115.188 184.923 115.188C185.381 115.188 185.777 115.081 186.113 114.866C186.459 114.651 186.725 114.343 186.911 113.942L187.709 114.516C187.476 115.011 187.112 115.412 186.617 115.72C186.123 116.019 185.535 116.168 184.853 116.168ZM184.853 109.546C184.545 109.546 184.265 109.602 184.013 109.714C183.761 109.817 183.542 109.966 183.355 110.162C183.178 110.358 183.038 110.591 182.935 110.862C182.833 111.123 182.781 111.413 182.781 111.73V111.828H186.771V111.674C186.771 111.03 186.594 110.517 186.239 110.134C185.894 109.742 185.432 109.546 184.853 109.546ZM5.81 132.824H5.754C5.31533 133.72 4.61067 134.168 3.64 134.168C3.192 134.168 2.786 134.079 2.422 133.902C2.058 133.725 1.74533 133.473 1.484 133.146C1.232 132.819 1.036 132.423 0.896 131.956C0.765333 131.489 0.7 130.967 0.7 130.388C0.7 129.809 0.765333 129.287 0.896 128.82C1.036 128.353 1.232 127.957 1.484 127.63C1.74533 127.303 2.058 127.051 2.422 126.874C2.786 126.697 3.192 126.608 3.64 126.608C4.144 126.608 4.57333 126.72 4.928 126.944C5.292 127.159 5.56733 127.495 5.754 127.952H5.81V123.64H6.93V134H5.81V132.824ZM3.948 133.16C4.2 133.16 4.438 133.127 4.662 133.062C4.89533 132.997 5.096 132.903 5.264 132.782C5.432 132.651 5.56267 132.497 5.656 132.32C5.75867 132.133 5.81 131.923 5.81 131.69V129.002C5.81 128.806 5.75867 128.624 5.656 128.456C5.56267 128.279 5.432 128.129 5.264 128.008C5.096 127.887 4.89533 127.793 4.662 127.728C4.438 127.653 4.2 127.616 3.948 127.616C3.31333 127.616 2.814 127.817 2.45 128.218C2.086 128.61 1.904 129.128 1.904 129.772V131.004C1.904 131.648 2.086 132.171 2.45 132.572C2.814 132.964 3.31333 133.16 3.948 133.16ZM14.5611 134C14.1411 134 13.8378 133.888 13.6511 133.664C13.4738 133.44 13.3618 133.16 13.3151 132.824H13.2451C13.0864 133.272 12.8251 133.608 12.4611 133.832C12.0971 134.056 11.6631 134.168 11.1591 134.168C10.3938 134.168 9.79643 133.972 9.36709 133.58C8.94709 133.188 8.73709 132.656 8.73709 131.984C8.73709 131.303 8.98443 130.78 9.47909 130.416C9.98309 130.052 10.7624 129.87 11.8171 129.87H13.2451V129.156C13.2451 128.643 13.1051 128.251 12.8251 127.98C12.5451 127.709 12.1158 127.574 11.5371 127.574C11.0984 127.574 10.7298 127.672 10.4311 127.868C10.1418 128.064 9.89909 128.325 9.70309 128.652L9.03109 128.022C9.22709 127.63 9.53976 127.299 9.96909 127.028C10.3984 126.748 10.9398 126.608 11.5931 126.608C12.4704 126.608 13.1518 126.823 13.6371 127.252C14.1224 127.681 14.3651 128.279 14.3651 129.044V133.02H15.1911V134H14.5611ZM11.3411 133.216C11.6211 133.216 11.8778 133.183 12.1111 133.118C12.3444 133.053 12.5451 132.959 12.7131 132.838C12.8811 132.717 13.0118 132.577 13.1051 132.418C13.1984 132.259 13.2451 132.087 13.2451 131.9V130.71H11.7611C11.1171 130.71 10.6458 130.803 10.3471 130.99C10.0578 131.177 9.91309 131.447 9.91309 131.802V132.096C9.91309 132.451 10.0391 132.726 10.2911 132.922C10.5524 133.118 10.9024 133.216 11.3411 133.216ZM16.7896 134V126.776H17.9096V127.952H17.9656C18.1429 127.541 18.3903 127.215 18.7076 126.972C19.0343 126.729 19.4683 126.608 20.0096 126.608C20.7563 126.608 21.3443 126.851 21.7736 127.336C22.2123 127.812 22.4316 128.489 22.4316 129.366V134H21.3116V129.562C21.3116 128.265 20.7656 127.616 19.6736 127.616C19.4496 127.616 19.2303 127.644 19.0156 127.7C18.8103 127.756 18.6236 127.84 18.4556 127.952C18.2876 128.064 18.1523 128.209 18.0496 128.386C17.9563 128.554 17.9096 128.755 17.9096 128.988V134H16.7896ZM26.9166 134.168C26.2446 134.168 25.68 134.042 25.2226 133.79C24.7746 133.529 24.3873 133.183 24.0606 132.754L24.8586 132.11C25.1386 132.465 25.4513 132.74 25.7966 132.936C26.142 133.123 26.5433 133.216 27.0006 133.216C27.4766 133.216 27.8453 133.113 28.1066 132.908C28.3773 132.703 28.5126 132.413 28.5126 132.04C28.5126 131.76 28.4193 131.522 28.2326 131.326C28.0553 131.121 27.7286 130.981 27.2526 130.906L26.6786 130.822C26.3426 130.775 26.0346 130.705 25.7546 130.612C25.4746 130.509 25.2273 130.379 25.0126 130.22C24.8073 130.052 24.644 129.847 24.5226 129.604C24.4106 129.361 24.3546 129.072 24.3546 128.736C24.3546 128.381 24.42 128.073 24.5506 127.812C24.6813 127.541 24.8586 127.317 25.0826 127.14C25.316 126.963 25.5913 126.832 25.9086 126.748C26.226 126.655 26.5666 126.608 26.9306 126.608C27.5186 126.608 28.0086 126.711 28.4006 126.916C28.802 127.121 29.152 127.406 29.4506 127.77L28.7086 128.442C28.55 128.218 28.3166 128.017 28.0086 127.84C27.7006 127.653 27.3133 127.56 26.8466 127.56C26.38 127.56 26.0253 127.663 25.7826 127.868C25.5493 128.064 25.4326 128.335 25.4326 128.68C25.4326 129.035 25.5493 129.291 25.7826 129.45C26.0253 129.609 26.3706 129.725 26.8186 129.8L27.3786 129.884C28.1813 130.005 28.7506 130.239 29.0866 130.584C29.4226 130.92 29.5906 131.363 29.5906 131.914C29.5906 132.614 29.3526 133.165 28.8766 133.566C28.4006 133.967 27.7473 134.168 26.9166 134.168ZM37.0475 134.168C36.3755 134.168 35.8108 134.042 35.3535 133.79C34.9055 133.529 34.5182 133.183 34.1915 132.754L34.9895 132.11C35.2695 132.465 35.5822 132.74 35.9275 132.936C36.2728 133.123 36.6742 133.216 37.1315 133.216C37.6075 133.216 37.9762 133.113 38.2375 132.908C38.5082 132.703 38.6435 132.413 38.6435 132.04C38.6435 131.76 38.5502 131.522 38.3635 131.326C38.1862 131.121 37.8595 130.981 37.3835 130.906L36.8095 130.822C36.4735 130.775 36.1655 130.705 35.8855 130.612C35.6055 130.509 35.3582 130.379 35.1435 130.22C34.9382 130.052 34.7748 129.847 34.6535 129.604C34.5415 129.361 34.4855 129.072 34.4855 128.736C34.4855 128.381 34.5508 128.073 34.6815 127.812C34.8122 127.541 34.9895 127.317 35.2135 127.14C35.4468 126.963 35.7222 126.832 36.0395 126.748C36.3568 126.655 36.6975 126.608 37.0615 126.608C37.6495 126.608 38.1395 126.711 38.5315 126.916C38.9328 127.121 39.2828 127.406 39.5815 127.77L38.8395 128.442C38.6808 128.218 38.4475 128.017 38.1395 127.84C37.8315 127.653 37.4442 127.56 36.9775 127.56C36.5108 127.56 36.1562 127.663 35.9135 127.868C35.6802 128.064 35.5635 128.335 35.5635 128.68C35.5635 129.035 35.6802 129.291 35.9135 129.45C36.1562 129.609 36.5015 129.725 36.9495 129.8L37.5095 129.884C38.3122 130.005 38.8815 130.239 39.2175 130.584C39.5535 130.92 39.7215 131.363 39.7215 131.914C39.7215 132.614 39.4835 133.165 39.0075 133.566C38.5315 133.967 37.8782 134.168 37.0475 134.168ZM44.4298 134.168C43.9444 134.168 43.5011 134.079 43.0998 133.902C42.6984 133.725 42.3531 133.473 42.0638 133.146C41.7838 132.81 41.5644 132.413 41.4058 131.956C41.2471 131.489 41.1678 130.967 41.1678 130.388C41.1678 129.819 41.2471 129.301 41.4058 128.834C41.5644 128.367 41.7838 127.971 42.0638 127.644C42.3531 127.308 42.6984 127.051 43.0998 126.874C43.5011 126.697 43.9444 126.608 44.4298 126.608C44.9151 126.608 45.3538 126.697 45.7458 126.874C46.1471 127.051 46.4924 127.308 46.7818 127.644C47.0711 127.971 47.2951 128.367 47.4538 128.834C47.6124 129.301 47.6918 129.819 47.6918 130.388C47.6918 130.967 47.6124 131.489 47.4538 131.956C47.2951 132.413 47.0711 132.81 46.7818 133.146C46.4924 133.473 46.1471 133.725 45.7458 133.902C45.3538 134.079 44.9151 134.168 44.4298 134.168ZM44.4298 133.174C45.0364 133.174 45.5311 132.987 45.9138 132.614C46.2964 132.241 46.4878 131.671 46.4878 130.906V129.87C46.4878 129.105 46.2964 128.535 45.9138 128.162C45.5311 127.789 45.0364 127.602 44.4298 127.602C43.8231 127.602 43.3284 127.789 42.9458 128.162C42.5631 128.535 42.3718 129.105 42.3718 129.87V130.906C42.3718 131.671 42.5631 132.241 42.9458 132.614C43.3284 132.987 43.8231 133.174 44.4298 133.174ZM49.5338 134V126.776H50.6538V127.952H50.7098C50.8871 127.541 51.1344 127.215 51.4518 126.972C51.7784 126.729 52.2124 126.608 52.7538 126.608C53.5004 126.608 54.0884 126.851 54.5178 127.336C54.9564 127.812 55.1758 128.489 55.1758 129.366V134H54.0558V129.562C54.0558 128.265 53.5098 127.616 52.4178 127.616C52.1938 127.616 51.9744 127.644 51.7598 127.7C51.5544 127.756 51.3678 127.84 51.1998 127.952C51.0318 128.064 50.8964 128.209 50.7938 128.386C50.7004 128.554 50.6538 128.755 50.6538 128.988V134H49.5338ZM62.3954 134L59.8614 126.776H60.9814L62.2414 130.36L63.0254 132.824H63.0954L63.8794 130.36L65.1674 126.776H66.2454L63.6974 134H62.3954ZM68.25 125.082C68.0073 125.082 67.83 125.026 67.718 124.914C67.6153 124.793 67.564 124.639 67.564 124.452V124.27C67.564 124.083 67.6153 123.934 67.718 123.822C67.83 123.701 68.0073 123.64 68.25 123.64C68.4927 123.64 68.6653 123.701 68.768 123.822C68.88 123.934 68.936 124.083 68.936 124.27V124.452C68.936 124.639 68.88 124.793 68.768 124.914C68.6653 125.026 68.4927 125.082 68.25 125.082ZM67.69 126.776H68.81V134H67.69V126.776ZM72.38 134C71.988 134 71.6893 133.893 71.484 133.678C71.288 133.454 71.19 133.174 71.19 132.838V123.64H72.31V133.02H73.374V134H72.38ZM76.1261 134C75.7341 134 75.4354 133.893 75.2301 133.678C75.0341 133.454 74.9361 133.174 74.9361 132.838V123.64H76.0561V133.02H77.1201V134H76.1261ZM84.0005 134C83.5805 134 83.2772 133.888 83.0905 133.664C82.9132 133.44 82.8012 133.16 82.7545 132.824H82.6845C82.5259 133.272 82.2645 133.608 81.9005 133.832C81.5365 134.056 81.1025 134.168 80.5985 134.168C79.8332 134.168 79.2359 133.972 78.8065 133.58C78.3865 133.188 78.1765 132.656 78.1765 131.984C78.1765 131.303 78.4239 130.78 78.9185 130.416C79.4225 130.052 80.2019 129.87 81.2565 129.87H82.6845V129.156C82.6845 128.643 82.5445 128.251 82.2645 127.98C81.9845 127.709 81.5552 127.574 80.9765 127.574C80.5379 127.574 80.1692 127.672 79.8705 127.868C79.5812 128.064 79.3385 128.325 79.1425 128.652L78.4705 128.022C78.6665 127.63 78.9792 127.299 79.4085 127.028C79.8379 126.748 80.3792 126.608 81.0325 126.608C81.9099 126.608 82.5912 126.823 83.0765 127.252C83.5619 127.681 83.8045 128.279 83.8045 129.044V133.02H84.6305V134H84.0005ZM80.7805 133.216C81.0605 133.216 81.3172 133.183 81.5505 133.118C81.7839 133.053 81.9845 132.959 82.1525 132.838C82.3205 132.717 82.4512 132.577 82.5445 132.418C82.6379 132.259 82.6845 132.087 82.6845 131.9V130.71H81.2005C80.5565 130.71 80.0852 130.803 79.7865 130.99C79.4972 131.177 79.3525 131.447 79.3525 131.802V132.096C79.3525 132.451 79.4785 132.726 79.7305 132.922C79.9919 133.118 80.3419 133.216 80.7805 133.216ZM92.3191 134.798C92.3191 135.545 92.0251 136.091 91.4371 136.436C90.8584 136.791 89.9857 136.968 88.8191 136.968C87.6897 136.968 86.8777 136.814 86.3831 136.506C85.8884 136.198 85.6411 135.759 85.6411 135.19C85.6411 134.798 85.7437 134.49 85.9491 134.266C86.1544 134.051 86.4344 133.893 86.7891 133.79V133.636C86.3597 133.431 86.1451 133.095 86.1451 132.628C86.1451 132.264 86.2617 131.989 86.4951 131.802C86.7284 131.606 87.0271 131.461 87.3911 131.368V131.312C86.9617 131.107 86.6257 130.813 86.3831 130.43C86.1497 130.047 86.0331 129.604 86.0331 129.1C86.0331 128.736 86.0984 128.4 86.2291 128.092C86.3597 127.784 86.5417 127.523 86.7751 127.308C87.0177 127.084 87.3024 126.911 87.6291 126.79C87.9651 126.669 88.3384 126.608 88.7491 126.608C89.2624 126.608 89.7197 126.701 90.1211 126.888V126.762C90.1211 126.482 90.1864 126.253 90.3171 126.076C90.4477 125.889 90.6624 125.796 90.9611 125.796H92.0391V126.776H90.6671V127.238C90.9284 127.462 91.1291 127.733 91.2691 128.05C91.4184 128.358 91.4931 128.708 91.4931 129.1C91.4931 129.464 91.4277 129.8 91.2971 130.108C91.1664 130.416 90.9797 130.682 90.7371 130.906C90.5037 131.121 90.2191 131.289 89.8831 131.41C89.5471 131.531 89.1737 131.592 88.7631 131.592C88.5297 131.592 88.2964 131.569 88.0631 131.522C87.8204 131.587 87.6011 131.685 87.4051 131.816C87.2091 131.937 87.1111 132.11 87.1111 132.334C87.1111 132.549 87.2137 132.693 87.4191 132.768C87.6244 132.843 87.8904 132.88 88.2171 132.88H89.7571C90.6531 132.88 91.3017 133.053 91.7031 133.398C92.1137 133.734 92.3191 134.201 92.3191 134.798ZM91.2691 134.882C91.2691 134.593 91.1571 134.359 90.9331 134.182C90.7184 134.014 90.3311 133.93 89.7711 133.93H87.3631C86.9151 134.135 86.6911 134.462 86.6911 134.91C86.6911 135.227 86.8077 135.498 87.0411 135.722C87.2837 135.946 87.6897 136.058 88.2591 136.058H89.2951C89.9204 136.058 90.4057 135.96 90.7511 135.764C91.0964 135.568 91.2691 135.274 91.2691 134.882ZM88.7631 130.696C89.2391 130.696 89.6171 130.584 89.8971 130.36C90.1771 130.127 90.3171 129.772 90.3171 129.296V128.904C90.3171 128.428 90.1771 128.078 89.8971 127.854C89.6171 127.621 89.2391 127.504 88.7631 127.504C88.2871 127.504 87.9091 127.621 87.6291 127.854C87.3491 128.078 87.2091 128.428 87.2091 128.904V129.296C87.2091 129.772 87.3491 130.127 87.6291 130.36C87.9091 130.584 88.2871 130.696 88.7631 130.696ZM96.2595 134.168C95.7648 134.168 95.3168 134.079 94.9155 133.902C94.5235 133.725 94.1828 133.473 93.8935 133.146C93.6135 132.81 93.3942 132.413 93.2355 131.956C93.0862 131.489 93.0115 130.967 93.0115 130.388C93.0115 129.819 93.0862 129.301 93.2355 128.834C93.3942 128.367 93.6135 127.971 93.8935 127.644C94.1828 127.308 94.5235 127.051 94.9155 126.874C95.3168 126.697 95.7648 126.608 96.2595 126.608C96.7448 126.608 97.1788 126.697 97.5615 126.874C97.9442 127.051 98.2708 127.299 98.5415 127.616C98.8122 127.924 99.0175 128.293 99.1575 128.722C99.3068 129.151 99.3815 129.623 99.3815 130.136V130.668H94.1875V131.004C94.1875 131.312 94.2342 131.601 94.3275 131.872C94.4302 132.133 94.5702 132.362 94.7475 132.558C94.9342 132.754 95.1582 132.908 95.4195 133.02C95.6902 133.132 95.9935 133.188 96.3295 133.188C96.7868 133.188 97.1835 133.081 97.5195 132.866C97.8648 132.651 98.1308 132.343 98.3175 131.942L99.1155 132.516C98.8822 133.011 98.5182 133.412 98.0235 133.72C97.5288 134.019 96.9408 134.168 96.2595 134.168ZM96.2595 127.546C95.9515 127.546 95.6715 127.602 95.4195 127.714C95.1675 127.817 94.9482 127.966 94.7615 128.162C94.5842 128.358 94.4442 128.591 94.3415 128.862C94.2388 129.123 94.1875 129.413 94.1875 129.73V129.828H98.1775V129.674C98.1775 129.03 98.0002 128.517 97.6455 128.134C97.3002 127.742 96.8382 127.546 96.2595 127.546ZM104.536 134V126.776H105.656V127.952H105.712C105.889 127.541 106.136 127.215 106.454 126.972C106.78 126.729 107.214 126.608 107.756 126.608C108.502 126.608 109.09 126.851 109.52 127.336C109.958 127.812 110.178 128.489 110.178 129.366V134H109.058V129.562C109.058 128.265 108.512 127.616 107.42 127.616C107.196 127.616 106.976 127.644 106.762 127.7C106.556 127.756 106.37 127.84 106.202 127.952C106.034 128.064 105.898 128.209 105.796 128.386C105.702 128.554 105.656 128.755 105.656 128.988V134H104.536ZM117.743 134C117.323 134 117.019 133.888 116.833 133.664C116.655 133.44 116.543 133.16 116.497 132.824H116.427C116.268 133.272 116.007 133.608 115.643 133.832C115.279 134.056 114.845 134.168 114.341 134.168C113.575 134.168 112.978 133.972 112.549 133.58C112.129 133.188 111.919 132.656 111.919 131.984C111.919 131.303 112.166 130.78 112.661 130.416C113.165 130.052 113.944 129.87 114.999 129.87H116.427V129.156C116.427 128.643 116.287 128.251 116.007 127.98C115.727 127.709 115.297 127.574 114.719 127.574C114.28 127.574 113.911 127.672 113.613 127.868C113.323 128.064 113.081 128.325 112.885 128.652L112.213 128.022C112.409 127.63 112.721 127.299 113.151 127.028C113.58 126.748 114.121 126.608 114.775 126.608C115.652 126.608 116.333 126.823 116.819 127.252C117.304 127.681 117.547 128.279 117.547 129.044V133.02H118.373V134H117.743ZM114.523 133.216C114.803 133.216 115.059 133.183 115.293 133.118C115.526 133.053 115.727 132.959 115.895 132.838C116.063 132.717 116.193 132.577 116.287 132.418C116.38 132.259 116.427 132.087 116.427 131.9V130.71H114.943C114.299 130.71 113.827 130.803 113.529 130.99C113.239 131.177 113.095 131.447 113.095 131.802V132.096C113.095 132.451 113.221 132.726 113.473 132.922C113.734 133.118 114.084 133.216 114.523 133.216ZM121.567 134C121.175 134 120.877 133.893 120.671 133.678C120.475 133.454 120.377 133.165 120.377 132.81V127.756H119.187V126.776H119.859C120.102 126.776 120.265 126.729 120.349 126.636C120.443 126.533 120.489 126.361 120.489 126.118V124.774H121.497V126.776H123.079V127.756H121.497V133.02H122.967V134H121.567ZM130.129 134C129.709 134 129.406 133.888 129.219 133.664C129.042 133.44 128.93 133.16 128.883 132.824H128.813C128.655 133.272 128.393 133.608 128.029 133.832C127.665 134.056 127.231 134.168 126.727 134.168C125.962 134.168 125.365 133.972 124.935 133.58C124.515 133.188 124.305 132.656 124.305 131.984C124.305 131.303 124.553 130.78 125.047 130.416C125.551 130.052 126.331 129.87 127.385 129.87H128.813V129.156C128.813 128.643 128.673 128.251 128.393 127.98C128.113 127.709 127.684 127.574 127.105 127.574C126.667 127.574 126.298 127.672 125.999 127.868C125.71 128.064 125.467 128.325 125.271 128.652L124.599 128.022C124.795 127.63 125.108 127.299 125.537 127.028C125.967 126.748 126.508 126.608 127.161 126.608C128.039 126.608 128.72 126.823 129.205 127.252C129.691 127.681 129.933 128.279 129.933 129.044V133.02H130.759V134H130.129ZM126.909 133.216C127.189 133.216 127.446 133.183 127.679 133.118C127.913 133.053 128.113 132.959 128.281 132.838C128.449 132.717 128.58 132.577 128.673 132.418C128.767 132.259 128.813 132.087 128.813 131.9V130.71H127.329C126.685 130.71 126.214 130.803 125.915 130.99C125.626 131.177 125.481 131.447 125.481 131.802V132.096C125.481 132.451 125.607 132.726 125.859 132.922C126.121 133.118 126.471 133.216 126.909 133.216ZM133.548 134C133.156 134 132.857 133.893 132.652 133.678C132.456 133.454 132.358 133.174 132.358 132.838V123.64H133.478V133.02H134.542V134H133.548ZM138.888 134.168C138.394 134.168 137.946 134.079 137.544 133.902C137.152 133.725 136.812 133.473 136.522 133.146C136.242 132.81 136.023 132.413 135.864 131.956C135.715 131.489 135.64 130.967 135.64 130.388C135.64 129.819 135.715 129.301 135.864 128.834C136.023 128.367 136.242 127.971 136.522 127.644C136.812 127.308 137.152 127.051 137.544 126.874C137.946 126.697 138.394 126.608 138.888 126.608C139.374 126.608 139.808 126.697 140.19 126.874C140.573 127.051 140.9 127.299 141.17 127.616C141.441 127.924 141.646 128.293 141.786 128.722C141.936 129.151 142.01 129.623 142.01 130.136V130.668H136.816V131.004C136.816 131.312 136.863 131.601 136.956 131.872C137.059 132.133 137.199 132.362 137.376 132.558C137.563 132.754 137.787 132.908 138.048 133.02C138.319 133.132 138.622 133.188 138.958 133.188C139.416 133.188 139.812 133.081 140.148 132.866C140.494 132.651 140.76 132.343 140.946 131.942L141.744 132.516C141.511 133.011 141.147 133.412 140.652 133.72C140.158 134.019 139.57 134.168 138.888 134.168ZM138.888 127.546C138.58 127.546 138.3 127.602 138.048 127.714C137.796 127.817 137.577 127.966 137.39 128.162C137.213 128.358 137.073 128.591 136.97 128.862C136.868 129.123 136.816 129.413 136.816 129.73V129.828H140.806V129.674C140.806 129.03 140.629 128.517 140.274 128.134C139.929 127.742 139.467 127.546 138.888 127.546ZM147.879 134.168C147.58 134.168 147.361 134.093 147.221 133.944C147.09 133.795 147.025 133.599 147.025 133.356V133.174C147.025 132.931 147.09 132.735 147.221 132.586C147.361 132.437 147.58 132.362 147.879 132.362C148.177 132.362 148.392 132.437 148.523 132.586C148.663 132.735 148.733 132.931 148.733 133.174V133.356C148.733 133.599 148.663 133.795 148.523 133.944C148.392 134.093 148.177 134.168 147.879 134.168ZM151.693 134.168C151.394 134.168 151.175 134.093 151.035 133.944C150.904 133.795 150.839 133.599 150.839 133.356V133.174C150.839 132.931 150.904 132.735 151.035 132.586C151.175 132.437 151.394 132.362 151.693 132.362C151.992 132.362 152.206 132.437 152.337 132.586C152.477 132.735 152.547 132.931 152.547 133.174V133.356C152.547 133.599 152.477 133.795 152.337 133.944C152.206 134.093 151.992 134.168 151.693 134.168ZM155.508 134.168C155.209 134.168 154.99 134.093 154.85 133.944C154.719 133.795 154.654 133.599 154.654 133.356V133.174C154.654 132.931 154.719 132.735 154.85 132.586C154.99 132.437 155.209 132.362 155.508 132.362C155.806 132.362 156.021 132.437 156.152 132.586C156.292 132.735 156.362 132.931 156.362 133.174V133.356C156.362 133.599 156.292 133.795 156.152 133.944C156.021 134.093 155.806 134.168 155.508 134.168ZM159.322 134.168C159.023 134.168 158.804 134.093 158.664 133.944C158.533 133.795 158.468 133.599 158.468 133.356V133.174C158.468 132.931 158.533 132.735 158.664 132.586C158.804 132.437 159.023 132.362 159.322 132.362C159.621 132.362 159.835 132.437 159.966 132.586C160.106 132.735 160.176 132.931 160.176 133.174V133.356C160.176 133.599 160.106 133.795 159.966 133.944C159.835 134.093 159.621 134.168 159.322 134.168Z" fill="#443434"/>
</svg>
