<svg width="232" height="37" viewBox="0 0 232 37" fill="none" xmlns="http://www.w3.org/2000/svg">
<path d="M80.7741 0C82.9812 0 85.0551 0.478257 86.9958 1.43477C88.9366 2.39128 90.63 3.69562 92.076 5.34778C93.522 6.99994 94.6636 8.92746 95.5008 11.1303C96.338 13.3332 96.7566 15.6955 96.7566 18.2172C96.7566 20.739 96.338 23.1085 95.5008 25.3259C94.6636 27.5433 93.522 29.478 92.076 31.1302C90.63 32.7823 88.9366 34.0867 86.9958 35.0432C85.0551 35.9997 82.9812 36.478 80.7741 36.478C78.567 36.478 76.4994 35.9997 74.5713 35.0432C72.6433 34.0867 70.9562 32.7823 69.5102 31.1302C68.0641 29.478 66.9225 27.5433 66.0854 25.3259C65.2482 23.1085 64.8296 20.739 64.8296 18.2172C64.8296 15.6955 65.2482 13.3332 66.0854 11.1303C66.9225 8.92746 68.0641 6.99994 69.5102 5.34778C70.9562 3.69562 72.6433 2.39128 74.5713 1.43477C76.4994 0.478257 78.567 0 80.7741 0ZM86.7865 7.95646H83.3998C82.7402 7.95646 82.1313 8.08689 81.5732 8.34776C81.0151 8.60863 80.5267 8.95645 80.1081 9.39123C79.6895 9.82601 79.3661 10.3188 79.1378 10.8695C78.9094 11.4202 78.7953 11.9709 78.7953 12.5216V14.826H75.789V19.3477H78.7953V28.478H82.7909V19.3477H85.7591V14.826H82.7909V13.6521C82.7909 13.3042 82.9114 13.0289 83.1524 12.826C83.3934 12.6231 83.6027 12.5216 83.7803 12.5216H86.7865V7.95646Z" fill="#79AC78"/>
<path d="M21.361 18.2608C21.361 17.7668 21.2974 17.2293 21.1702 16.6482H22.7723V25.4518C22.7723 25.6842 22.7024 25.8731 22.5625 26.0183C22.4226 26.1636 22.251 26.2362 22.0476 26.2362H9.498C9.29456 26.2362 9.12926 26.1636 9.00212 26.0183C8.87497 25.8731 8.81139 25.6842 8.81139 25.4518V16.6482H10.3753C10.2482 17.2293 10.1846 17.7668 10.1846 18.2608C10.1846 19.1324 10.3308 19.9605 10.6233 20.7449C10.9157 21.5294 11.3162 22.2049 11.8248 22.7715C12.3334 23.3381 12.931 23.7884 13.6176 24.1225C14.3042 24.4566 15.029 24.6237 15.7918 24.6237C16.5547 24.6237 17.2795 24.4566 17.9661 24.1225C18.6527 23.7884 19.2439 23.3381 19.7398 22.7715C20.2357 22.2049 20.6299 21.5294 20.9223 20.7449C21.2147 19.9605 21.361 19.1324 21.361 18.2608ZM15.7918 22.2267C15.3087 22.2267 14.8509 22.125 14.4186 21.9216C13.9863 21.7183 13.6113 21.435 13.2934 21.0718C12.9755 20.7086 12.7276 20.2873 12.5496 19.8079C12.3716 19.3285 12.2825 18.8128 12.2825 18.2608C12.2825 17.7087 12.3716 17.1858 12.5496 16.6918C12.7276 16.1979 12.9755 15.7693 13.2934 15.4062C13.6113 15.043 13.9863 14.7597 14.4186 14.5563C14.8509 14.3529 15.3087 14.2512 15.7918 14.2512C16.275 14.2512 16.7264 14.3529 17.146 14.5563C17.5656 14.7597 17.9343 15.043 18.2522 15.4062C18.57 15.7693 18.818 16.1979 18.996 16.6918C19.174 17.1858 19.263 17.7087 19.263 18.2608C19.263 18.8128 19.174 19.3285 18.996 19.8079C18.818 20.2873 18.57 20.7086 18.2522 21.0718C17.9343 21.435 17.5656 21.7183 17.146 21.9216C16.7264 22.125 16.275 22.2267 15.7918 22.2267ZM22.0476 10.2853C22.251 10.2853 22.4226 10.3579 22.5625 10.5032C22.7024 10.6485 22.7723 10.8373 22.7723 11.0698V13.4668C22.7723 13.6992 22.7024 13.8881 22.5625 14.0333C22.4226 14.1786 22.251 14.2512 22.0476 14.2512H19.9496C19.7462 14.2512 19.5809 14.1786 19.4537 14.0333C19.3266 13.8881 19.263 13.6992 19.263 13.4668V11.0698C19.263 10.8373 19.3266 10.6485 19.4537 10.5032C19.5809 10.3579 19.7462 10.2853 19.9496 10.2853H22.0476ZM23.9166 0C25.0101 0 26.0464 0.2397 27.0254 0.7191C28.0045 1.1985 28.8564 1.85223 29.5811 2.68028C30.3059 3.50833 30.878 4.4744 31.2976 5.57847C31.7172 6.68254 31.927 7.85925 31.927 9.10859V27.3258C31.927 28.5751 31.7172 29.7591 31.2976 30.8777C30.878 31.9963 30.3059 32.9696 29.5811 33.7977C28.8564 34.6257 28.0045 35.2795 27.0254 35.7589C26.0464 36.2383 25.0101 36.478 23.9166 36.478H7.97221C6.87874 36.478 5.84883 36.2383 4.8825 35.7589C3.91618 35.2795 3.07064 34.6257 2.34589 33.7977C1.62114 32.9696 1.04898 31.9963 0.629385 30.8777C0.209795 29.7591 0 28.5751 0 27.3258V9.10859C0 7.85925 0.209795 6.68254 0.629385 5.57847C1.04898 4.4744 1.62114 3.50833 2.34589 2.68028C3.07064 1.85223 3.91618 1.1985 4.8825 0.7191C5.84883 0.2397 6.87874 0 7.97221 0H23.9166ZM24.8703 10.2853C24.8703 9.61705 24.6668 9.05049 24.2599 8.58561C23.8531 8.12074 23.3572 7.8883 22.7723 7.8883H8.81139C8.22651 7.8883 7.73063 8.12074 7.32376 8.58561C6.91688 9.05049 6.71344 9.61705 6.71344 10.2853V26.2362C6.71344 26.9045 6.91688 27.4711 7.32376 27.9359C7.73063 28.4008 8.22651 28.6332 8.81139 28.6332H22.7723C23.3572 28.6332 23.8531 28.4008 24.2599 27.9359C24.6668 27.4711 24.8703 26.9045 24.8703 26.2362V10.2853Z" fill="#79AC78"/>
<path d="M164.379 10.2643C163.435 11.8332 162.34 13.108 161.096 14.0886V15.1182C161.096 17.5697 160.688 20.0579 159.873 22.5829C159.057 25.1079 157.867 27.3878 156.3 29.4225C154.734 31.4573 152.792 33.1243 150.475 34.4236C148.158 35.7228 145.497 36.3725 142.493 36.3725C140.605 36.3725 138.824 36.0783 137.151 35.4899C135.477 34.9016 133.911 34.0681 132.452 32.9894C132.709 33.0385 132.967 33.0752 133.224 33.0998C133.482 33.1243 133.739 33.1365 133.997 33.1365C135.541 33.1365 137.011 32.8424 138.406 32.254C139.8 31.6656 141.056 30.8812 142.171 29.9006C140.712 29.8516 139.436 29.349 138.341 28.3929C137.247 27.4368 136.485 26.1989 136.056 24.6789C136.271 24.777 136.475 24.826 136.668 24.826H137.279C137.88 24.826 138.438 24.7525 138.953 24.6054C137.451 24.2132 136.207 23.3429 135.22 21.9946C134.233 20.6463 133.739 19.0651 133.739 17.251V17.1774C134.211 17.4226 134.683 17.6309 135.155 17.8025C135.627 17.9741 136.142 18.06 136.7 18.06C135.842 17.3735 135.144 16.491 134.608 15.4124C134.072 14.3337 133.803 13.157 133.803 11.8822C133.803 10.5094 134.104 9.25915 134.705 8.13147C136.335 10.3868 138.309 12.2132 140.627 13.6105C142.944 15.0079 145.454 15.7801 148.158 15.9272C148.029 15.3388 147.965 14.775 147.965 14.2356C147.965 13.206 148.136 12.2377 148.48 11.3306C148.823 10.4236 149.295 9.62687 149.896 8.94046C150.496 8.25405 151.194 7.71472 151.988 7.32249C152.782 6.93025 153.629 6.73413 154.53 6.73413C155.474 6.73413 156.354 6.94251 157.169 7.35926C157.985 7.77601 158.693 8.35211 159.294 9.08755C160.066 8.94046 160.795 8.70757 161.482 8.38888C162.169 8.07019 162.834 7.69021 163.477 7.24894C162.963 9.06303 161.997 10.4604 160.581 11.441C161.954 11.1958 163.22 10.8036 164.379 10.2643Z" fill="#79AC78"/>
<path d="M224.028 0C225.122 0 226.151 0.2397 227.118 0.7191C228.084 1.1985 228.93 1.85223 229.654 2.68028C230.379 3.50833 230.951 4.4744 231.371 5.57847C231.79 6.68254 232 7.85925 232 9.10859V27.3258C232 28.5751 231.79 29.7591 231.371 30.8777C230.951 31.9963 230.379 32.9696 229.654 33.7977C228.93 34.6257 228.084 35.2795 227.118 35.7589C226.151 36.2383 225.122 36.478 224.028 36.478H208.045C206.952 36.478 205.922 36.2383 204.956 35.7589C203.989 35.2795 203.144 34.6257 202.419 33.7977C201.694 32.9696 201.122 31.9963 200.703 30.8777C200.283 29.7591 200.073 28.5751 200.073 27.3258V9.10859C200.073 7.85925 200.283 6.68254 200.703 5.57847C201.122 4.4744 201.694 3.50833 202.419 2.68028C203.144 1.85223 203.989 1.1985 204.956 0.7191C205.922 0.2397 206.952 0 208.045 0H224.028ZM211.059 13.6847H207.054V28.5025H211.059V13.6847ZM209.075 12.508C209.609 12.508 210.073 12.2901 210.468 11.8542C210.862 11.4184 211.059 10.8809 211.059 10.2417C211.059 9.60252 210.862 9.06501 210.468 8.6292C210.073 8.19338 209.609 7.97547 209.075 7.97547C208.516 7.97547 208.039 8.19338 207.645 8.6292C207.251 9.06501 207.054 9.60252 207.054 10.2417C207.054 10.8809 207.251 11.4184 207.645 11.8542C208.039 12.2901 208.516 12.508 209.075 12.508ZM225.02 19.9169C225.02 18.8709 224.765 17.8467 224.257 16.8444C223.748 15.842 223.087 15.0793 222.273 14.5563C221.536 14.0914 220.678 13.8445 219.699 13.8154C218.72 13.7864 217.836 13.9752 217.048 14.382V13.6847H213.042V28.5025H217.048V19.4375L218.688 18.5223C218.891 18.406 219.171 18.3479 219.527 18.3479C219.883 18.3479 220.15 18.4206 220.328 18.5658C220.481 18.653 220.633 18.8419 220.786 19.1324C220.938 19.423 221.015 19.6844 221.015 19.9169V28.5025H225.02V19.9169Z" fill="#79AC78"/>
</svg>
