<svg width="1371" height="52" viewBox="0 0 1371 52" fill="none" xmlns="http://www.w3.org/2000/svg">
<path d="M6.768 37.408L5.04 33.928H4.968V46H1.968V29.248H5.448L10.488 37.84L12.216 41.32H12.288V29.248H15.288V46H11.808L6.768 37.408ZM25.794 46.288C24.69 46.288 23.69 46.104 22.794 45.736C21.898 45.368 21.13 44.816 20.49 44.08C19.866 43.344 19.378 42.44 19.026 41.368C18.674 40.296 18.498 39.048 18.498 37.624C18.498 36.216 18.674 34.976 19.026 33.904C19.378 32.816 19.866 31.904 20.49 31.168C21.13 30.432 21.898 29.88 22.794 29.512C23.69 29.144 24.69 28.96 25.794 28.96C26.898 28.96 27.898 29.144 28.794 29.512C29.69 29.88 30.458 30.432 31.098 31.168C31.738 31.904 32.226 32.816 32.562 33.904C32.914 34.976 33.09 36.216 33.09 37.624C33.09 39.048 32.914 40.296 32.562 41.368C32.226 42.44 31.738 43.344 31.098 44.08C30.458 44.816 29.69 45.368 28.794 45.736C27.898 46.104 26.898 46.288 25.794 46.288ZM25.794 43.48C26.994 43.48 27.946 43.08 28.65 42.28C29.37 41.48 29.73 40.36 29.73 38.92V36.328C29.73 34.888 29.37 33.768 28.65 32.968C27.946 32.168 26.994 31.768 25.794 31.768C24.594 31.768 23.634 32.168 22.914 32.968C22.21 33.768 21.858 34.888 21.858 36.328V38.92C21.858 40.36 22.21 41.48 22.914 42.28C23.634 43.08 24.594 43.48 25.794 43.48ZM39.3039 29.248V39.544C39.3039 40.856 39.5519 41.84 40.0479 42.496C40.5599 43.152 41.4159 43.48 42.6159 43.48C43.8159 43.48 44.6639 43.152 45.1599 42.496C45.6719 41.84 45.9279 40.856 45.9279 39.544V29.248H49.0479V39.136C49.0479 40.368 48.9279 41.432 48.6879 42.328C48.4639 43.224 48.0959 43.968 47.5839 44.56C47.0719 45.152 46.3999 45.592 45.5679 45.88C44.7519 46.152 43.7599 46.288 42.5919 46.288C41.4079 46.288 40.4079 46.152 39.5919 45.88C38.7919 45.592 38.1359 45.152 37.6239 44.56C37.1119 43.968 36.7439 43.224 36.5199 42.328C36.2959 41.432 36.1839 40.368 36.1839 39.136V29.248H39.3039ZM58.0823 46.288C56.6423 46.288 55.4183 46.032 54.4103 45.52C53.4183 45.008 52.5623 44.336 51.8423 43.504L53.9783 41.44C54.5543 42.112 55.1943 42.624 55.8983 42.976C56.6183 43.328 57.4103 43.504 58.2743 43.504C59.2503 43.504 59.9863 43.296 60.4823 42.88C60.9783 42.448 61.2263 41.872 61.2263 41.152C61.2263 40.592 61.0663 40.136 60.7463 39.784C60.4263 39.432 59.8263 39.176 58.9463 39.016L57.3623 38.776C54.0183 38.248 52.3463 36.624 52.3463 33.904C52.3463 33.152 52.4823 32.472 52.7543 31.864C53.0423 31.256 53.4503 30.736 53.9783 30.304C54.5063 29.872 55.1383 29.544 55.8743 29.32C56.6263 29.08 57.4743 28.96 58.4183 28.96C59.6823 28.96 60.7863 29.168 61.7303 29.584C62.6743 30 63.4823 30.616 64.1543 31.432L61.9943 33.472C61.5783 32.96 61.0743 32.544 60.4823 32.224C59.8903 31.904 59.1463 31.744 58.2503 31.744C57.3383 31.744 56.6503 31.92 56.1863 32.272C55.7383 32.608 55.5143 33.088 55.5143 33.712C55.5143 34.352 55.6983 34.824 56.0663 35.128C56.4343 35.432 57.0263 35.656 57.8423 35.8L59.4023 36.088C61.0983 36.392 62.3463 36.936 63.1463 37.72C63.9623 38.488 64.3703 39.568 64.3703 40.96C64.3703 41.76 64.2263 42.488 63.9383 43.144C63.6663 43.784 63.2583 44.344 62.7143 44.824C62.1863 45.288 61.5303 45.648 60.7463 45.904C59.9783 46.16 59.0903 46.288 58.0823 46.288ZM79.722 46.288C78.618 46.288 77.618 46.112 76.722 45.76C75.842 45.392 75.082 44.848 74.442 44.128C73.818 43.408 73.338 42.52 73.002 41.464C72.666 40.392 72.498 39.152 72.498 37.744C72.498 36.336 72.666 35.088 73.002 34C73.338 32.896 73.818 31.976 74.442 31.24C75.082 30.488 75.842 29.92 76.722 29.536C77.618 29.152 78.618 28.96 79.722 28.96C81.226 28.96 82.474 29.28 83.466 29.92C84.458 30.56 85.25 31.528 85.842 32.824L83.13 34.264C82.89 33.512 82.498 32.912 81.954 32.464C81.41 32 80.666 31.768 79.722 31.768C78.538 31.768 77.594 32.168 76.89 32.968C76.202 33.768 75.858 34.888 75.858 36.328V38.968C75.858 40.424 76.202 41.544 76.89 42.328C77.594 43.096 78.538 43.48 79.722 43.48C80.666 43.48 81.434 43.224 82.026 42.712C82.634 42.2 83.074 41.568 83.346 40.816L85.914 42.328C85.306 43.576 84.498 44.552 83.49 45.256C82.482 45.944 81.226 46.288 79.722 46.288ZM98.7684 38.92H91.7844V46H88.6164V29.248H91.7844V36.112H98.7684V29.248H101.936V46H98.7684V38.92ZM105.866 46V29.248H116.906V32.056H109.034V36.112H115.994V38.92H109.034V43.192H116.906V46H105.866ZM131.753 46H119.201V43.168L127.865 32.056H119.633V29.248H131.513V32.08L122.825 43.192H131.753V46ZM144.184 46L138.712 29.248H141.952L144.52 37.408L146.008 42.976H146.08L147.544 37.408L150.112 29.248H153.256L147.784 46H144.184ZM161.567 46.288C160.463 46.288 159.463 46.104 158.567 45.736C157.671 45.368 156.903 44.816 156.263 44.08C155.639 43.344 155.151 42.44 154.799 41.368C154.447 40.296 154.271 39.048 154.271 37.624C154.271 36.216 154.447 34.976 154.799 33.904C155.151 32.816 155.639 31.904 156.263 31.168C156.903 30.432 157.671 29.88 158.567 29.512C159.463 29.144 160.463 28.96 161.567 28.96C162.671 28.96 163.671 29.144 164.567 29.512C165.463 29.88 166.231 30.432 166.871 31.168C167.511 31.904 167.999 32.816 168.335 33.904C168.687 34.976 168.863 36.216 168.863 37.624C168.863 39.048 168.687 40.296 168.335 41.368C167.999 42.44 167.511 43.344 166.871 44.08C166.231 44.816 165.463 45.368 164.567 45.736C163.671 46.104 162.671 46.288 161.567 46.288ZM161.567 43.48C162.767 43.48 163.719 43.08 164.423 42.28C165.143 41.48 165.503 40.36 165.503 38.92V36.328C165.503 34.888 165.143 33.768 164.423 32.968C163.719 32.168 162.767 31.768 161.567 31.768C160.367 31.768 159.407 32.168 158.687 32.968C157.983 33.768 157.631 34.888 157.631 36.328V38.92C157.631 40.36 157.983 41.48 158.687 42.28C159.407 43.08 160.367 43.48 161.567 43.48ZM175.077 29.248V39.544C175.077 40.856 175.325 41.84 175.821 42.496C176.333 43.152 177.189 43.48 178.389 43.48C179.589 43.48 180.437 43.152 180.933 42.496C181.445 41.84 181.701 40.856 181.701 39.544V29.248H184.821V39.136C184.821 40.368 184.701 41.432 184.461 42.328C184.237 43.224 183.869 43.968 183.357 44.56C182.845 45.152 182.173 45.592 181.341 45.88C180.525 46.152 179.533 46.288 178.365 46.288C177.181 46.288 176.181 46.152 175.365 45.88C174.565 45.592 173.909 45.152 173.397 44.56C172.885 43.968 172.517 43.224 172.293 42.328C172.069 41.432 171.957 40.368 171.957 39.136V29.248H175.077ZM193.856 46.288C192.416 46.288 191.192 46.032 190.184 45.52C189.192 45.008 188.336 44.336 187.616 43.504L189.752 41.44C190.328 42.112 190.968 42.624 191.672 42.976C192.392 43.328 193.184 43.504 194.048 43.504C195.024 43.504 195.76 43.296 196.256 42.88C196.752 42.448 197 41.872 197 41.152C197 40.592 196.84 40.136 196.52 39.784C196.2 39.432 195.6 39.176 194.72 39.016L193.136 38.776C189.792 38.248 188.12 36.624 188.12 33.904C188.12 33.152 188.256 32.472 188.528 31.864C188.816 31.256 189.224 30.736 189.752 30.304C190.28 29.872 190.912 29.544 191.648 29.32C192.4 29.08 193.248 28.96 194.192 28.96C195.456 28.96 196.56 29.168 197.504 29.584C198.448 30 199.256 30.616 199.928 31.432L197.768 33.472C197.352 32.96 196.848 32.544 196.256 32.224C195.664 31.904 194.92 31.744 194.024 31.744C193.112 31.744 192.424 31.92 191.96 32.272C191.512 32.608 191.288 33.088 191.288 33.712C191.288 34.352 191.472 34.824 191.84 35.128C192.208 35.432 192.8 35.656 193.616 35.8L195.176 36.088C196.872 36.392 198.12 36.936 198.92 37.72C199.736 38.488 200.144 39.568 200.144 40.96C200.144 41.76 200 42.488 199.712 43.144C199.44 43.784 199.032 44.344 198.488 44.824C197.96 45.288 197.304 45.648 196.52 45.904C195.752 46.16 194.864 46.288 193.856 46.288Z" fill="#000E01"/>
<path d="M3.50852 13H0.553977L2.12358 3.54545H5.13352C6.05066 3.54545 6.80623 3.73781 7.40021 4.12251C7.99728 4.50722 8.41276 5.05658 8.64666 5.7706C8.88364 6.48461 8.91903 7.33712 8.75284 8.32812C8.5928 9.30066 8.28196 10.1362 7.82031 10.8349C7.36174 11.5304 6.76776 12.0659 6.03835 12.4414C5.31203 12.8138 4.46875 13 3.50852 13ZM1.86967 11.9844H3.54545C4.32718 11.9844 5.00118 11.8305 5.56747 11.5227C6.13684 11.215 6.59541 10.7764 6.94318 10.207C7.29403 9.63767 7.53409 8.96212 7.66335 8.1804C7.79261 7.42945 7.7803 6.78468 7.62642 6.24609C7.47562 5.70443 7.17862 5.28894 6.73544 4.99964C6.29534 4.70727 5.70597 4.56108 4.96733 4.56108H3.09766L1.86967 11.9844ZM17.6719 3.54545H18.8168L17.7827 9.8054C17.675 10.4517 17.4272 11.0288 17.0394 11.5366C16.6516 12.0413 16.1577 12.4399 15.5575 12.7322C14.9574 13.0215 14.2865 13.1662 13.5447 13.1662C12.803 13.1662 12.1813 13.0215 11.6797 12.7322C11.178 12.4399 10.8179 12.0413 10.5994 11.5366C10.3809 11.0288 10.3255 10.4517 10.4332 9.8054L11.4673 3.54545H12.6122L11.5874 9.71307C11.5135 10.1747 11.5489 10.5856 11.6935 10.9457C11.8382 11.3027 12.0813 11.5843 12.4229 11.7905C12.7676 11.9936 13.2031 12.0952 13.7294 12.0952C14.2557 12.0952 14.725 11.9936 15.1374 11.7905C15.5498 11.5843 15.8853 11.3027 16.1438 10.9457C16.4054 10.5856 16.5732 10.1747 16.647 9.71307L17.6719 3.54545ZM23.1897 13L24.7593 3.54545H25.9042L24.5008 11.9844H28.8957L28.7295 13H23.1897ZM38.2764 3.54545H39.4213L38.3872 9.8054C38.2794 10.4517 38.0317 11.0288 37.6439 11.5366C37.2561 12.0413 36.7622 12.4399 36.162 12.7322C35.5619 13.0215 34.891 13.1662 34.1492 13.1662C33.4075 13.1662 32.7858 13.0215 32.2842 12.7322C31.7825 12.4399 31.4224 12.0413 31.2039 11.5366C30.9854 11.0288 30.93 10.4517 31.0377 9.8054L32.0718 3.54545H33.2167L32.1919 9.71307C32.118 10.1747 32.1534 10.5856 32.298 10.9457C32.4427 11.3027 32.6858 11.5843 33.0274 11.7905C33.3721 11.9936 33.8076 12.0952 34.3339 12.0952C34.8602 12.0952 35.3295 11.9936 35.7419 11.7905C36.1543 11.5843 36.4898 11.3027 36.7483 10.9457C37.0099 10.5856 37.1776 10.1747 37.2515 9.71307L38.2764 3.54545ZM49.2047 3.54545L47.6351 13H46.5272L42.6124 5.5767H42.5201L41.2828 13H40.138L41.7076 3.54545H42.8155L46.7488 10.9872H46.8411L48.0783 3.54545H49.2047ZM52.8806 13H49.926L51.4956 3.54545H54.5056C55.4227 3.54545 56.1783 3.73781 56.7723 4.12251C57.3693 4.50722 57.7848 5.05658 58.0187 5.7706C58.2557 6.48461 58.2911 7.33712 58.1249 8.32812C57.9649 9.30066 57.654 10.1362 57.1924 10.8349C56.7338 11.5304 56.1398 12.0659 55.4104 12.4414C54.6841 12.8138 53.8408 13 52.8806 13ZM51.2417 11.9844H52.9175C53.6992 11.9844 54.3733 11.8305 54.9395 11.5227C55.5089 11.215 55.9675 10.7764 56.3153 10.207C56.6661 9.63767 56.9062 8.96212 57.0354 8.1804C57.1647 7.42945 57.1524 6.78468 56.9985 6.24609C56.8477 5.70443 56.5507 5.28894 56.1075 4.99964C55.6674 4.70727 55.078 4.56108 54.3394 4.56108H52.4697L51.2417 11.9844ZM61.9843 3.54545L60.4147 13H59.2698L60.8394 3.54545H61.9843ZM66.7543 13H65.554L70.5952 3.54545H71.777L73.679 13H72.4787L70.983 5.04119H70.9091L66.7543 13ZM67.8068 9.30682H72.6449L72.4787 10.3224H67.6406L67.8068 9.30682ZM82.9258 3.54545H84.0707L83.0366 9.8054C82.9289 10.4517 82.6811 11.0288 82.2933 11.5366C81.9055 12.0413 81.4116 12.4399 80.8114 12.7322C80.2113 13.0215 79.5404 13.1662 78.7987 13.1662C78.0569 13.1662 77.4353 13.0215 76.9336 12.7322C76.4319 12.4399 76.0719 12.0413 75.8533 11.5366C75.6348 11.0288 75.5794 10.4517 75.6871 9.8054L76.7212 3.54545H77.8661L76.8413 9.71307C76.7674 10.1747 76.8028 10.5856 76.9474 10.9457C77.0921 11.3027 77.3352 11.5843 77.6768 11.7905C78.0215 11.9936 78.457 12.0952 78.9833 12.0952C79.5096 12.0952 79.9789 11.9936 80.3913 11.7905C80.8037 11.5843 81.1392 11.3027 81.3977 10.9457C81.6593 10.5856 81.8271 10.1747 81.9009 9.71307L82.9258 3.54545ZM90.401 3.54545L91.8968 11.5043H92.0075L96.1254 3.54545H97.3257L92.2845 13H91.1027L89.2007 3.54545H90.401ZM97.2288 13L98.7984 3.54545H104.504L104.338 4.56108H99.7771L99.2416 7.75568H103.507L103.341 8.77131H99.0754L98.5399 11.9844H103.175L103.009 13H97.2288ZM114.065 3.54545L112.495 13H111.388L107.473 5.5767H107.38L106.143 13H104.998L106.568 3.54545H107.676L111.609 10.9872H111.701L112.939 3.54545H114.065ZM117.741 13H114.786L116.356 3.54545H119.366C120.283 3.54545 121.039 3.73781 121.633 4.12251C122.23 4.50722 122.645 5.05658 122.879 5.7706C123.116 6.48461 123.151 7.33712 122.985 8.32812C122.825 9.30066 122.514 10.1362 122.053 10.8349C121.594 11.5304 121 12.0659 120.271 12.4414C119.544 12.8138 118.701 13 117.741 13ZM116.102 11.9844H117.778C118.56 11.9844 119.234 11.8305 119.8 11.5227C120.369 11.215 120.828 10.7764 121.176 10.207C121.526 9.63767 121.767 8.96212 121.896 8.1804C122.025 7.42945 122.013 6.78468 121.859 6.24609C121.708 5.70443 121.411 5.28894 120.968 4.99964C120.528 4.70727 119.938 4.56108 119.2 4.56108H117.33L116.102 11.9844ZM124.13 13L125.7 3.54545H128.894C129.633 3.54545 130.218 3.6701 130.649 3.91939C131.083 4.16868 131.376 4.51184 131.53 4.94886C131.687 5.38589 131.72 5.88447 131.627 6.4446C131.535 6.99858 131.338 7.491 131.036 7.92188C130.738 8.35275 130.332 8.69129 129.818 8.9375C129.307 9.18371 128.685 9.30682 127.953 9.30682H125.367L125.552 8.27273H128.1C128.605 8.27273 129.024 8.19886 129.356 8.05114C129.688 7.90341 129.947 7.69259 130.132 7.41868C130.316 7.14477 130.439 6.82008 130.501 6.4446C130.562 6.06297 130.546 5.73213 130.45 5.45206C130.358 5.16892 130.169 4.9504 129.882 4.79652C129.599 4.63956 129.202 4.56108 128.691 4.56108H126.678L125.275 13H124.13ZM129.282 8.75284L130.907 13H129.578L127.99 8.75284H129.282ZM132.446 13L134.015 3.54545H139.721L139.555 4.56108H134.994L134.458 7.75568H138.724L138.558 8.77131H134.292L133.757 11.9844H138.392L138.225 13H132.446ZM143.17 13H140.215L141.785 3.54545H144.795C145.712 3.54545 146.467 3.73781 147.061 4.12251C147.658 4.50722 148.074 5.05658 148.308 5.7706C148.545 6.48461 148.58 7.33712 148.414 8.32812C148.254 9.30066 147.943 10.1362 147.481 10.8349C147.023 11.5304 146.429 12.0659 145.699 12.4414C144.973 12.8138 144.13 13 143.17 13ZM141.531 11.9844H143.207C143.988 11.9844 144.662 11.8305 145.229 11.5227C145.798 11.215 146.257 10.7764 146.604 10.207C146.955 9.63767 147.195 8.96212 147.324 8.1804C147.454 7.42945 147.441 6.78468 147.288 6.24609C147.137 5.70443 146.84 5.28894 146.397 4.99964C145.956 4.70727 145.367 4.56108 144.628 4.56108H142.759L141.531 11.9844ZM152.273 3.54545L150.704 13H149.559L151.128 3.54545H152.273Z" fill="#79AC78"/>
<path d="M520.968 46V29.248H524.136V43.192H530.736V46H520.968ZM533.24 28C533.896 28 534.368 28.16 534.656 28.48C534.96 28.784 535.112 29.168 535.112 29.632V30.088C535.112 30.52 535.048 30.96 534.92 31.408C534.808 31.84 534.64 32.264 534.416 32.68C534.192 33.096 533.928 33.488 533.624 33.856C533.32 34.224 532.992 34.552 532.64 34.84H530.576C531.088 34.36 531.52 33.88 531.872 33.4C532.224 32.904 532.488 32.36 532.664 31.768C532.2 31.688 531.864 31.504 531.656 31.216C531.448 30.912 531.344 30.56 531.344 30.16V29.632C531.344 29.168 531.488 28.784 531.776 28.48C532.08 28.16 532.568 28 533.24 28ZM547.227 46L545.883 41.728H539.931L538.611 46H535.395L541.011 29.248H544.947L550.515 46H547.227ZM542.955 32.128H542.835L540.699 39.016H545.115L542.955 32.128ZM556.152 46H552.984V29.248H560.544C561.312 29.248 562 29.368 562.608 29.608C563.216 29.848 563.728 30.2 564.144 30.664C564.576 31.112 564.904 31.656 565.128 32.296C565.368 32.936 565.488 33.648 565.488 34.432C565.488 35.584 565.224 36.576 564.696 37.408C564.184 38.24 563.408 38.832 562.368 39.184L565.8 46H562.272L559.152 39.544H556.152V46ZM560.232 36.88C560.84 36.88 561.32 36.72 561.672 36.4C562.024 36.064 562.2 35.592 562.2 34.984V33.88C562.2 33.272 562.024 32.808 561.672 32.488C561.32 32.168 560.84 32.008 560.232 32.008H556.152V36.88H560.232ZM568.921 46V29.248H579.961V32.056H572.089V36.112H579.049V38.92H572.089V43.192H579.961V46H568.921ZM588.112 37.408L586.384 33.928H586.312V46H583.312V29.248H586.792L591.832 37.84L593.56 41.32H593.632V29.248H596.632V46H593.152L588.112 37.408ZM600.562 46V29.248H611.602V32.056H603.73V36.112H610.69V38.92H603.73V43.192H611.602V46H600.562ZM620.432 33.472H623.504V35.536H623.6C623.824 34.816 624.248 34.248 624.872 33.832C625.496 33.4 626.224 33.184 627.056 33.184C628.656 33.184 629.872 33.752 630.704 34.888C631.552 36.008 631.976 37.616 631.976 39.712C631.976 41.824 631.552 43.448 630.704 44.584C629.872 45.72 628.656 46.288 627.056 46.288C626.224 46.288 625.496 46.072 624.872 45.64C624.264 45.208 623.84 44.632 623.6 43.912H623.504V50.8H620.432V33.472ZM626.072 43.744C626.872 43.744 627.52 43.48 628.016 42.952C628.512 42.424 628.76 41.712 628.76 40.816V38.656C628.76 37.76 628.512 37.048 628.016 36.52C627.52 35.976 626.872 35.704 626.072 35.704C625.336 35.704 624.72 35.888 624.224 36.256C623.744 36.624 623.504 37.112 623.504 37.72V41.704C623.504 42.36 623.744 42.864 624.224 43.216C624.72 43.568 625.336 43.744 626.072 43.744ZM644.039 46C643.367 46 642.831 45.808 642.431 45.424C642.047 45.024 641.807 44.496 641.711 43.84H641.567C641.359 44.656 640.935 45.272 640.295 45.688C639.655 46.088 638.863 46.288 637.919 46.288C636.639 46.288 635.655 45.952 634.967 45.28C634.279 44.608 633.935 43.712 633.935 42.592C633.935 41.296 634.399 40.336 635.327 39.712C636.255 39.072 637.575 38.752 639.287 38.752H641.423V37.84C641.423 37.136 641.239 36.592 640.871 36.208C640.503 35.824 639.911 35.632 639.095 35.632C638.375 35.632 637.791 35.792 637.343 36.112C636.911 36.416 636.543 36.784 636.239 37.216L634.415 35.584C634.879 34.864 635.495 34.288 636.263 33.856C637.031 33.408 638.047 33.184 639.311 33.184C641.007 33.184 642.295 33.568 643.175 34.336C644.055 35.104 644.495 36.208 644.495 37.648V43.552H645.743V46H644.039ZM638.951 44.056C639.639 44.056 640.223 43.904 640.703 43.6C641.183 43.296 641.423 42.848 641.423 42.256V40.6H639.455C637.855 40.6 637.055 41.112 637.055 42.136V42.544C637.055 43.056 637.215 43.44 637.535 43.696C637.871 43.936 638.343 44.056 638.951 44.056ZM648.229 46V33.472H651.301V36.064H651.421C651.501 35.728 651.621 35.408 651.781 35.104C651.957 34.784 652.181 34.504 652.453 34.264C652.725 34.024 653.045 33.832 653.413 33.688C653.797 33.544 654.237 33.472 654.733 33.472H655.405V36.376H654.445C653.405 36.376 652.621 36.528 652.093 36.832C651.565 37.136 651.301 37.632 651.301 38.32V46H648.229ZM666.683 46H663.515V29.248H671.075C671.843 29.248 672.531 29.368 673.139 29.608C673.747 29.848 674.259 30.2 674.675 30.664C675.107 31.112 675.435 31.656 675.659 32.296C675.899 32.936 676.019 33.648 676.019 34.432C676.019 35.584 675.755 36.576 675.227 37.408C674.715 38.24 673.939 38.832 672.899 39.184L676.331 46H672.803L669.683 39.544H666.683V46ZM670.763 36.88C671.371 36.88 671.851 36.72 672.203 36.4C672.555 36.064 672.731 35.592 672.731 34.984V33.88C672.731 33.272 672.555 32.808 672.203 32.488C671.851 32.168 671.371 32.008 670.763 32.008H666.683V36.88H670.763ZM683.877 46.288C682.981 46.288 682.173 46.136 681.453 45.832C680.749 45.528 680.141 45.088 679.629 44.512C679.133 43.936 678.749 43.248 678.477 42.448C678.205 41.632 678.069 40.72 678.069 39.712C678.069 38.704 678.205 37.8 678.477 37C678.749 36.2 679.133 35.52 679.629 34.96C680.141 34.384 680.749 33.944 681.453 33.64C682.173 33.336 682.981 33.184 683.877 33.184C684.773 33.184 685.581 33.336 686.301 33.64C687.021 33.944 687.629 34.384 688.125 34.96C688.637 35.52 689.029 36.2 689.301 37C689.573 37.8 689.709 38.704 689.709 39.712C689.709 40.72 689.573 41.632 689.301 42.448C689.029 43.248 688.637 43.936 688.125 44.512C687.629 45.088 687.021 45.528 686.301 45.832C685.581 46.136 684.773 46.288 683.877 46.288ZM683.877 43.816C684.693 43.816 685.333 43.568 685.797 43.072C686.261 42.576 686.493 41.848 686.493 40.888V38.56C686.493 37.616 686.261 36.896 685.797 36.4C685.333 35.904 684.693 35.656 683.877 35.656C683.077 35.656 682.445 35.904 681.981 36.4C681.517 36.896 681.285 37.616 681.285 38.56V40.888C681.285 41.848 681.517 42.576 681.981 43.072C682.445 43.568 683.077 43.816 683.877 43.816ZM700.208 43.912H700.088C699.864 44.632 699.44 45.208 698.816 45.64C698.192 46.072 697.464 46.288 696.632 46.288C695.048 46.288 693.832 45.72 692.984 44.584C692.152 43.448 691.736 41.824 691.736 39.712C691.736 37.616 692.152 36.008 692.984 34.888C693.832 33.752 695.048 33.184 696.632 33.184C697.464 33.184 698.192 33.4 698.816 33.832C699.44 34.248 699.864 34.816 700.088 35.536H700.208V28.24H703.28V46H700.208V43.912ZM697.616 43.744C698.352 43.744 698.968 43.568 699.464 43.216C699.96 42.864 700.208 42.36 700.208 41.704V37.72C700.208 37.112 699.96 36.624 699.464 36.256C698.968 35.888 698.352 35.704 697.616 35.704C696.816 35.704 696.168 35.976 695.672 36.52C695.192 37.048 694.952 37.76 694.952 38.656V40.816C694.952 41.712 695.192 42.424 695.672 42.952C696.168 43.48 696.816 43.744 697.616 43.744ZM706.823 46V33.472H709.895V36.064H710.015C710.095 35.728 710.215 35.408 710.375 35.104C710.551 34.784 710.775 34.504 711.047 34.264C711.319 34.024 711.639 33.832 712.007 33.688C712.391 33.544 712.831 33.472 713.327 33.472H713.999V36.376H713.039C711.999 36.376 711.215 36.528 710.687 36.832C710.159 37.136 709.895 37.632 709.895 38.32V46H706.823ZM717.781 31.648C717.141 31.648 716.677 31.504 716.389 31.216C716.117 30.928 715.981 30.56 715.981 30.112V29.632C715.981 29.184 716.117 28.816 716.389 28.528C716.677 28.24 717.141 28.096 717.781 28.096C718.405 28.096 718.861 28.24 719.149 28.528C719.437 28.816 719.581 29.184 719.581 29.632V30.112C719.581 30.56 719.437 30.928 719.149 31.216C718.861 31.504 718.405 31.648 717.781 31.648ZM716.245 33.472H719.317V46H716.245V33.472ZM734.182 47.056C734.182 47.712 734.062 48.288 733.822 48.784C733.598 49.296 733.222 49.72 732.694 50.056C732.166 50.392 731.486 50.648 730.654 50.824C729.822 51 728.806 51.088 727.606 51.088C726.55 51.088 725.654 51.016 724.918 50.872C724.182 50.744 723.574 50.552 723.094 50.296C722.63 50.056 722.294 49.752 722.086 49.384C721.878 49.016 721.774 48.6 721.774 48.136C721.774 47.432 721.966 46.88 722.35 46.48C722.75 46.096 723.302 45.848 724.006 45.736V45.472C723.494 45.344 723.094 45.096 722.806 44.728C722.534 44.344 722.398 43.896 722.398 43.384C722.398 43.064 722.462 42.784 722.59 42.544C722.718 42.288 722.886 42.072 723.094 41.896C723.318 41.72 723.566 41.576 723.838 41.464C724.11 41.336 724.398 41.24 724.702 41.176V41.08C723.934 40.728 723.358 40.24 722.974 39.616C722.606 38.992 722.422 38.264 722.422 37.432C722.422 36.152 722.862 35.128 723.742 34.36C724.622 33.576 725.91 33.184 727.606 33.184C727.99 33.184 728.366 33.208 728.734 33.256C729.118 33.304 729.47 33.384 729.79 33.496V33.088C729.79 31.872 730.382 31.264 731.566 31.264H733.51V33.616H730.846V33.952C731.502 34.32 731.99 34.8 732.31 35.392C732.63 35.984 732.79 36.664 732.79 37.432C732.79 38.696 732.35 39.712 731.47 40.48C730.606 41.248 729.318 41.632 727.606 41.632C726.87 41.632 726.23 41.56 725.686 41.416C725.446 41.528 725.238 41.68 725.062 41.872C724.886 42.048 724.798 42.272 724.798 42.544C724.798 43.168 725.342 43.48 726.43 43.48H729.79C731.326 43.48 732.438 43.8 733.126 44.44C733.83 45.064 734.182 45.936 734.182 47.056ZM731.302 47.416C731.302 47.016 731.142 46.704 730.822 46.48C730.502 46.256 729.95 46.144 729.166 46.144H724.894C724.462 46.464 724.246 46.896 724.246 47.44C724.246 47.92 724.446 48.296 724.846 48.568C725.246 48.84 725.926 48.976 726.886 48.976H728.422C729.43 48.976 730.158 48.848 730.606 48.592C731.07 48.336 731.302 47.944 731.302 47.416ZM727.606 39.544C729.11 39.544 729.862 38.904 729.862 37.624V37.216C729.862 35.936 729.11 35.296 727.606 35.296C726.102 35.296 725.35 35.936 725.35 37.216V37.624C725.35 38.904 726.102 39.544 727.606 39.544ZM743.35 43.912H743.23C743.118 44.232 742.966 44.536 742.774 44.824C742.598 45.096 742.366 45.344 742.078 45.568C741.806 45.792 741.47 45.968 741.07 46.096C740.686 46.224 740.238 46.288 739.726 46.288C738.43 46.288 737.438 45.864 736.75 45.016C736.062 44.168 735.718 42.96 735.718 41.392V33.472H738.79V41.08C738.79 41.944 738.958 42.608 739.294 43.072C739.63 43.52 740.166 43.744 740.902 43.744C741.206 43.744 741.502 43.704 741.79 43.624C742.094 43.544 742.358 43.424 742.582 43.264C742.806 43.088 742.99 42.88 743.134 42.64C743.278 42.384 743.35 42.088 743.35 41.752V33.472H746.422V46H743.35V43.912ZM755.035 46.288C754.107 46.288 753.275 46.136 752.539 45.832C751.819 45.512 751.203 45.072 750.691 44.512C750.195 43.936 749.811 43.248 749.539 42.448C749.267 41.632 749.131 40.72 749.131 39.712C749.131 38.72 749.259 37.824 749.515 37.024C749.787 36.224 750.171 35.544 750.667 34.984C751.163 34.408 751.771 33.968 752.491 33.664C753.211 33.344 754.027 33.184 754.939 33.184C755.915 33.184 756.763 33.352 757.483 33.688C758.203 34.024 758.795 34.48 759.259 35.056C759.723 35.632 760.067 36.304 760.291 37.072C760.531 37.824 760.651 38.632 760.651 39.496V40.504H752.323V40.816C752.323 41.728 752.579 42.464 753.091 43.024C753.603 43.568 754.363 43.84 755.371 43.84C756.139 43.84 756.763 43.68 757.243 43.36C757.739 43.04 758.179 42.632 758.563 42.136L760.219 43.984C759.707 44.704 759.003 45.272 758.107 45.688C757.227 46.088 756.203 46.288 755.035 46.288ZM754.987 35.488C754.171 35.488 753.523 35.76 753.043 36.304C752.563 36.848 752.323 37.552 752.323 38.416V38.608H757.459V38.392C757.459 37.528 757.243 36.832 756.811 36.304C756.395 35.76 755.787 35.488 754.987 35.488ZM775.794 32.056V46H772.626V32.056H767.874V29.248H780.546V32.056H775.794ZM786.346 46.288C785.45 46.288 784.642 46.136 783.922 45.832C783.218 45.528 782.61 45.088 782.098 44.512C781.602 43.936 781.218 43.248 780.946 42.448C780.674 41.632 780.538 40.72 780.538 39.712C780.538 38.704 780.674 37.8 780.946 37C781.218 36.2 781.602 35.52 782.098 34.96C782.61 34.384 783.218 33.944 783.922 33.64C784.642 33.336 785.45 33.184 786.346 33.184C787.242 33.184 788.05 33.336 788.77 33.64C789.49 33.944 790.098 34.384 790.594 34.96C791.106 35.52 791.498 36.2 791.77 37C792.042 37.8 792.178 38.704 792.178 39.712C792.178 40.72 792.042 41.632 791.77 42.448C791.498 43.248 791.106 43.936 790.594 44.512C790.098 45.088 789.49 45.528 788.77 45.832C788.05 46.136 787.242 46.288 786.346 46.288ZM786.346 43.816C787.162 43.816 787.802 43.568 788.266 43.072C788.73 42.576 788.962 41.848 788.962 40.888V38.56C788.962 37.616 788.73 36.896 788.266 36.4C787.802 35.904 787.162 35.656 786.346 35.656C785.546 35.656 784.914 35.904 784.45 36.4C783.986 36.896 783.754 37.616 783.754 38.56V40.888C783.754 41.848 783.986 42.576 784.45 43.072C784.914 43.568 785.546 43.816 786.346 43.816ZM794.901 46V33.472H797.973V35.56H798.093C798.349 34.888 798.749 34.328 799.293 33.88C799.853 33.416 800.621 33.184 801.597 33.184C802.893 33.184 803.885 33.608 804.573 34.456C805.261 35.304 805.605 36.512 805.605 38.08V46H802.533V38.392C802.533 37.496 802.373 36.824 802.053 36.376C801.733 35.928 801.205 35.704 800.469 35.704C800.149 35.704 799.837 35.752 799.533 35.848C799.245 35.928 798.981 36.056 798.741 36.232C798.517 36.392 798.333 36.6 798.189 36.856C798.045 37.096 797.973 37.384 797.973 37.72V46H794.901ZM820.314 47.056C820.314 47.712 820.194 48.288 819.954 48.784C819.73 49.296 819.354 49.72 818.826 50.056C818.298 50.392 817.618 50.648 816.786 50.824C815.954 51 814.938 51.088 813.738 51.088C812.682 51.088 811.786 51.016 811.05 50.872C810.314 50.744 809.706 50.552 809.226 50.296C808.762 50.056 808.426 49.752 808.218 49.384C808.01 49.016 807.906 48.6 807.906 48.136C807.906 47.432 808.098 46.88 808.482 46.48C808.882 46.096 809.434 45.848 810.138 45.736V45.472C809.626 45.344 809.226 45.096 808.938 44.728C808.666 44.344 808.53 43.896 808.53 43.384C808.53 43.064 808.594 42.784 808.722 42.544C808.85 42.288 809.018 42.072 809.226 41.896C809.45 41.72 809.698 41.576 809.97 41.464C810.242 41.336 810.53 41.24 810.834 41.176V41.08C810.066 40.728 809.49 40.24 809.106 39.616C808.738 38.992 808.554 38.264 808.554 37.432C808.554 36.152 808.994 35.128 809.874 34.36C810.754 33.576 812.042 33.184 813.738 33.184C814.122 33.184 814.498 33.208 814.866 33.256C815.25 33.304 815.602 33.384 815.922 33.496V33.088C815.922 31.872 816.514 31.264 817.698 31.264H819.642V33.616H816.978V33.952C817.634 34.32 818.122 34.8 818.442 35.392C818.762 35.984 818.922 36.664 818.922 37.432C818.922 38.696 818.482 39.712 817.602 40.48C816.738 41.248 815.45 41.632 813.738 41.632C813.002 41.632 812.362 41.56 811.818 41.416C811.578 41.528 811.37 41.68 811.194 41.872C811.018 42.048 810.93 42.272 810.93 42.544C810.93 43.168 811.474 43.48 812.562 43.48H815.922C817.458 43.48 818.57 43.8 819.258 44.44C819.962 45.064 820.314 45.936 820.314 47.056ZM817.434 47.416C817.434 47.016 817.274 46.704 816.954 46.48C816.634 46.256 816.082 46.144 815.298 46.144H811.026C810.594 46.464 810.378 46.896 810.378 47.44C810.378 47.92 810.578 48.296 810.978 48.568C811.378 48.84 812.058 48.976 813.018 48.976H814.554C815.562 48.976 816.29 48.848 816.738 48.592C817.202 48.336 817.434 47.944 817.434 47.416ZM813.738 39.544C815.242 39.544 815.994 38.904 815.994 37.624V37.216C815.994 35.936 815.242 35.296 813.738 35.296C812.234 35.296 811.482 35.936 811.482 37.216V37.624C811.482 38.904 812.234 39.544 813.738 39.544ZM829.483 43.912H829.363C829.251 44.232 829.099 44.536 828.907 44.824C828.731 45.096 828.499 45.344 828.211 45.568C827.939 45.792 827.603 45.968 827.203 46.096C826.819 46.224 826.371 46.288 825.859 46.288C824.563 46.288 823.571 45.864 822.883 45.016C822.195 44.168 821.851 42.96 821.851 41.392V33.472H824.923V41.08C824.923 41.944 825.091 42.608 825.427 43.072C825.763 43.52 826.299 43.744 827.035 43.744C827.339 43.744 827.635 43.704 827.923 43.624C828.227 43.544 828.491 43.424 828.715 43.264C828.939 43.088 829.123 42.88 829.267 42.64C829.411 42.384 829.483 42.088 829.483 41.752V33.472H832.555V46H829.483V43.912ZM841.168 46.288C840.24 46.288 839.408 46.136 838.672 45.832C837.952 45.512 837.336 45.072 836.824 44.512C836.328 43.936 835.944 43.248 835.672 42.448C835.4 41.632 835.264 40.72 835.264 39.712C835.264 38.72 835.392 37.824 835.648 37.024C835.92 36.224 836.304 35.544 836.8 34.984C837.296 34.408 837.904 33.968 838.624 33.664C839.344 33.344 840.16 33.184 841.072 33.184C842.048 33.184 842.896 33.352 843.616 33.688C844.336 34.024 844.928 34.48 845.392 35.056C845.856 35.632 846.2 36.304 846.424 37.072C846.664 37.824 846.784 38.632 846.784 39.496V40.504H838.456V40.816C838.456 41.728 838.712 42.464 839.224 43.024C839.736 43.568 840.496 43.84 841.504 43.84C842.272 43.84 842.896 43.68 843.376 43.36C843.872 43.04 844.312 42.632 844.696 42.136L846.352 43.984C845.84 44.704 845.136 45.272 844.24 45.688C843.36 46.088 842.336 46.288 841.168 46.288ZM841.12 35.488C840.304 35.488 839.656 35.76 839.176 36.304C838.696 36.848 838.456 37.552 838.456 38.416V38.608H843.592V38.392C843.592 37.528 843.376 36.832 842.944 36.304C842.528 35.76 841.92 35.488 841.12 35.488Z" fill="#000E01"/>
<path d="M527.523 6H526.483C526.472 5.69602 526.409 5.42898 526.295 5.19886C526.182 4.96875 526.028 4.77557 525.835 4.61932C525.645 4.46023 525.426 4.34091 525.179 4.26136C524.932 4.18182 524.668 4.14205 524.386 4.14205C523.847 4.14205 523.335 4.27983 522.852 4.5554C522.369 4.82812 521.956 5.23011 521.612 5.76136C521.268 6.28977 521.034 6.9375 520.909 7.70455C520.784 8.44886 520.803 9.07528 520.964 9.58381C521.126 10.0923 521.395 10.4773 521.77 10.7386C522.145 11 522.591 11.1307 523.108 11.1307C523.406 11.1307 523.699 11.0909 523.986 11.0114C524.276 10.9318 524.545 10.8139 524.795 10.6577C525.048 10.4986 525.273 10.304 525.469 10.0739C525.668 9.84091 525.824 9.57386 525.938 9.27273H526.994C526.838 9.71875 526.626 10.1179 526.359 10.4702C526.095 10.8224 525.79 11.1222 525.443 11.3693C525.097 11.6136 524.723 11.7997 524.322 11.9276C523.922 12.0554 523.506 12.1193 523.074 12.1193C522.318 12.1193 521.675 11.9347 521.143 11.5653C520.615 11.1932 520.237 10.6676 520.01 9.98864C519.786 9.30682 519.75 8.5 519.903 7.56818C520.057 6.65909 520.351 5.875 520.786 5.21591C521.22 4.55398 521.753 4.04545 522.384 3.69034C523.014 3.33239 523.699 3.15341 524.438 3.15341C524.881 3.15341 525.288 3.21733 525.661 3.34517C526.033 3.47301 526.357 3.66051 526.632 3.90767C526.908 4.15199 527.122 4.45028 527.276 4.80256C527.432 5.15199 527.514 5.55114 527.523 6ZM528.242 12L529.691 3.27273H530.748L530.1 7.15909H534.753L535.401 3.27273H536.458L535.009 12H533.952L534.6 8.09659H529.946L529.299 12H528.242ZM537.483 12H536.375L541.028 3.27273H542.119L543.875 12H542.767L541.386 4.65341H541.318L537.483 12ZM538.454 8.59091H542.92L542.767 9.52841H538.301L538.454 8.59091ZM548.386 9.27273H549.545L550.517 10.5511L550.773 10.892L552.222 12.8182H551.062L550.108 11.5398L549.869 11.2159L548.386 9.27273ZM552.903 7.70455C552.75 8.61364 552.456 9.39915 552.021 10.0611C551.587 10.7202 551.055 11.2287 550.428 11.5866C549.8 11.9418 549.119 12.1193 548.386 12.1193C547.631 12.1193 546.987 11.9347 546.456 11.5653C545.928 11.1932 545.55 10.6676 545.322 9.98864C545.098 9.30682 545.063 8.5 545.216 7.56818C545.369 6.65909 545.663 5.875 546.098 5.21591C546.533 4.55398 547.065 4.04545 547.696 3.69034C548.327 3.33239 549.011 3.15341 549.75 3.15341C550.5 3.15341 551.138 3.33949 551.663 3.71165C552.192 4.08097 552.568 4.60653 552.793 5.28835C553.02 5.96733 553.057 6.77273 552.903 7.70455ZM551.898 7.56818C552.023 6.82386 552.004 6.19744 551.842 5.68892C551.68 5.1804 551.412 4.79545 551.037 4.53409C550.662 4.27273 550.216 4.14205 549.699 4.14205C549.159 4.14205 548.648 4.27983 548.165 4.5554C547.682 4.82812 547.268 5.23011 546.925 5.76136C546.581 6.28977 546.347 6.9375 546.222 7.70455C546.097 8.44886 546.115 9.07528 546.277 9.58381C546.439 10.0923 546.707 10.4773 547.082 10.7386C547.457 11 547.903 11.1307 548.42 11.1307C548.96 11.1307 549.472 10.9943 549.955 10.7216C550.438 10.446 550.851 10.044 551.195 9.51562C551.538 8.98438 551.773 8.33523 551.898 7.56818ZM561.305 3.27273H562.362L561.407 9.05114C561.308 9.64773 561.079 10.1804 560.721 10.6491C560.363 11.1151 559.907 11.483 559.353 11.7528C558.799 12.0199 558.18 12.1534 557.495 12.1534C556.81 12.1534 556.237 12.0199 555.773 11.7528C555.31 11.483 554.978 11.1151 554.776 10.6491C554.575 10.1804 554.523 9.64773 554.623 9.05114L555.577 3.27273H556.634L555.688 8.96591C555.62 9.39205 555.653 9.77131 555.786 10.1037C555.92 10.4332 556.144 10.6932 556.46 10.8835C556.778 11.071 557.18 11.1648 557.665 11.1648C558.151 11.1648 558.585 11.071 558.965 10.8835C559.346 10.6932 559.656 10.4332 559.894 10.1037C560.136 9.77131 560.29 9.39205 560.359 8.96591L561.305 3.27273ZM563.023 12L564.472 3.27273H569.739L569.586 4.21023H565.375L564.881 7.15909H568.819L568.665 8.09659H564.728L564.233 11.0625H568.512L568.358 12H563.023ZM575.377 3.27273L576.757 10.6193H576.86L580.661 3.27273H581.769L577.115 12H576.025L574.269 3.27273H575.377ZM581.679 12L583.128 3.27273H588.395L588.242 4.21023H584.032L583.537 7.15909H587.475L587.321 8.09659H583.384L582.89 11.0625H587.168L587.015 12H581.679ZM597.221 3.27273L595.772 12H594.749L591.135 5.14773H591.05L589.908 12H588.851L590.3 3.27273H591.323L594.953 10.142H595.039L596.181 3.27273H597.221ZM600.614 12H597.886L599.335 3.27273H602.114C602.96 3.27273 603.658 3.45028 604.206 3.8054C604.757 4.16051 605.141 4.66761 605.357 5.3267C605.575 5.9858 605.608 6.77273 605.455 7.6875C605.307 8.58523 605.02 9.35653 604.594 10.0014C604.17 10.6435 603.622 11.1378 602.949 11.4844C602.278 11.8281 601.5 12 600.614 12ZM599.101 11.0625H600.648C601.369 11.0625 601.991 10.9205 602.514 10.6364C603.04 10.3523 603.463 9.94744 603.784 9.42188C604.108 8.89631 604.33 8.27273 604.449 7.55114C604.568 6.85795 604.557 6.26278 604.415 5.76562C604.276 5.26562 604.001 4.8821 603.592 4.61506C603.186 4.34517 602.642 4.21023 601.96 4.21023H600.234L599.101 11.0625ZM606.511 12L607.96 3.27273H610.909C611.591 3.27273 612.131 3.38778 612.528 3.6179C612.929 3.84801 613.2 4.16477 613.342 4.56818C613.487 4.97159 613.517 5.43182 613.432 5.94886C613.347 6.46023 613.165 6.91477 612.886 7.3125C612.611 7.71023 612.236 8.02273 611.761 8.25C611.29 8.47727 610.716 8.59091 610.04 8.59091H607.653L607.824 7.63636H610.176C610.642 7.63636 611.028 7.56818 611.335 7.43182C611.642 7.29545 611.881 7.10085 612.051 6.84801C612.222 6.59517 612.335 6.29545 612.392 5.94886C612.449 5.59659 612.433 5.29119 612.345 5.03267C612.26 4.77131 612.085 4.5696 611.821 4.42756C611.56 4.28267 611.193 4.21023 610.722 4.21023H608.864L607.568 12H606.511ZM611.267 8.07955L612.767 12H611.54L610.074 8.07955H611.267ZM614.187 12L615.636 3.27273H620.903L620.75 4.21023H616.539L616.045 7.15909H619.983L619.829 8.09659H615.892L615.397 11.0625H619.676L619.522 12H614.187ZM624.086 12H621.359L622.808 3.27273H625.586C626.433 3.27273 627.13 3.45028 627.679 3.8054C628.23 4.16051 628.613 4.66761 628.829 5.3267C629.048 5.9858 629.081 6.77273 628.927 7.6875C628.779 8.58523 628.493 9.35653 628.066 10.0014C627.643 10.6435 627.095 11.1378 626.422 11.4844C625.751 11.8281 624.973 12 624.086 12ZM622.574 11.0625H624.12C624.842 11.0625 625.464 10.9205 625.987 10.6364C626.512 10.3523 626.936 9.94744 627.257 9.42188C627.581 8.89631 627.802 8.27273 627.922 7.55114C628.041 6.85795 628.029 6.26278 627.887 5.76562C627.748 5.26562 627.474 4.8821 627.065 4.61506C626.659 4.34517 626.115 4.21023 625.433 4.21023H623.707L622.574 11.0625ZM632.49 3.27273L631.041 12H629.984L631.433 3.27273H632.49Z" fill="#79AC78"/>
<path d="M1040.47 46.288C1039.37 46.288 1038.37 46.112 1037.47 45.76C1036.59 45.392 1035.83 44.848 1035.19 44.128C1034.57 43.408 1034.09 42.52 1033.75 41.464C1033.42 40.392 1033.25 39.152 1033.25 37.744C1033.25 36.336 1033.42 35.088 1033.75 34C1034.09 32.896 1034.57 31.976 1035.19 31.24C1035.83 30.488 1036.59 29.92 1037.47 29.536C1038.37 29.152 1039.37 28.96 1040.47 28.96C1041.98 28.96 1043.22 29.28 1044.22 29.92C1045.21 30.56 1046 31.528 1046.59 32.824L1043.88 34.264C1043.64 33.512 1043.25 32.912 1042.7 32.464C1042.16 32 1041.42 31.768 1040.47 31.768C1039.29 31.768 1038.34 32.168 1037.64 32.968C1036.95 33.768 1036.61 34.888 1036.61 36.328V38.968C1036.61 40.424 1036.95 41.544 1037.64 42.328C1038.34 43.096 1039.29 43.48 1040.47 43.48C1041.42 43.48 1042.18 43.224 1042.78 42.712C1043.38 42.2 1043.82 41.568 1044.1 40.816L1046.66 42.328C1046.06 43.576 1045.25 44.552 1044.24 45.256C1043.23 45.944 1041.98 46.288 1040.47 46.288ZM1055.64 46.288C1054.53 46.288 1053.53 46.104 1052.64 45.736C1051.74 45.368 1050.97 44.816 1050.33 44.08C1049.71 43.344 1049.22 42.44 1048.87 41.368C1048.52 40.296 1048.34 39.048 1048.34 37.624C1048.34 36.216 1048.52 34.976 1048.87 33.904C1049.22 32.816 1049.71 31.904 1050.33 31.168C1050.97 30.432 1051.74 29.88 1052.64 29.512C1053.53 29.144 1054.53 28.96 1055.64 28.96C1056.74 28.96 1057.74 29.144 1058.64 29.512C1059.53 29.88 1060.3 30.432 1060.94 31.168C1061.58 31.904 1062.07 32.816 1062.41 33.904C1062.76 34.976 1062.93 36.216 1062.93 37.624C1062.93 39.048 1062.76 40.296 1062.41 41.368C1062.07 42.44 1061.58 43.344 1060.94 44.08C1060.3 44.816 1059.53 45.368 1058.64 45.736C1057.74 46.104 1056.74 46.288 1055.64 46.288ZM1055.64 43.48C1056.84 43.48 1057.79 43.08 1058.49 42.28C1059.21 41.48 1059.57 40.36 1059.57 38.92V36.328C1059.57 34.888 1059.21 33.768 1058.49 32.968C1057.79 32.168 1056.84 31.768 1055.64 31.768C1054.44 31.768 1053.48 32.168 1052.76 32.968C1052.05 33.768 1051.7 34.888 1051.7 36.328V38.92C1051.7 40.36 1052.05 41.48 1052.76 42.28C1053.48 43.08 1054.44 43.48 1055.64 43.48ZM1078.8 33.976H1078.7L1077.4 36.64L1073.97 42.976L1070.54 36.64L1069.24 33.976H1069.15V46H1066.15V29.248H1069.72L1074.02 37.432H1074.12L1078.36 29.248H1081.8V46H1078.8V33.976ZM1085.74 46V29.248H1096.78V32.056H1088.91V36.112H1095.87V38.92H1088.91V43.192H1096.78V46H1085.74ZM1100.13 29.248H1106.23C1107.32 29.248 1108.3 29.424 1109.18 29.776C1110.08 30.128 1110.84 30.656 1111.46 31.36C1112.1 32.048 1112.59 32.92 1112.92 33.976C1113.28 35.016 1113.45 36.232 1113.45 37.624C1113.45 39.016 1113.28 40.24 1112.92 41.296C1112.59 42.336 1112.1 43.208 1111.46 43.912C1110.84 44.6 1110.08 45.12 1109.18 45.472C1108.3 45.824 1107.32 46 1106.23 46H1100.13V29.248ZM1106.23 43.192C1107.41 43.192 1108.35 42.848 1109.04 42.16C1109.74 41.456 1110.09 40.384 1110.09 38.944V36.304C1110.09 34.864 1109.74 33.8 1109.04 33.112C1108.35 32.408 1107.41 32.056 1106.23 32.056H1103.3V43.192H1106.23ZM1115.98 46V43.456H1118.19V31.792H1115.98V29.248H1123.59V31.792H1121.36V43.456H1123.59V46H1115.98ZM1126.83 46V29.248H1137.87V32.056H1130V36.112H1136.96V38.92H1130V43.192H1137.87V46H1126.83ZM1146.89 46V29.248H1154.43C1155.19 29.248 1155.88 29.376 1156.49 29.632C1157.11 29.872 1157.64 30.224 1158.07 30.688C1158.51 31.136 1158.83 31.68 1159.06 32.32C1159.28 32.96 1159.39 33.664 1159.39 34.432C1159.39 35.216 1159.28 35.928 1159.06 36.568C1158.83 37.192 1158.51 37.736 1158.07 38.2C1157.64 38.648 1157.11 39 1156.49 39.256C1155.88 39.496 1155.19 39.616 1154.43 39.616H1150.06V46H1146.89ZM1150.06 36.88H1154.14C1154.75 36.88 1155.23 36.72 1155.58 36.4C1155.93 36.064 1156.11 35.592 1156.11 34.984V33.88C1156.11 33.272 1155.93 32.808 1155.58 32.488C1155.23 32.168 1154.75 32.008 1154.14 32.008H1150.06V36.88ZM1165.43 46H1162.26V29.248H1169.82C1170.59 29.248 1171.28 29.368 1171.89 29.608C1172.5 29.848 1173.01 30.2 1173.42 30.664C1173.86 31.112 1174.18 31.656 1174.41 32.296C1174.65 32.936 1174.77 33.648 1174.77 34.432C1174.77 35.584 1174.5 36.576 1173.98 37.408C1173.46 38.24 1172.69 38.832 1171.65 39.184L1175.08 46H1171.55L1168.43 39.544H1165.43V46ZM1169.51 36.88C1170.12 36.88 1170.6 36.72 1170.95 36.4C1171.3 36.064 1171.48 35.592 1171.48 34.984V33.88C1171.48 33.272 1171.3 32.808 1170.95 32.488C1170.6 32.168 1170.12 32.008 1169.51 32.008H1165.43V36.88H1169.51ZM1178.2 46V29.248H1189.24V32.056H1181.37V36.112H1188.33V38.92H1181.37V43.192H1189.24V46H1178.2ZM1197.8 46.288C1196.36 46.288 1195.14 46.032 1194.13 45.52C1193.14 45.008 1192.28 44.336 1191.56 43.504L1193.7 41.44C1194.27 42.112 1194.91 42.624 1195.62 42.976C1196.34 43.328 1197.13 43.504 1197.99 43.504C1198.97 43.504 1199.71 43.296 1200.2 42.88C1200.7 42.448 1200.95 41.872 1200.95 41.152C1200.95 40.592 1200.79 40.136 1200.47 39.784C1200.15 39.432 1199.55 39.176 1198.67 39.016L1197.08 38.776C1193.74 38.248 1192.07 36.624 1192.07 33.904C1192.07 33.152 1192.2 32.472 1192.47 31.864C1192.76 31.256 1193.17 30.736 1193.7 30.304C1194.23 29.872 1194.86 29.544 1195.59 29.32C1196.35 29.08 1197.19 28.96 1198.14 28.96C1199.4 28.96 1200.51 29.168 1201.45 29.584C1202.39 30 1203.2 30.616 1203.87 31.432L1201.71 33.472C1201.3 32.96 1200.79 32.544 1200.2 32.224C1199.61 31.904 1198.87 31.744 1197.97 31.744C1197.06 31.744 1196.37 31.92 1195.91 32.272C1195.46 32.608 1195.23 33.088 1195.23 33.712C1195.23 34.352 1195.42 34.824 1195.79 35.128C1196.15 35.432 1196.75 35.656 1197.56 35.8L1199.12 36.088C1200.82 36.392 1202.07 36.936 1202.87 37.72C1203.68 38.488 1204.09 39.568 1204.09 40.96C1204.09 41.76 1203.95 42.488 1203.66 43.144C1203.39 43.784 1202.98 44.344 1202.43 44.824C1201.91 45.288 1201.25 45.648 1200.47 45.904C1199.7 46.16 1198.81 46.288 1197.8 46.288ZM1212.17 46.288C1210.73 46.288 1209.5 46.032 1208.5 45.52C1207.5 45.008 1206.65 44.336 1205.93 43.504L1208.06 41.44C1208.64 42.112 1209.28 42.624 1209.98 42.976C1210.7 43.328 1211.5 43.504 1212.36 43.504C1213.34 43.504 1214.07 43.296 1214.57 42.88C1215.06 42.448 1215.31 41.872 1215.31 41.152C1215.31 40.592 1215.15 40.136 1214.83 39.784C1214.51 39.432 1213.91 39.176 1213.03 39.016L1211.45 38.776C1208.1 38.248 1206.43 36.624 1206.43 33.904C1206.43 33.152 1206.57 32.472 1206.84 31.864C1207.13 31.256 1207.54 30.736 1208.06 30.304C1208.59 29.872 1209.22 29.544 1209.96 29.32C1210.71 29.08 1211.56 28.96 1212.5 28.96C1213.77 28.96 1214.87 29.168 1215.82 29.584C1216.76 30 1217.57 30.616 1218.24 31.432L1216.08 33.472C1215.66 32.96 1215.16 32.544 1214.57 32.224C1213.98 31.904 1213.23 31.744 1212.34 31.744C1211.42 31.744 1210.74 31.92 1210.27 32.272C1209.82 32.608 1209.6 33.088 1209.6 33.712C1209.6 34.352 1209.78 34.824 1210.15 35.128C1210.52 35.432 1211.11 35.656 1211.93 35.8L1213.49 36.088C1215.18 36.392 1216.43 36.936 1217.23 37.72C1218.05 38.488 1218.46 39.568 1218.46 40.96C1218.46 41.76 1218.31 42.488 1218.02 43.144C1217.75 43.784 1217.34 44.344 1216.8 44.824C1216.27 45.288 1215.62 45.648 1214.83 45.904C1214.06 46.16 1213.18 46.288 1212.17 46.288ZM1221.63 46V29.248H1232.67V32.056H1224.8V36.112H1231.76V38.92H1224.8V43.192H1232.67V46H1221.63Z" fill="#000E01"/>
<path d="M1035.24 12H1032.51L1033.96 3.27273H1036.74C1037.59 3.27273 1038.28 3.45028 1038.83 3.8054C1039.38 4.16051 1039.77 4.66761 1039.98 5.3267C1040.2 5.9858 1040.23 6.77273 1040.08 7.6875C1039.93 8.58523 1039.64 9.35653 1039.22 10.0014C1038.8 10.6435 1038.25 11.1378 1037.57 11.4844C1036.9 11.8281 1036.13 12 1035.24 12ZM1033.73 11.0625H1035.27C1035.99 11.0625 1036.62 10.9205 1037.14 10.6364C1037.66 10.3523 1038.09 9.94744 1038.41 9.42188C1038.73 8.89631 1038.95 8.27273 1039.07 7.55114C1039.19 6.85795 1039.18 6.26278 1039.04 5.76562C1038.9 5.26562 1038.63 4.8821 1038.22 4.61506C1037.81 4.34517 1037.27 4.21023 1036.59 4.21023H1034.86L1033.73 11.0625ZM1048.31 3.27273H1049.37L1048.41 9.05114C1048.32 9.64773 1048.09 10.1804 1047.73 10.6491C1047.37 11.1151 1046.91 11.483 1046.36 11.7528C1045.81 12.0199 1045.19 12.1534 1044.5 12.1534C1043.82 12.1534 1043.24 12.0199 1042.78 11.7528C1042.32 11.483 1041.99 11.1151 1041.78 10.6491C1041.58 10.1804 1041.53 9.64773 1041.63 9.05114L1042.59 3.27273H1043.64L1042.7 8.96591C1042.63 9.39205 1042.66 9.77131 1042.79 10.1037C1042.93 10.4332 1043.15 10.6932 1043.47 10.8835C1043.79 11.071 1044.19 11.1648 1044.67 11.1648C1045.16 11.1648 1045.59 11.071 1045.97 10.8835C1046.35 10.6932 1046.66 10.4332 1046.9 10.1037C1047.14 9.77131 1047.3 9.39205 1047.37 8.96591L1048.31 3.27273ZM1053.41 12L1054.85 3.27273H1055.91L1054.62 11.0625H1058.67L1058.52 12H1053.41ZM1067.33 3.27273H1068.39L1067.43 9.05114C1067.33 9.64773 1067.11 10.1804 1066.75 10.6491C1066.39 11.1151 1065.93 11.483 1065.38 11.7528C1064.83 12.0199 1064.21 12.1534 1063.52 12.1534C1062.84 12.1534 1062.26 12.0199 1061.8 11.7528C1061.34 11.483 1061.01 11.1151 1060.8 10.6491C1060.6 10.1804 1060.55 9.64773 1060.65 9.05114L1061.6 3.27273H1062.66L1061.72 8.96591C1061.65 9.39205 1061.68 9.77131 1061.81 10.1037C1061.95 10.4332 1062.17 10.6932 1062.49 10.8835C1062.81 11.071 1063.21 11.1648 1063.69 11.1648C1064.18 11.1648 1064.61 11.071 1064.99 10.8835C1065.37 10.6932 1065.68 10.4332 1065.92 10.1037C1066.16 9.77131 1066.32 9.39205 1066.39 8.96591L1067.33 3.27273ZM1077.42 3.27273L1075.97 12H1074.95L1071.33 5.14773H1071.25L1070.11 12H1069.05L1070.5 3.27273H1071.52L1075.15 10.142H1075.24L1076.38 3.27273H1077.42ZM1080.81 12H1078.09L1079.53 3.27273H1082.31C1083.16 3.27273 1083.86 3.45028 1084.41 3.8054C1084.96 4.16051 1085.34 4.66761 1085.56 5.3267C1085.77 5.9858 1085.81 6.77273 1085.65 7.6875C1085.51 8.58523 1085.22 9.35653 1084.79 10.0014C1084.37 10.6435 1083.82 11.1378 1083.15 11.4844C1082.48 11.8281 1081.7 12 1080.81 12ZM1079.3 11.0625H1080.85C1081.57 11.0625 1082.19 10.9205 1082.71 10.6364C1083.24 10.3523 1083.66 9.94744 1083.98 9.42188C1084.31 8.89631 1084.53 8.27273 1084.65 7.55114C1084.77 6.85795 1084.76 6.26278 1084.61 5.76562C1084.47 5.26562 1084.2 4.8821 1083.79 4.61506C1083.39 4.34517 1082.84 4.21023 1082.16 4.21023H1080.43L1079.3 11.0625ZM1089.22 3.27273L1087.77 12H1086.71L1088.16 3.27273H1089.22ZM1093.62 12H1092.51L1097.16 3.27273H1098.26L1100.01 12H1098.9L1097.52 4.65341H1097.45L1093.62 12ZM1094.59 8.59091H1099.06L1098.9 9.52841H1094.44L1094.59 8.59091ZM1108.55 3.27273H1109.6L1108.65 9.05114C1108.55 9.64773 1108.32 10.1804 1107.96 10.6491C1107.61 11.1151 1107.15 11.483 1106.6 11.7528C1106.04 12.0199 1105.42 12.1534 1104.74 12.1534C1104.05 12.1534 1103.48 12.0199 1103.02 11.7528C1102.55 11.483 1102.22 11.1151 1102.02 10.6491C1101.82 10.1804 1101.77 9.64773 1101.87 9.05114L1102.82 3.27273H1103.88L1102.93 8.96591C1102.86 9.39205 1102.89 9.77131 1103.03 10.1037C1103.16 10.4332 1103.39 10.6932 1103.7 10.8835C1104.02 11.071 1104.42 11.1648 1104.91 11.1648C1105.39 11.1648 1105.83 11.071 1106.21 10.8835C1106.59 10.6932 1106.9 10.4332 1107.14 10.1037C1107.38 9.77131 1107.53 9.39205 1107.6 8.96591L1108.55 3.27273ZM1115.45 3.27273L1116.83 10.6193H1116.93L1120.73 3.27273H1121.84L1117.19 12H1116.09L1114.34 3.27273H1115.45ZM1121.75 12L1123.2 3.27273H1128.47L1128.31 4.21023H1124.1L1123.61 7.15909H1127.55L1127.39 8.09659H1123.45L1122.96 11.0625H1127.24L1127.08 12H1121.75ZM1137.29 3.27273L1135.84 12H1134.82L1131.21 5.14773H1131.12L1129.98 12H1128.92L1130.37 3.27273H1131.39L1135.02 10.142H1135.11L1136.25 3.27273H1137.29ZM1140.68 12H1137.96L1139.41 3.27273H1142.18C1143.03 3.27273 1143.73 3.45028 1144.28 3.8054C1144.83 4.16051 1145.21 4.66761 1145.43 5.3267C1145.65 5.9858 1145.68 6.77273 1145.52 7.6875C1145.38 8.58523 1145.09 9.35653 1144.66 10.0014C1144.24 10.6435 1143.69 11.1378 1143.02 11.4844C1142.35 11.8281 1141.57 12 1140.68 12ZM1139.17 11.0625H1140.72C1141.44 11.0625 1142.06 10.9205 1142.58 10.6364C1143.11 10.3523 1143.53 9.94744 1143.85 9.42188C1144.18 8.89631 1144.4 8.27273 1144.52 7.55114C1144.64 6.85795 1144.63 6.26278 1144.49 5.76562C1144.35 5.26562 1144.07 4.8821 1143.66 4.61506C1143.26 4.34517 1142.71 4.21023 1142.03 4.21023H1140.3L1139.17 11.0625ZM1146.58 12L1148.03 3.27273H1150.98C1151.66 3.27273 1152.2 3.38778 1152.6 3.6179C1153 3.84801 1153.27 4.16477 1153.41 4.56818C1153.56 4.97159 1153.59 5.43182 1153.5 5.94886C1153.42 6.46023 1153.24 6.91477 1152.96 7.3125C1152.68 7.71023 1152.31 8.02273 1151.83 8.25C1151.36 8.47727 1150.79 8.59091 1150.11 8.59091H1147.72L1147.89 7.63636H1150.25C1150.71 7.63636 1151.1 7.56818 1151.41 7.43182C1151.71 7.29545 1151.95 7.10085 1152.12 6.84801C1152.29 6.59517 1152.41 6.29545 1152.46 5.94886C1152.52 5.59659 1152.5 5.29119 1152.42 5.03267C1152.33 4.77131 1152.16 4.5696 1151.89 4.42756C1151.63 4.28267 1151.26 4.21023 1150.79 4.21023H1148.93L1147.64 12H1146.58ZM1151.34 8.07955L1152.84 12H1151.61L1150.14 8.07955H1151.34ZM1154.26 12L1155.71 3.27273H1160.97L1160.82 4.21023H1156.61L1156.12 7.15909H1160.05L1159.9 8.09659H1155.96L1155.47 11.0625H1159.75L1159.59 12H1154.26ZM1164.16 12H1161.43L1162.88 3.27273H1165.66C1166.5 3.27273 1167.2 3.45028 1167.75 3.8054C1168.3 4.16051 1168.68 4.66761 1168.9 5.3267C1169.12 5.9858 1169.15 6.77273 1169 7.6875C1168.85 8.58523 1168.56 9.35653 1168.14 10.0014C1167.71 10.6435 1167.17 11.1378 1166.49 11.4844C1165.82 11.8281 1165.04 12 1164.16 12ZM1162.64 11.0625H1164.19C1164.91 11.0625 1165.53 10.9205 1166.06 10.6364C1166.58 10.3523 1167.01 9.94744 1167.33 9.42188C1167.65 8.89631 1167.87 8.27273 1167.99 7.55114C1168.11 6.85795 1168.1 6.26278 1167.96 5.76562C1167.82 5.26562 1167.54 4.8821 1167.14 4.61506C1166.73 4.34517 1166.19 4.21023 1165.5 4.21023H1163.78L1162.64 11.0625ZM1172.56 3.27273L1171.11 12H1170.05L1171.5 3.27273H1172.56Z" fill="#79AC78"/>
</svg>
